%TF.GenerationSoftware,KiCad,Pcbnew,9.0.4*%
%TF.CreationDate,2025-11-25T21:13:56-05:00*%
%TF.ProjectId,FuSa1,46755361-312e-46b6-9963-61645f706362,rev?*%
%TF.SameCoordinates,Original*%
%TF.FileFunction,Drillmap*%
%TF.FilePolarity,Positive*%
%FSLAX45Y45*%
G04 Gerber Fmt 4.5, Leading zero omitted, Abs format (unit mm)*
G04 Created by KiCad (PCBNEW 9.0.4) date 2025-11-25 21:13:56*
%MOMM*%
%LPD*%
G01*
G04 APERTURE LIST*
%ADD10C,0.050000*%
%ADD11C,0.200000*%
%ADD12C,0.100000*%
%ADD13C,0.120000*%
%ADD14C,0.130000*%
%ADD15C,0.270000*%
%ADD16C,0.320000*%
G04 APERTURE END LIST*
D10*
X5000000Y-5900000D02*
X12850000Y-5900000D01*
X12850000Y-15000000D01*
X5000000Y-15000000D01*
X5000000Y-5900000D01*
D11*
D12*
X7680000Y-12185000D02*
X7710000Y-12215000D01*
X7710000Y-12185000D02*
X7680000Y-12215000D01*
X7680000Y-12385000D02*
X7710000Y-12415000D01*
X7710000Y-12385000D02*
X7680000Y-12415000D01*
X7731250Y-6995000D02*
X7761250Y-7025000D01*
X7761250Y-6995000D02*
X7731250Y-7025000D01*
X7731250Y-7335000D02*
X7761250Y-7365000D01*
X7761250Y-7335000D02*
X7731250Y-7365000D01*
X7967500Y-7185000D02*
X7997500Y-7215000D01*
X7997500Y-7185000D02*
X7967500Y-7215000D01*
X8153750Y-6835000D02*
X8183750Y-6865000D01*
X8183750Y-6835000D02*
X8153750Y-6865000D01*
X8325000Y-11485000D02*
X8355000Y-11515000D01*
X8355000Y-11485000D02*
X8325000Y-11515000D01*
X8325000Y-11775000D02*
X8355000Y-11805000D01*
X8355000Y-11775000D02*
X8325000Y-11805000D01*
X8325000Y-11940000D02*
X8355000Y-11970000D01*
X8355000Y-11940000D02*
X8325000Y-11970000D01*
X8481000Y-10190000D02*
X8511000Y-10220000D01*
X8511000Y-10190000D02*
X8481000Y-10220000D01*
X8485000Y-9630000D02*
X8515000Y-9660000D01*
X8515000Y-9630000D02*
X8485000Y-9660000D01*
X8488000Y-9788000D02*
X8518000Y-9818000D01*
X8518000Y-9788000D02*
X8488000Y-9818000D01*
X8505000Y-12346000D02*
X8535000Y-12376000D01*
X8535000Y-12346000D02*
X8505000Y-12376000D01*
X8505000Y-12646000D02*
X8535000Y-12676000D01*
X8535000Y-12646000D02*
X8505000Y-12676000D01*
X8505000Y-12946000D02*
X8535000Y-12976000D01*
X8535000Y-12946000D02*
X8505000Y-12976000D01*
X8581250Y-6285000D02*
X8611250Y-6315000D01*
X8611250Y-6285000D02*
X8581250Y-6315000D01*
X8581250Y-6625000D02*
X8611250Y-6655000D01*
X8611250Y-6625000D02*
X8581250Y-6655000D01*
X8581250Y-6995000D02*
X8611250Y-7025000D01*
X8611250Y-6995000D02*
X8581250Y-7025000D01*
X8581250Y-7335000D02*
X8611250Y-7365000D01*
X8611250Y-7335000D02*
X8581250Y-7365000D01*
X8581250Y-7715000D02*
X8611250Y-7745000D01*
X8611250Y-7715000D02*
X8581250Y-7745000D01*
X8581250Y-8055000D02*
X8611250Y-8085000D01*
X8611250Y-8055000D02*
X8581250Y-8085000D01*
X8810000Y-6445000D02*
X8840000Y-6475000D01*
X8840000Y-6445000D02*
X8810000Y-6475000D01*
X8810000Y-7135000D02*
X8840000Y-7165000D01*
X8840000Y-7135000D02*
X8810000Y-7165000D01*
X8817500Y-7885000D02*
X8847500Y-7915000D01*
X8847500Y-7885000D02*
X8817500Y-7915000D01*
X8932500Y-14132500D02*
X8962500Y-14162500D01*
X8962500Y-14132500D02*
X8932500Y-14162500D01*
X9003750Y-7585000D02*
X9033750Y-7615000D01*
X9033750Y-7585000D02*
X9003750Y-7615000D01*
X9013750Y-6145000D02*
X9043750Y-6175000D01*
X9043750Y-6145000D02*
X9013750Y-6175000D01*
X9013750Y-6835000D02*
X9043750Y-6865000D01*
X9043750Y-6835000D02*
X9013750Y-6865000D01*
X9085000Y-14135000D02*
X9115000Y-14165000D01*
X9115000Y-14135000D02*
X9085000Y-14165000D01*
X9431250Y-6995000D02*
X9461250Y-7025000D01*
X9461250Y-6995000D02*
X9431250Y-7025000D01*
X9431250Y-7335000D02*
X9461250Y-7365000D01*
X9461250Y-7335000D02*
X9431250Y-7365000D01*
X9648771Y-8985000D02*
X9678771Y-9015000D01*
X9678771Y-8985000D02*
X9648771Y-9015000D01*
X9667500Y-7185000D02*
X9697500Y-7215000D01*
X9697500Y-7185000D02*
X9667500Y-7215000D01*
X9685000Y-10885000D02*
X9715000Y-10915000D01*
X9715000Y-10885000D02*
X9685000Y-10915000D01*
X9695000Y-7807000D02*
X9725000Y-7837000D01*
X9725000Y-7807000D02*
X9695000Y-7837000D01*
X9695000Y-7962000D02*
X9725000Y-7992000D01*
X9725000Y-7962000D02*
X9695000Y-7992000D01*
X9698771Y-9435000D02*
X9728771Y-9465000D01*
X9728771Y-9435000D02*
X9698771Y-9465000D01*
X9770000Y-13385000D02*
X9800000Y-13415000D01*
X9800000Y-13385000D02*
X9770000Y-13415000D01*
X9780000Y-13585000D02*
X9810000Y-13615000D01*
X9810000Y-13585000D02*
X9780000Y-13615000D01*
X9831000Y-10985000D02*
X9861000Y-11015000D01*
X9861000Y-10985000D02*
X9831000Y-11015000D01*
X9848771Y-9435000D02*
X9878771Y-9465000D01*
X9878771Y-9435000D02*
X9848771Y-9465000D01*
X9895771Y-8985000D02*
X9925771Y-9015000D01*
X9925771Y-8985000D02*
X9895771Y-9015000D01*
X9911250Y-6835000D02*
X9941250Y-6865000D01*
X9941250Y-6835000D02*
X9911250Y-6865000D01*
X10230000Y-7685000D02*
X10260000Y-7715000D01*
X10260000Y-7685000D02*
X10230000Y-7715000D01*
X10235000Y-8985000D02*
X10265000Y-9015000D01*
X10265000Y-8985000D02*
X10235000Y-9015000D01*
X10235000Y-9435000D02*
X10265000Y-9465000D01*
X10265000Y-9435000D02*
X10235000Y-9465000D01*
X10250000Y-8080000D02*
X10280000Y-8110000D01*
X10280000Y-8080000D02*
X10250000Y-8110000D01*
X10250000Y-8235000D02*
X10280000Y-8265000D01*
X10280000Y-8235000D02*
X10250000Y-8265000D01*
X10431250Y-6995000D02*
X10461250Y-7025000D01*
X10461250Y-6995000D02*
X10431250Y-7025000D01*
X10431250Y-7335000D02*
X10461250Y-7365000D01*
X10461250Y-7335000D02*
X10431250Y-7365000D01*
X10485000Y-7630000D02*
X10515000Y-7660000D01*
X10515000Y-7630000D02*
X10485000Y-7660000D01*
X10485000Y-8090000D02*
X10515000Y-8120000D01*
X10515000Y-8090000D02*
X10485000Y-8120000D01*
X10660000Y-7155000D02*
X10690000Y-7185000D01*
X10690000Y-7155000D02*
X10660000Y-7185000D01*
X10685000Y-8585000D02*
X10715000Y-8615000D01*
X10715000Y-8585000D02*
X10685000Y-8615000D01*
X10697500Y-7940000D02*
X10727500Y-7970000D01*
X10727500Y-7940000D02*
X10697500Y-7970000D01*
X10870000Y-9935000D02*
X10900000Y-9965000D01*
X10900000Y-9935000D02*
X10870000Y-9965000D01*
X10885000Y-7135000D02*
X10915000Y-7165000D01*
X10915000Y-7135000D02*
X10885000Y-7165000D01*
X10885000Y-8585000D02*
X10915000Y-8615000D01*
X10915000Y-8585000D02*
X10885000Y-8615000D01*
X10885000Y-14335000D02*
X10915000Y-14365000D01*
X10915000Y-14335000D02*
X10885000Y-14365000D01*
X10906250Y-6815000D02*
X10936250Y-6845000D01*
X10936250Y-6815000D02*
X10906250Y-6845000D01*
X10981000Y-13385000D02*
X11011000Y-13415000D01*
X11011000Y-13385000D02*
X10981000Y-13415000D01*
X10981000Y-13585000D02*
X11011000Y-13615000D01*
X11011000Y-13585000D02*
X10981000Y-13615000D01*
X11120000Y-10135000D02*
X11150000Y-10165000D01*
X11150000Y-10135000D02*
X11120000Y-10165000D01*
X11180000Y-9735000D02*
X11210000Y-9765000D01*
X11210000Y-9735000D02*
X11180000Y-9765000D01*
X11180000Y-9935000D02*
X11210000Y-9965000D01*
X11210000Y-9935000D02*
X11180000Y-9965000D01*
X11185000Y-7785000D02*
X11215000Y-7815000D01*
X11215000Y-7785000D02*
X11185000Y-7815000D01*
X11235000Y-12635000D02*
X11265000Y-12665000D01*
X11265000Y-12635000D02*
X11235000Y-12665000D01*
X11285000Y-10835000D02*
X11315000Y-10865000D01*
X11315000Y-10835000D02*
X11285000Y-10865000D01*
X11335000Y-9735000D02*
X11365000Y-9765000D01*
X11365000Y-9735000D02*
X11335000Y-9765000D01*
X11335000Y-9935000D02*
X11365000Y-9965000D01*
X11365000Y-9935000D02*
X11335000Y-9965000D01*
X11384177Y-11885822D02*
X11414177Y-11915822D01*
X11414177Y-11885822D02*
X11384177Y-11915822D01*
X11985000Y-11485000D02*
X12015000Y-11515000D01*
X12015000Y-11485000D02*
X11985000Y-11515000D01*
X12085000Y-12635000D02*
X12115000Y-12665000D01*
X12115000Y-12635000D02*
X12085000Y-12665000D01*
X12085000Y-12785000D02*
X12115000Y-12815000D01*
X12115000Y-12785000D02*
X12085000Y-12815000D01*
X12187376Y-12117623D02*
X12217376Y-12147623D01*
X12217376Y-12117623D02*
X12187376Y-12147623D01*
X12220000Y-9435000D02*
X12250000Y-9465000D01*
X12250000Y-9435000D02*
X12220000Y-9465000D01*
X12330000Y-10385000D02*
X12360000Y-10415000D01*
X12360000Y-10385000D02*
X12330000Y-10415000D01*
X12330000Y-10585000D02*
X12360000Y-10615000D01*
X12360000Y-10585000D02*
X12330000Y-10615000D01*
X12485000Y-10385000D02*
X12515000Y-10415000D01*
X12515000Y-10385000D02*
X12485000Y-10415000D01*
X12485000Y-10585000D02*
X12515000Y-10615000D01*
X12515000Y-10585000D02*
X12485000Y-10615000D01*
X7192500Y-9345000D02*
G75*
G02*
X7152500Y-9345000I-20000J0D01*
G01*
X7152500Y-9345000D02*
G75*
G02*
X7192500Y-9345000I20000J0D01*
G01*
X7540000Y-13285000D02*
G75*
G02*
X7500000Y-13285000I-20000J0D01*
G01*
X7500000Y-13285000D02*
G75*
G02*
X7540000Y-13285000I20000J0D01*
G01*
X7570000Y-10532500D02*
G75*
G02*
X7530000Y-10532500I-20000J0D01*
G01*
X7530000Y-10532500D02*
G75*
G02*
X7570000Y-10532500I20000J0D01*
G01*
X7720000Y-8170000D02*
G75*
G02*
X7680000Y-8170000I-20000J0D01*
G01*
X7680000Y-8170000D02*
G75*
G02*
X7720000Y-8170000I20000J0D01*
G01*
X7770000Y-12655000D02*
G75*
G02*
X7730000Y-12655000I-20000J0D01*
G01*
X7730000Y-12655000D02*
G75*
G02*
X7770000Y-12655000I20000J0D01*
G01*
X7770000Y-13285000D02*
G75*
G02*
X7730000Y-13285000I-20000J0D01*
G01*
X7730000Y-13285000D02*
G75*
G02*
X7770000Y-13285000I20000J0D01*
G01*
X8120000Y-13500000D02*
G75*
G02*
X8080000Y-13500000I-20000J0D01*
G01*
X8080000Y-13500000D02*
G75*
G02*
X8120000Y-13500000I20000J0D01*
G01*
X8120000Y-13700000D02*
G75*
G02*
X8080000Y-13700000I-20000J0D01*
G01*
X8080000Y-13700000D02*
G75*
G02*
X8120000Y-13700000I20000J0D01*
G01*
X8170000Y-12000000D02*
G75*
G02*
X8130000Y-12000000I-20000J0D01*
G01*
X8130000Y-12000000D02*
G75*
G02*
X8170000Y-12000000I20000J0D01*
G01*
X8370000Y-12350000D02*
G75*
G02*
X8330000Y-12350000I-20000J0D01*
G01*
X8330000Y-12350000D02*
G75*
G02*
X8370000Y-12350000I20000J0D01*
G01*
X9520000Y-13900000D02*
G75*
G02*
X9480000Y-13900000I-20000J0D01*
G01*
X9480000Y-13900000D02*
G75*
G02*
X9520000Y-13900000I20000J0D01*
G01*
X6115000Y-7995000D02*
X6115000Y-8055000D01*
X6085000Y-8025000D02*
X6145000Y-8025000D01*
X6060000Y-8055000D02*
X6170000Y-8055000D01*
X6170000Y-7995000D02*
G75*
G02*
X6170000Y-8055000I0J-30000D01*
G01*
X6170000Y-7995000D02*
X6060000Y-7995000D01*
X6060000Y-7995000D02*
G75*
G03*
X6060000Y-8055000I0J-30000D01*
G01*
X6115000Y-9345000D02*
X6115000Y-9405000D01*
X6085000Y-9375000D02*
X6145000Y-9375000D01*
X6060000Y-9405000D02*
X6170000Y-9405000D01*
X6170000Y-9345000D02*
G75*
G02*
X6170000Y-9405000I0J-30000D01*
G01*
X6170000Y-9345000D02*
X6060000Y-9345000D01*
X6060000Y-9345000D02*
G75*
G03*
X6060000Y-9405000I0J-30000D01*
G01*
X7828284Y-14063019D02*
X7828284Y-14006450D01*
X7771715Y-14006450D01*
X7771715Y-14063019D01*
X7828284Y-14063019D01*
X7828284Y-14413019D02*
X7828284Y-14356450D01*
X7771715Y-14356450D01*
X7771715Y-14413019D01*
X7828284Y-14413019D01*
X8078284Y-9528285D02*
X8078284Y-9471716D01*
X8021715Y-9471716D01*
X8021715Y-9528285D01*
X8078284Y-9528285D01*
X8078284Y-9778285D02*
X8078284Y-9721716D01*
X8021715Y-9721716D01*
X8021715Y-9778285D01*
X8078284Y-9778285D01*
X8978285Y-13928284D02*
X8978285Y-13871715D01*
X8921716Y-13871715D01*
X8921716Y-13928284D01*
X8978285Y-13928284D01*
X9178285Y-13928284D02*
X9178285Y-13871715D01*
X9121716Y-13871715D01*
X9121716Y-13928284D01*
X9178285Y-13928284D01*
X12328284Y-9978285D02*
X12328284Y-9921716D01*
X12271715Y-9921716D01*
X12271715Y-9978285D01*
X12328284Y-9978285D01*
X12578284Y-9978285D02*
X12578284Y-9921716D01*
X12521715Y-9921716D01*
X12521715Y-9978285D01*
X12578284Y-9978285D01*
X5850000Y-7204250D02*
X5900000Y-7154250D01*
X5850000Y-7104250D01*
X5800000Y-7154250D01*
X5850000Y-7204250D01*
X5800000Y-7054250D02*
X5800000Y-7254250D01*
X5900000Y-7254250D02*
G75*
G02*
X5800000Y-7254250I-50000J0D01*
G01*
X5900000Y-7254250D02*
X5900000Y-7054250D01*
X5900000Y-7054250D02*
G75*
G03*
X5800000Y-7054250I-50000J0D01*
G01*
X6150000Y-7674250D02*
X6200000Y-7624250D01*
X6150000Y-7574250D01*
X6100000Y-7624250D01*
X6150000Y-7674250D01*
X6050000Y-7674250D02*
X6250000Y-7674250D01*
X6250000Y-7574250D02*
G75*
G02*
X6250000Y-7674250I0J-50000D01*
G01*
X6250000Y-7574250D02*
X6050000Y-7574250D01*
X6050000Y-7574250D02*
G75*
G03*
X6050000Y-7674250I0J-50000D01*
G01*
X6450000Y-7204250D02*
X6500000Y-7154250D01*
X6450000Y-7104250D01*
X6400000Y-7154250D01*
X6450000Y-7204250D01*
X6400000Y-7054250D02*
X6400000Y-7254250D01*
X6500000Y-7254250D02*
G75*
G02*
X6400000Y-7254250I-50000J0D01*
G01*
X6500000Y-7254250D02*
X6500000Y-7054250D01*
X6500000Y-7054250D02*
G75*
G03*
X6400000Y-7054250I-50000J0D01*
G01*
X7650000Y-10892000D02*
X7700000Y-10842000D01*
X7650000Y-10792000D01*
X7600000Y-10842000D01*
X7650000Y-10892000D01*
X7650000Y-11146000D02*
X7700000Y-11096000D01*
X7650000Y-11046000D01*
X7600000Y-11096000D01*
X7650000Y-11146000D01*
X7650000Y-11400000D02*
X7700000Y-11350000D01*
X7650000Y-11300000D01*
X7600000Y-11350000D01*
X7650000Y-11400000D01*
X7650000Y-11654000D02*
X7700000Y-11604000D01*
X7650000Y-11554000D01*
X7600000Y-11604000D01*
X7650000Y-11654000D01*
X8546000Y-9050000D02*
X8596000Y-9000000D01*
X8546000Y-8950000D01*
X8496000Y-9000000D01*
X8546000Y-9050000D01*
X8692000Y-14450000D02*
X8742000Y-14400000D01*
X8692000Y-14350000D01*
X8642000Y-14400000D01*
X8692000Y-14450000D01*
X8796000Y-9560000D02*
X8846000Y-9510000D01*
X8796000Y-9460000D01*
X8746000Y-9510000D01*
X8796000Y-9560000D01*
X8796000Y-9814000D02*
X8846000Y-9764000D01*
X8796000Y-9714000D01*
X8746000Y-9764000D01*
X8796000Y-9814000D01*
X8796000Y-10068000D02*
X8846000Y-10018000D01*
X8796000Y-9968000D01*
X8746000Y-10018000D01*
X8796000Y-10068000D01*
X8796000Y-10322000D02*
X8846000Y-10272000D01*
X8796000Y-10222000D01*
X8746000Y-10272000D01*
X8796000Y-10322000D01*
X8796000Y-10576000D02*
X8846000Y-10526000D01*
X8796000Y-10476000D01*
X8746000Y-10526000D01*
X8796000Y-10576000D01*
X8796000Y-10830000D02*
X8846000Y-10780000D01*
X8796000Y-10730000D01*
X8746000Y-10780000D01*
X8796000Y-10830000D01*
X8796000Y-11084000D02*
X8846000Y-11034000D01*
X8796000Y-10984000D01*
X8746000Y-11034000D01*
X8796000Y-11084000D01*
X8796000Y-11338000D02*
X8846000Y-11288000D01*
X8796000Y-11238000D01*
X8746000Y-11288000D01*
X8796000Y-11338000D01*
X8796000Y-11592000D02*
X8846000Y-11542000D01*
X8796000Y-11492000D01*
X8746000Y-11542000D01*
X8796000Y-11592000D01*
X8796000Y-11846000D02*
X8846000Y-11796000D01*
X8796000Y-11746000D01*
X8746000Y-11796000D01*
X8796000Y-11846000D01*
X8796000Y-12100000D02*
X8846000Y-12050000D01*
X8796000Y-12000000D01*
X8746000Y-12050000D01*
X8796000Y-12100000D01*
X8796000Y-12354000D02*
X8846000Y-12304000D01*
X8796000Y-12254000D01*
X8746000Y-12304000D01*
X8796000Y-12354000D01*
X8796000Y-12608000D02*
X8846000Y-12558000D01*
X8796000Y-12508000D01*
X8746000Y-12558000D01*
X8796000Y-12608000D01*
X8796000Y-12862000D02*
X8846000Y-12812000D01*
X8796000Y-12762000D01*
X8746000Y-12812000D01*
X8796000Y-12862000D01*
X8796000Y-13116000D02*
X8846000Y-13066000D01*
X8796000Y-13016000D01*
X8746000Y-13066000D01*
X8796000Y-13116000D01*
X8800000Y-9050000D02*
X8850000Y-9000000D01*
X8800000Y-8950000D01*
X8750000Y-9000000D01*
X8800000Y-9050000D01*
X8946000Y-14450000D02*
X8996000Y-14400000D01*
X8946000Y-14350000D01*
X8896000Y-14400000D01*
X8946000Y-14450000D01*
X9050000Y-9560000D02*
X9100000Y-9510000D01*
X9050000Y-9460000D01*
X9000000Y-9510000D01*
X9050000Y-9560000D01*
X9050000Y-9814000D02*
X9100000Y-9764000D01*
X9050000Y-9714000D01*
X9000000Y-9764000D01*
X9050000Y-9814000D01*
X9050000Y-10068000D02*
X9100000Y-10018000D01*
X9050000Y-9968000D01*
X9000000Y-10018000D01*
X9050000Y-10068000D01*
X9050000Y-10322000D02*
X9100000Y-10272000D01*
X9050000Y-10222000D01*
X9000000Y-10272000D01*
X9050000Y-10322000D01*
X9050000Y-10576000D02*
X9100000Y-10526000D01*
X9050000Y-10476000D01*
X9000000Y-10526000D01*
X9050000Y-10576000D01*
X9050000Y-10830000D02*
X9100000Y-10780000D01*
X9050000Y-10730000D01*
X9000000Y-10780000D01*
X9050000Y-10830000D01*
X9050000Y-11084000D02*
X9100000Y-11034000D01*
X9050000Y-10984000D01*
X9000000Y-11034000D01*
X9050000Y-11084000D01*
X9050000Y-11338000D02*
X9100000Y-11288000D01*
X9050000Y-11238000D01*
X9000000Y-11288000D01*
X9050000Y-11338000D01*
X9050000Y-11592000D02*
X9100000Y-11542000D01*
X9050000Y-11492000D01*
X9000000Y-11542000D01*
X9050000Y-11592000D01*
X9050000Y-11846000D02*
X9100000Y-11796000D01*
X9050000Y-11746000D01*
X9000000Y-11796000D01*
X9050000Y-11846000D01*
X9050000Y-12100000D02*
X9100000Y-12050000D01*
X9050000Y-12000000D01*
X9000000Y-12050000D01*
X9050000Y-12100000D01*
X9050000Y-12354000D02*
X9100000Y-12304000D01*
X9050000Y-12254000D01*
X9000000Y-12304000D01*
X9050000Y-12354000D01*
X9050000Y-12608000D02*
X9100000Y-12558000D01*
X9050000Y-12508000D01*
X9000000Y-12558000D01*
X9050000Y-12608000D01*
X9050000Y-12862000D02*
X9100000Y-12812000D01*
X9050000Y-12762000D01*
X9000000Y-12812000D01*
X9050000Y-12862000D01*
X9050000Y-13116000D02*
X9100000Y-13066000D01*
X9050000Y-13016000D01*
X9000000Y-13066000D01*
X9050000Y-13116000D01*
X9054000Y-9050000D02*
X9104000Y-9000000D01*
X9054000Y-8950000D01*
X9004000Y-9000000D01*
X9054000Y-9050000D01*
X9200000Y-14450000D02*
X9250000Y-14400000D01*
X9200000Y-14350000D01*
X9150000Y-14400000D01*
X9200000Y-14450000D01*
X10688000Y-9100000D02*
X10738000Y-9050000D01*
X10688000Y-9000000D01*
X10638000Y-9050000D01*
X10688000Y-9100000D01*
X10942000Y-9100000D02*
X10992000Y-9050000D01*
X10942000Y-9000000D01*
X10892000Y-9050000D01*
X10942000Y-9100000D01*
X11123500Y-8500000D02*
X11173500Y-8450000D01*
X11123500Y-8400000D01*
X11073500Y-8450000D01*
X11123500Y-8500000D01*
X11196000Y-9100000D02*
X11246000Y-9050000D01*
X11196000Y-9000000D01*
X11146000Y-9050000D01*
X11196000Y-9100000D01*
X11377500Y-8500000D02*
X11427500Y-8450000D01*
X11377500Y-8400000D01*
X11327500Y-8450000D01*
X11377500Y-8500000D01*
X11450000Y-9100000D02*
X11500000Y-9050000D01*
X11450000Y-9000000D01*
X11400000Y-9050000D01*
X11450000Y-9100000D01*
X11590000Y-9560000D02*
X11640000Y-9510000D01*
X11590000Y-9460000D01*
X11540000Y-9510000D01*
X11590000Y-9560000D01*
X11590000Y-9814000D02*
X11640000Y-9764000D01*
X11590000Y-9714000D01*
X11540000Y-9764000D01*
X11590000Y-9814000D01*
X11590000Y-10068000D02*
X11640000Y-10018000D01*
X11590000Y-9968000D01*
X11540000Y-10018000D01*
X11590000Y-10068000D01*
X11590000Y-10322000D02*
X11640000Y-10272000D01*
X11590000Y-10222000D01*
X11540000Y-10272000D01*
X11590000Y-10322000D01*
X11590000Y-10576000D02*
X11640000Y-10526000D01*
X11590000Y-10476000D01*
X11540000Y-10526000D01*
X11590000Y-10576000D01*
X11590000Y-10830000D02*
X11640000Y-10780000D01*
X11590000Y-10730000D01*
X11540000Y-10780000D01*
X11590000Y-10830000D01*
X11590000Y-11084000D02*
X11640000Y-11034000D01*
X11590000Y-10984000D01*
X11540000Y-11034000D01*
X11590000Y-11084000D01*
X11590000Y-11338000D02*
X11640000Y-11288000D01*
X11590000Y-11238000D01*
X11540000Y-11288000D01*
X11590000Y-11338000D01*
X11590000Y-11592000D02*
X11640000Y-11542000D01*
X11590000Y-11492000D01*
X11540000Y-11542000D01*
X11590000Y-11592000D01*
X11590000Y-11846000D02*
X11640000Y-11796000D01*
X11590000Y-11746000D01*
X11540000Y-11796000D01*
X11590000Y-11846000D01*
X11590000Y-12100000D02*
X11640000Y-12050000D01*
X11590000Y-12000000D01*
X11540000Y-12050000D01*
X11590000Y-12100000D01*
X11590000Y-12354000D02*
X11640000Y-12304000D01*
X11590000Y-12254000D01*
X11540000Y-12304000D01*
X11590000Y-12354000D01*
X11590000Y-12608000D02*
X11640000Y-12558000D01*
X11590000Y-12508000D01*
X11540000Y-12558000D01*
X11590000Y-12608000D01*
X11590000Y-12862000D02*
X11640000Y-12812000D01*
X11590000Y-12762000D01*
X11540000Y-12812000D01*
X11590000Y-12862000D01*
X11590000Y-13116000D02*
X11640000Y-13066000D01*
X11590000Y-13016000D01*
X11540000Y-13066000D01*
X11590000Y-13116000D01*
X11692000Y-13950000D02*
X11742000Y-13900000D01*
X11692000Y-13850000D01*
X11642000Y-13900000D01*
X11692000Y-13950000D01*
X11844000Y-9560000D02*
X11894000Y-9510000D01*
X11844000Y-9460000D01*
X11794000Y-9510000D01*
X11844000Y-9560000D01*
X11844000Y-9814000D02*
X11894000Y-9764000D01*
X11844000Y-9714000D01*
X11794000Y-9764000D01*
X11844000Y-9814000D01*
X11844000Y-10068000D02*
X11894000Y-10018000D01*
X11844000Y-9968000D01*
X11794000Y-10018000D01*
X11844000Y-10068000D01*
X11844000Y-10322000D02*
X11894000Y-10272000D01*
X11844000Y-10222000D01*
X11794000Y-10272000D01*
X11844000Y-10322000D01*
X11844000Y-10576000D02*
X11894000Y-10526000D01*
X11844000Y-10476000D01*
X11794000Y-10526000D01*
X11844000Y-10576000D01*
X11844000Y-10830000D02*
X11894000Y-10780000D01*
X11844000Y-10730000D01*
X11794000Y-10780000D01*
X11844000Y-10830000D01*
X11844000Y-11084000D02*
X11894000Y-11034000D01*
X11844000Y-10984000D01*
X11794000Y-11034000D01*
X11844000Y-11084000D01*
X11844000Y-11338000D02*
X11894000Y-11288000D01*
X11844000Y-11238000D01*
X11794000Y-11288000D01*
X11844000Y-11338000D01*
X11844000Y-11592000D02*
X11894000Y-11542000D01*
X11844000Y-11492000D01*
X11794000Y-11542000D01*
X11844000Y-11592000D01*
X11844000Y-11846000D02*
X11894000Y-11796000D01*
X11844000Y-11746000D01*
X11794000Y-11796000D01*
X11844000Y-11846000D01*
X11844000Y-12100000D02*
X11894000Y-12050000D01*
X11844000Y-12000000D01*
X11794000Y-12050000D01*
X11844000Y-12100000D01*
X11844000Y-12354000D02*
X11894000Y-12304000D01*
X11844000Y-12254000D01*
X11794000Y-12304000D01*
X11844000Y-12354000D01*
X11844000Y-12608000D02*
X11894000Y-12558000D01*
X11844000Y-12508000D01*
X11794000Y-12558000D01*
X11844000Y-12608000D01*
X11844000Y-12862000D02*
X11894000Y-12812000D01*
X11844000Y-12762000D01*
X11794000Y-12812000D01*
X11844000Y-12862000D01*
X11844000Y-13116000D02*
X11894000Y-13066000D01*
X11844000Y-13016000D01*
X11794000Y-13066000D01*
X11844000Y-13116000D01*
X11946000Y-13950000D02*
X11996000Y-13900000D01*
X11946000Y-13850000D01*
X11896000Y-13900000D01*
X11946000Y-13950000D01*
X12200000Y-13950000D02*
X12250000Y-13900000D01*
X12200000Y-13850000D01*
X12150000Y-13900000D01*
X12200000Y-13950000D01*
X12296000Y-10946000D02*
X12346000Y-10896000D01*
X12296000Y-10846000D01*
X12246000Y-10896000D01*
X12296000Y-10946000D01*
X12296000Y-11200000D02*
X12346000Y-11150000D01*
X12296000Y-11100000D01*
X12246000Y-11150000D01*
X12296000Y-11200000D01*
X12296000Y-11454000D02*
X12346000Y-11404000D01*
X12296000Y-11354000D01*
X12246000Y-11404000D01*
X12296000Y-11454000D01*
X12296000Y-11708000D02*
X12346000Y-11658000D01*
X12296000Y-11608000D01*
X12246000Y-11658000D01*
X12296000Y-11708000D01*
X12550000Y-10946000D02*
X12600000Y-10896000D01*
X12550000Y-10846000D01*
X12500000Y-10896000D01*
X12550000Y-10946000D01*
X12550000Y-11200000D02*
X12600000Y-11150000D01*
X12550000Y-11100000D01*
X12500000Y-11150000D01*
X12550000Y-11200000D01*
X12550000Y-11454000D02*
X12600000Y-11404000D01*
X12550000Y-11354000D01*
X12500000Y-11404000D01*
X12550000Y-11454000D01*
X12550000Y-11708000D02*
X12600000Y-11658000D01*
X12550000Y-11608000D01*
X12500000Y-11658000D01*
X12550000Y-11708000D01*
X12550000Y-12496000D02*
X12600000Y-12446000D01*
X12550000Y-12396000D01*
X12500000Y-12446000D01*
X12550000Y-12496000D01*
X12550000Y-12750000D02*
X12600000Y-12700000D01*
X12550000Y-12650000D01*
X12500000Y-12700000D01*
X12550000Y-12750000D01*
X12550000Y-13004000D02*
X12600000Y-12954000D01*
X12550000Y-12904000D01*
X12500000Y-12954000D01*
X12550000Y-13004000D01*
X12550000Y-13258000D02*
X12600000Y-13208000D01*
X12550000Y-13158000D01*
X12500000Y-13208000D01*
X12550000Y-13258000D01*
D13*
X5240000Y-9840000D02*
X5360000Y-9960000D01*
X5360000Y-9840000D02*
X5240000Y-9960000D01*
X5360000Y-9900000D02*
G75*
G02*
X5240000Y-9900000I-60000J0D01*
G01*
X5240000Y-9900000D02*
G75*
G02*
X5360000Y-9900000I60000J0D01*
G01*
X5240000Y-13840000D02*
X5360000Y-13960000D01*
X5360000Y-13840000D02*
X5240000Y-13960000D01*
X5360000Y-13900000D02*
G75*
G02*
X5240000Y-13900000I-60000J0D01*
G01*
X5240000Y-13900000D02*
G75*
G02*
X5360000Y-13900000I60000J0D01*
G01*
X7040000Y-9840000D02*
X7160000Y-9960000D01*
X7160000Y-9840000D02*
X7040000Y-9960000D01*
X7160000Y-9900000D02*
G75*
G02*
X7040000Y-9900000I-60000J0D01*
G01*
X7040000Y-9900000D02*
G75*
G02*
X7160000Y-9900000I60000J0D01*
G01*
X7040000Y-13840000D02*
X7160000Y-13960000D01*
X7160000Y-13840000D02*
X7040000Y-13960000D01*
X7160000Y-13900000D02*
G75*
G02*
X7040000Y-13900000I-60000J0D01*
G01*
X7040000Y-13900000D02*
G75*
G02*
X7160000Y-13900000I60000J0D01*
G01*
D14*
X12085000Y-7485000D02*
X12215000Y-7615000D01*
X12215000Y-7485000D02*
X12085000Y-7615000D01*
X12150000Y-7485000D02*
X12150000Y-7615000D01*
X12085000Y-7550000D02*
X12215000Y-7550000D01*
X12085000Y-7985000D02*
X12215000Y-8115000D01*
X12215000Y-7985000D02*
X12085000Y-8115000D01*
X12150000Y-7985000D02*
X12150000Y-8115000D01*
X12085000Y-8050000D02*
X12215000Y-8050000D01*
X12085000Y-8485000D02*
X12215000Y-8615000D01*
X12215000Y-8485000D02*
X12085000Y-8615000D01*
X12150000Y-8485000D02*
X12150000Y-8615000D01*
X12085000Y-8550000D02*
X12215000Y-8550000D01*
D15*
X6580000Y-8205000D02*
X6850000Y-8475000D01*
X6850000Y-8205000D02*
X6580000Y-8475000D01*
X6810460Y-8435460D02*
X6810460Y-8244540D01*
X6619540Y-8244540D01*
X6619540Y-8435460D01*
X6810460Y-8435460D01*
X6580000Y-8925000D02*
X6850000Y-9195000D01*
X6850000Y-8925000D02*
X6580000Y-9195000D01*
X6810460Y-9155460D02*
X6810460Y-8964540D01*
X6619540Y-8964540D01*
X6619540Y-9155460D01*
X6810460Y-9155460D01*
D16*
X5240000Y-6140000D02*
X5560000Y-6460000D01*
X5560000Y-6140000D02*
X5240000Y-6460000D01*
X5400000Y-6460000D02*
X5560000Y-6300000D01*
X5400000Y-6140000D01*
X5240000Y-6300000D01*
X5400000Y-6460000D01*
X5240000Y-14440000D02*
X5560000Y-14760000D01*
X5560000Y-14440000D02*
X5240000Y-14760000D01*
X5400000Y-14760000D02*
X5560000Y-14600000D01*
X5400000Y-14440000D01*
X5240000Y-14600000D01*
X5400000Y-14760000D01*
X12290000Y-6140000D02*
X12610000Y-6460000D01*
X12610000Y-6140000D02*
X12290000Y-6460000D01*
X12450000Y-6460000D02*
X12610000Y-6300000D01*
X12450000Y-6140000D01*
X12290000Y-6300000D01*
X12450000Y-6460000D01*
X12290000Y-14440000D02*
X12610000Y-14760000D01*
X12610000Y-14440000D02*
X12290000Y-14760000D01*
X12450000Y-14760000D02*
X12610000Y-14600000D01*
X12450000Y-14440000D01*
X12290000Y-14600000D01*
X12450000Y-14760000D01*
D11*
X5258277Y-15313984D02*
X5258277Y-15113984D01*
X5258277Y-15113984D02*
X5305896Y-15113984D01*
X5305896Y-15113984D02*
X5334467Y-15123508D01*
X5334467Y-15123508D02*
X5353515Y-15142555D01*
X5353515Y-15142555D02*
X5363039Y-15161603D01*
X5363039Y-15161603D02*
X5372563Y-15199698D01*
X5372563Y-15199698D02*
X5372563Y-15228269D01*
X5372563Y-15228269D02*
X5363039Y-15266365D01*
X5363039Y-15266365D02*
X5353515Y-15285412D01*
X5353515Y-15285412D02*
X5334467Y-15304460D01*
X5334467Y-15304460D02*
X5305896Y-15313984D01*
X5305896Y-15313984D02*
X5258277Y-15313984D01*
X5458277Y-15313984D02*
X5458277Y-15180650D01*
X5458277Y-15218746D02*
X5467801Y-15199698D01*
X5467801Y-15199698D02*
X5477324Y-15190174D01*
X5477324Y-15190174D02*
X5496372Y-15180650D01*
X5496372Y-15180650D02*
X5515420Y-15180650D01*
X5582086Y-15313984D02*
X5582086Y-15180650D01*
X5582086Y-15113984D02*
X5572563Y-15123508D01*
X5572563Y-15123508D02*
X5582086Y-15133031D01*
X5582086Y-15133031D02*
X5591610Y-15123508D01*
X5591610Y-15123508D02*
X5582086Y-15113984D01*
X5582086Y-15113984D02*
X5582086Y-15133031D01*
X5705896Y-15313984D02*
X5686848Y-15304460D01*
X5686848Y-15304460D02*
X5677324Y-15285412D01*
X5677324Y-15285412D02*
X5677324Y-15113984D01*
X5810658Y-15313984D02*
X5791610Y-15304460D01*
X5791610Y-15304460D02*
X5782086Y-15285412D01*
X5782086Y-15285412D02*
X5782086Y-15113984D01*
X6039229Y-15313984D02*
X6039229Y-15113984D01*
X6039229Y-15113984D02*
X6105896Y-15256841D01*
X6105896Y-15256841D02*
X6172562Y-15113984D01*
X6172562Y-15113984D02*
X6172562Y-15313984D01*
X6353515Y-15313984D02*
X6353515Y-15209222D01*
X6353515Y-15209222D02*
X6343991Y-15190174D01*
X6343991Y-15190174D02*
X6324943Y-15180650D01*
X6324943Y-15180650D02*
X6286848Y-15180650D01*
X6286848Y-15180650D02*
X6267801Y-15190174D01*
X6353515Y-15304460D02*
X6334467Y-15313984D01*
X6334467Y-15313984D02*
X6286848Y-15313984D01*
X6286848Y-15313984D02*
X6267801Y-15304460D01*
X6267801Y-15304460D02*
X6258277Y-15285412D01*
X6258277Y-15285412D02*
X6258277Y-15266365D01*
X6258277Y-15266365D02*
X6267801Y-15247317D01*
X6267801Y-15247317D02*
X6286848Y-15237793D01*
X6286848Y-15237793D02*
X6334467Y-15237793D01*
X6334467Y-15237793D02*
X6353515Y-15228269D01*
X6448753Y-15180650D02*
X6448753Y-15380650D01*
X6448753Y-15190174D02*
X6467801Y-15180650D01*
X6467801Y-15180650D02*
X6505896Y-15180650D01*
X6505896Y-15180650D02*
X6524943Y-15190174D01*
X6524943Y-15190174D02*
X6534467Y-15199698D01*
X6534467Y-15199698D02*
X6543991Y-15218746D01*
X6543991Y-15218746D02*
X6543991Y-15275888D01*
X6543991Y-15275888D02*
X6534467Y-15294936D01*
X6534467Y-15294936D02*
X6524943Y-15304460D01*
X6524943Y-15304460D02*
X6505896Y-15313984D01*
X6505896Y-15313984D02*
X6467801Y-15313984D01*
X6467801Y-15313984D02*
X6448753Y-15304460D01*
X6629705Y-15294936D02*
X6639229Y-15304460D01*
X6639229Y-15304460D02*
X6629705Y-15313984D01*
X6629705Y-15313984D02*
X6620182Y-15304460D01*
X6620182Y-15304460D02*
X6629705Y-15294936D01*
X6629705Y-15294936D02*
X6629705Y-15313984D01*
X6629705Y-15190174D02*
X6639229Y-15199698D01*
X6639229Y-15199698D02*
X6629705Y-15209222D01*
X6629705Y-15209222D02*
X6620182Y-15199698D01*
X6620182Y-15199698D02*
X6629705Y-15190174D01*
X6629705Y-15190174D02*
X6629705Y-15209222D01*
D12*
X4967500Y-15627500D02*
X4997500Y-15657500D01*
X4997500Y-15627500D02*
X4967500Y-15657500D01*
D11*
X5296372Y-15533984D02*
X5315420Y-15533984D01*
X5315420Y-15533984D02*
X5334467Y-15543508D01*
X5334467Y-15543508D02*
X5343991Y-15553031D01*
X5343991Y-15553031D02*
X5353515Y-15572079D01*
X5353515Y-15572079D02*
X5363039Y-15610174D01*
X5363039Y-15610174D02*
X5363039Y-15657793D01*
X5363039Y-15657793D02*
X5353515Y-15695888D01*
X5353515Y-15695888D02*
X5343991Y-15714936D01*
X5343991Y-15714936D02*
X5334467Y-15724460D01*
X5334467Y-15724460D02*
X5315420Y-15733984D01*
X5315420Y-15733984D02*
X5296372Y-15733984D01*
X5296372Y-15733984D02*
X5277324Y-15724460D01*
X5277324Y-15724460D02*
X5267801Y-15714936D01*
X5267801Y-15714936D02*
X5258277Y-15695888D01*
X5258277Y-15695888D02*
X5248753Y-15657793D01*
X5248753Y-15657793D02*
X5248753Y-15610174D01*
X5248753Y-15610174D02*
X5258277Y-15572079D01*
X5258277Y-15572079D02*
X5267801Y-15553031D01*
X5267801Y-15553031D02*
X5277324Y-15543508D01*
X5277324Y-15543508D02*
X5296372Y-15533984D01*
X5448753Y-15714936D02*
X5458277Y-15724460D01*
X5458277Y-15724460D02*
X5448753Y-15733984D01*
X5448753Y-15733984D02*
X5439229Y-15724460D01*
X5439229Y-15724460D02*
X5448753Y-15714936D01*
X5448753Y-15714936D02*
X5448753Y-15733984D01*
X5524944Y-15533984D02*
X5648753Y-15533984D01*
X5648753Y-15533984D02*
X5582086Y-15610174D01*
X5582086Y-15610174D02*
X5610658Y-15610174D01*
X5610658Y-15610174D02*
X5629705Y-15619698D01*
X5629705Y-15619698D02*
X5639229Y-15629222D01*
X5639229Y-15629222D02*
X5648753Y-15648269D01*
X5648753Y-15648269D02*
X5648753Y-15695888D01*
X5648753Y-15695888D02*
X5639229Y-15714936D01*
X5639229Y-15714936D02*
X5629705Y-15724460D01*
X5629705Y-15724460D02*
X5610658Y-15733984D01*
X5610658Y-15733984D02*
X5553515Y-15733984D01*
X5553515Y-15733984D02*
X5534467Y-15724460D01*
X5534467Y-15724460D02*
X5524944Y-15714936D01*
X5772562Y-15533984D02*
X5791610Y-15533984D01*
X5791610Y-15533984D02*
X5810658Y-15543508D01*
X5810658Y-15543508D02*
X5820182Y-15553031D01*
X5820182Y-15553031D02*
X5829705Y-15572079D01*
X5829705Y-15572079D02*
X5839229Y-15610174D01*
X5839229Y-15610174D02*
X5839229Y-15657793D01*
X5839229Y-15657793D02*
X5829705Y-15695888D01*
X5829705Y-15695888D02*
X5820182Y-15714936D01*
X5820182Y-15714936D02*
X5810658Y-15724460D01*
X5810658Y-15724460D02*
X5791610Y-15733984D01*
X5791610Y-15733984D02*
X5772562Y-15733984D01*
X5772562Y-15733984D02*
X5753515Y-15724460D01*
X5753515Y-15724460D02*
X5743991Y-15714936D01*
X5743991Y-15714936D02*
X5734467Y-15695888D01*
X5734467Y-15695888D02*
X5724943Y-15657793D01*
X5724943Y-15657793D02*
X5724943Y-15610174D01*
X5724943Y-15610174D02*
X5734467Y-15572079D01*
X5734467Y-15572079D02*
X5743991Y-15553031D01*
X5743991Y-15553031D02*
X5753515Y-15543508D01*
X5753515Y-15543508D02*
X5772562Y-15533984D01*
X5963039Y-15533984D02*
X5982086Y-15533984D01*
X5982086Y-15533984D02*
X6001134Y-15543508D01*
X6001134Y-15543508D02*
X6010658Y-15553031D01*
X6010658Y-15553031D02*
X6020182Y-15572079D01*
X6020182Y-15572079D02*
X6029705Y-15610174D01*
X6029705Y-15610174D02*
X6029705Y-15657793D01*
X6029705Y-15657793D02*
X6020182Y-15695888D01*
X6020182Y-15695888D02*
X6010658Y-15714936D01*
X6010658Y-15714936D02*
X6001134Y-15724460D01*
X6001134Y-15724460D02*
X5982086Y-15733984D01*
X5982086Y-15733984D02*
X5963039Y-15733984D01*
X5963039Y-15733984D02*
X5943991Y-15724460D01*
X5943991Y-15724460D02*
X5934467Y-15714936D01*
X5934467Y-15714936D02*
X5924943Y-15695888D01*
X5924943Y-15695888D02*
X5915420Y-15657793D01*
X5915420Y-15657793D02*
X5915420Y-15610174D01*
X5915420Y-15610174D02*
X5924943Y-15572079D01*
X5924943Y-15572079D02*
X5934467Y-15553031D01*
X5934467Y-15553031D02*
X5943991Y-15543508D01*
X5943991Y-15543508D02*
X5963039Y-15533984D01*
X6115420Y-15733984D02*
X6115420Y-15600650D01*
X6115420Y-15619698D02*
X6124943Y-15610174D01*
X6124943Y-15610174D02*
X6143991Y-15600650D01*
X6143991Y-15600650D02*
X6172563Y-15600650D01*
X6172563Y-15600650D02*
X6191610Y-15610174D01*
X6191610Y-15610174D02*
X6201134Y-15629222D01*
X6201134Y-15629222D02*
X6201134Y-15733984D01*
X6201134Y-15629222D02*
X6210658Y-15610174D01*
X6210658Y-15610174D02*
X6229705Y-15600650D01*
X6229705Y-15600650D02*
X6258277Y-15600650D01*
X6258277Y-15600650D02*
X6277324Y-15610174D01*
X6277324Y-15610174D02*
X6286848Y-15629222D01*
X6286848Y-15629222D02*
X6286848Y-15733984D01*
X6382086Y-15733984D02*
X6382086Y-15600650D01*
X6382086Y-15619698D02*
X6391610Y-15610174D01*
X6391610Y-15610174D02*
X6410658Y-15600650D01*
X6410658Y-15600650D02*
X6439229Y-15600650D01*
X6439229Y-15600650D02*
X6458277Y-15610174D01*
X6458277Y-15610174D02*
X6467801Y-15629222D01*
X6467801Y-15629222D02*
X6467801Y-15733984D01*
X6467801Y-15629222D02*
X6477324Y-15610174D01*
X6477324Y-15610174D02*
X6496372Y-15600650D01*
X6496372Y-15600650D02*
X6524943Y-15600650D01*
X6524943Y-15600650D02*
X6543991Y-15610174D01*
X6543991Y-15610174D02*
X6553515Y-15629222D01*
X6553515Y-15629222D02*
X6553515Y-15733984D01*
X6943991Y-15524460D02*
X6772563Y-15781603D01*
X7201134Y-15533984D02*
X7220182Y-15533984D01*
X7220182Y-15533984D02*
X7239229Y-15543508D01*
X7239229Y-15543508D02*
X7248753Y-15553031D01*
X7248753Y-15553031D02*
X7258277Y-15572079D01*
X7258277Y-15572079D02*
X7267801Y-15610174D01*
X7267801Y-15610174D02*
X7267801Y-15657793D01*
X7267801Y-15657793D02*
X7258277Y-15695888D01*
X7258277Y-15695888D02*
X7248753Y-15714936D01*
X7248753Y-15714936D02*
X7239229Y-15724460D01*
X7239229Y-15724460D02*
X7220182Y-15733984D01*
X7220182Y-15733984D02*
X7201134Y-15733984D01*
X7201134Y-15733984D02*
X7182086Y-15724460D01*
X7182086Y-15724460D02*
X7172563Y-15714936D01*
X7172563Y-15714936D02*
X7163039Y-15695888D01*
X7163039Y-15695888D02*
X7153515Y-15657793D01*
X7153515Y-15657793D02*
X7153515Y-15610174D01*
X7153515Y-15610174D02*
X7163039Y-15572079D01*
X7163039Y-15572079D02*
X7172563Y-15553031D01*
X7172563Y-15553031D02*
X7182086Y-15543508D01*
X7182086Y-15543508D02*
X7201134Y-15533984D01*
X7353515Y-15714936D02*
X7363039Y-15724460D01*
X7363039Y-15724460D02*
X7353515Y-15733984D01*
X7353515Y-15733984D02*
X7343991Y-15724460D01*
X7343991Y-15724460D02*
X7353515Y-15714936D01*
X7353515Y-15714936D02*
X7353515Y-15733984D01*
X7486848Y-15533984D02*
X7505896Y-15533984D01*
X7505896Y-15533984D02*
X7524944Y-15543508D01*
X7524944Y-15543508D02*
X7534467Y-15553031D01*
X7534467Y-15553031D02*
X7543991Y-15572079D01*
X7543991Y-15572079D02*
X7553515Y-15610174D01*
X7553515Y-15610174D02*
X7553515Y-15657793D01*
X7553515Y-15657793D02*
X7543991Y-15695888D01*
X7543991Y-15695888D02*
X7534467Y-15714936D01*
X7534467Y-15714936D02*
X7524944Y-15724460D01*
X7524944Y-15724460D02*
X7505896Y-15733984D01*
X7505896Y-15733984D02*
X7486848Y-15733984D01*
X7486848Y-15733984D02*
X7467801Y-15724460D01*
X7467801Y-15724460D02*
X7458277Y-15714936D01*
X7458277Y-15714936D02*
X7448753Y-15695888D01*
X7448753Y-15695888D02*
X7439229Y-15657793D01*
X7439229Y-15657793D02*
X7439229Y-15610174D01*
X7439229Y-15610174D02*
X7448753Y-15572079D01*
X7448753Y-15572079D02*
X7458277Y-15553031D01*
X7458277Y-15553031D02*
X7467801Y-15543508D01*
X7467801Y-15543508D02*
X7486848Y-15533984D01*
X7743991Y-15733984D02*
X7629706Y-15733984D01*
X7686848Y-15733984D02*
X7686848Y-15533984D01*
X7686848Y-15533984D02*
X7667801Y-15562555D01*
X7667801Y-15562555D02*
X7648753Y-15581603D01*
X7648753Y-15581603D02*
X7629706Y-15591127D01*
X7934467Y-15733984D02*
X7820182Y-15733984D01*
X7877325Y-15733984D02*
X7877325Y-15533984D01*
X7877325Y-15533984D02*
X7858277Y-15562555D01*
X7858277Y-15562555D02*
X7839229Y-15581603D01*
X7839229Y-15581603D02*
X7820182Y-15591127D01*
X8048753Y-15619698D02*
X8029706Y-15610174D01*
X8029706Y-15610174D02*
X8020182Y-15600650D01*
X8020182Y-15600650D02*
X8010658Y-15581603D01*
X8010658Y-15581603D02*
X8010658Y-15572079D01*
X8010658Y-15572079D02*
X8020182Y-15553031D01*
X8020182Y-15553031D02*
X8029706Y-15543508D01*
X8029706Y-15543508D02*
X8048753Y-15533984D01*
X8048753Y-15533984D02*
X8086848Y-15533984D01*
X8086848Y-15533984D02*
X8105896Y-15543508D01*
X8105896Y-15543508D02*
X8115420Y-15553031D01*
X8115420Y-15553031D02*
X8124944Y-15572079D01*
X8124944Y-15572079D02*
X8124944Y-15581603D01*
X8124944Y-15581603D02*
X8115420Y-15600650D01*
X8115420Y-15600650D02*
X8105896Y-15610174D01*
X8105896Y-15610174D02*
X8086848Y-15619698D01*
X8086848Y-15619698D02*
X8048753Y-15619698D01*
X8048753Y-15619698D02*
X8029706Y-15629222D01*
X8029706Y-15629222D02*
X8020182Y-15638746D01*
X8020182Y-15638746D02*
X8010658Y-15657793D01*
X8010658Y-15657793D02*
X8010658Y-15695888D01*
X8010658Y-15695888D02*
X8020182Y-15714936D01*
X8020182Y-15714936D02*
X8029706Y-15724460D01*
X8029706Y-15724460D02*
X8048753Y-15733984D01*
X8048753Y-15733984D02*
X8086848Y-15733984D01*
X8086848Y-15733984D02*
X8105896Y-15724460D01*
X8105896Y-15724460D02*
X8115420Y-15714936D01*
X8115420Y-15714936D02*
X8124944Y-15695888D01*
X8124944Y-15695888D02*
X8124944Y-15657793D01*
X8124944Y-15657793D02*
X8115420Y-15638746D01*
X8115420Y-15638746D02*
X8105896Y-15629222D01*
X8105896Y-15629222D02*
X8086848Y-15619698D01*
X8201134Y-15533984D02*
X8201134Y-15572079D01*
X8277325Y-15533984D02*
X8277325Y-15572079D01*
X8572563Y-15810174D02*
X8563039Y-15800650D01*
X8563039Y-15800650D02*
X8543991Y-15772079D01*
X8543991Y-15772079D02*
X8534468Y-15753031D01*
X8534468Y-15753031D02*
X8524944Y-15724460D01*
X8524944Y-15724460D02*
X8515420Y-15676841D01*
X8515420Y-15676841D02*
X8515420Y-15638746D01*
X8515420Y-15638746D02*
X8524944Y-15591127D01*
X8524944Y-15591127D02*
X8534468Y-15562555D01*
X8534468Y-15562555D02*
X8543991Y-15543508D01*
X8543991Y-15543508D02*
X8563039Y-15514936D01*
X8563039Y-15514936D02*
X8572563Y-15505412D01*
X8677325Y-15619698D02*
X8658277Y-15610174D01*
X8658277Y-15610174D02*
X8648753Y-15600650D01*
X8648753Y-15600650D02*
X8639230Y-15581603D01*
X8639230Y-15581603D02*
X8639230Y-15572079D01*
X8639230Y-15572079D02*
X8648753Y-15553031D01*
X8648753Y-15553031D02*
X8658277Y-15543508D01*
X8658277Y-15543508D02*
X8677325Y-15533984D01*
X8677325Y-15533984D02*
X8715420Y-15533984D01*
X8715420Y-15533984D02*
X8734468Y-15543508D01*
X8734468Y-15543508D02*
X8743991Y-15553031D01*
X8743991Y-15553031D02*
X8753515Y-15572079D01*
X8753515Y-15572079D02*
X8753515Y-15581603D01*
X8753515Y-15581603D02*
X8743991Y-15600650D01*
X8743991Y-15600650D02*
X8734468Y-15610174D01*
X8734468Y-15610174D02*
X8715420Y-15619698D01*
X8715420Y-15619698D02*
X8677325Y-15619698D01*
X8677325Y-15619698D02*
X8658277Y-15629222D01*
X8658277Y-15629222D02*
X8648753Y-15638746D01*
X8648753Y-15638746D02*
X8639230Y-15657793D01*
X8639230Y-15657793D02*
X8639230Y-15695888D01*
X8639230Y-15695888D02*
X8648753Y-15714936D01*
X8648753Y-15714936D02*
X8658277Y-15724460D01*
X8658277Y-15724460D02*
X8677325Y-15733984D01*
X8677325Y-15733984D02*
X8715420Y-15733984D01*
X8715420Y-15733984D02*
X8734468Y-15724460D01*
X8734468Y-15724460D02*
X8743991Y-15714936D01*
X8743991Y-15714936D02*
X8753515Y-15695888D01*
X8753515Y-15695888D02*
X8753515Y-15657793D01*
X8753515Y-15657793D02*
X8743991Y-15638746D01*
X8743991Y-15638746D02*
X8734468Y-15629222D01*
X8734468Y-15629222D02*
X8715420Y-15619698D01*
X8877325Y-15533984D02*
X8896372Y-15533984D01*
X8896372Y-15533984D02*
X8915420Y-15543508D01*
X8915420Y-15543508D02*
X8924944Y-15553031D01*
X8924944Y-15553031D02*
X8934468Y-15572079D01*
X8934468Y-15572079D02*
X8943991Y-15610174D01*
X8943991Y-15610174D02*
X8943991Y-15657793D01*
X8943991Y-15657793D02*
X8934468Y-15695888D01*
X8934468Y-15695888D02*
X8924944Y-15714936D01*
X8924944Y-15714936D02*
X8915420Y-15724460D01*
X8915420Y-15724460D02*
X8896372Y-15733984D01*
X8896372Y-15733984D02*
X8877325Y-15733984D01*
X8877325Y-15733984D02*
X8858277Y-15724460D01*
X8858277Y-15724460D02*
X8848753Y-15714936D01*
X8848753Y-15714936D02*
X8839230Y-15695888D01*
X8839230Y-15695888D02*
X8829706Y-15657793D01*
X8829706Y-15657793D02*
X8829706Y-15610174D01*
X8829706Y-15610174D02*
X8839230Y-15572079D01*
X8839230Y-15572079D02*
X8848753Y-15553031D01*
X8848753Y-15553031D02*
X8858277Y-15543508D01*
X8858277Y-15543508D02*
X8877325Y-15533984D01*
X9182087Y-15733984D02*
X9182087Y-15533984D01*
X9267801Y-15733984D02*
X9267801Y-15629222D01*
X9267801Y-15629222D02*
X9258277Y-15610174D01*
X9258277Y-15610174D02*
X9239230Y-15600650D01*
X9239230Y-15600650D02*
X9210658Y-15600650D01*
X9210658Y-15600650D02*
X9191611Y-15610174D01*
X9191611Y-15610174D02*
X9182087Y-15619698D01*
X9391611Y-15733984D02*
X9372563Y-15724460D01*
X9372563Y-15724460D02*
X9363039Y-15714936D01*
X9363039Y-15714936D02*
X9353515Y-15695888D01*
X9353515Y-15695888D02*
X9353515Y-15638746D01*
X9353515Y-15638746D02*
X9363039Y-15619698D01*
X9363039Y-15619698D02*
X9372563Y-15610174D01*
X9372563Y-15610174D02*
X9391611Y-15600650D01*
X9391611Y-15600650D02*
X9420182Y-15600650D01*
X9420182Y-15600650D02*
X9439230Y-15610174D01*
X9439230Y-15610174D02*
X9448753Y-15619698D01*
X9448753Y-15619698D02*
X9458277Y-15638746D01*
X9458277Y-15638746D02*
X9458277Y-15695888D01*
X9458277Y-15695888D02*
X9448753Y-15714936D01*
X9448753Y-15714936D02*
X9439230Y-15724460D01*
X9439230Y-15724460D02*
X9420182Y-15733984D01*
X9420182Y-15733984D02*
X9391611Y-15733984D01*
X9572563Y-15733984D02*
X9553515Y-15724460D01*
X9553515Y-15724460D02*
X9543992Y-15705412D01*
X9543992Y-15705412D02*
X9543992Y-15533984D01*
X9724944Y-15724460D02*
X9705896Y-15733984D01*
X9705896Y-15733984D02*
X9667801Y-15733984D01*
X9667801Y-15733984D02*
X9648753Y-15724460D01*
X9648753Y-15724460D02*
X9639230Y-15705412D01*
X9639230Y-15705412D02*
X9639230Y-15629222D01*
X9639230Y-15629222D02*
X9648753Y-15610174D01*
X9648753Y-15610174D02*
X9667801Y-15600650D01*
X9667801Y-15600650D02*
X9705896Y-15600650D01*
X9705896Y-15600650D02*
X9724944Y-15610174D01*
X9724944Y-15610174D02*
X9734468Y-15629222D01*
X9734468Y-15629222D02*
X9734468Y-15648269D01*
X9734468Y-15648269D02*
X9639230Y-15667317D01*
X9810658Y-15724460D02*
X9829706Y-15733984D01*
X9829706Y-15733984D02*
X9867801Y-15733984D01*
X9867801Y-15733984D02*
X9886849Y-15724460D01*
X9886849Y-15724460D02*
X9896373Y-15705412D01*
X9896373Y-15705412D02*
X9896373Y-15695888D01*
X9896373Y-15695888D02*
X9886849Y-15676841D01*
X9886849Y-15676841D02*
X9867801Y-15667317D01*
X9867801Y-15667317D02*
X9839230Y-15667317D01*
X9839230Y-15667317D02*
X9820182Y-15657793D01*
X9820182Y-15657793D02*
X9810658Y-15638746D01*
X9810658Y-15638746D02*
X9810658Y-15629222D01*
X9810658Y-15629222D02*
X9820182Y-15610174D01*
X9820182Y-15610174D02*
X9839230Y-15600650D01*
X9839230Y-15600650D02*
X9867801Y-15600650D01*
X9867801Y-15600650D02*
X9886849Y-15610174D01*
X9963039Y-15810174D02*
X9972563Y-15800650D01*
X9972563Y-15800650D02*
X9991611Y-15772079D01*
X9991611Y-15772079D02*
X10001134Y-15753031D01*
X10001134Y-15753031D02*
X10010658Y-15724460D01*
X10010658Y-15724460D02*
X10020182Y-15676841D01*
X10020182Y-15676841D02*
X10020182Y-15638746D01*
X10020182Y-15638746D02*
X10010658Y-15591127D01*
X10010658Y-15591127D02*
X10001134Y-15562555D01*
X10001134Y-15562555D02*
X9991611Y-15543508D01*
X9991611Y-15543508D02*
X9972563Y-15514936D01*
X9972563Y-15514936D02*
X9963039Y-15505412D01*
D12*
X4997500Y-15906500D02*
G75*
G02*
X4957500Y-15906500I-20000J0D01*
G01*
X4957500Y-15906500D02*
G75*
G02*
X4997500Y-15906500I20000J0D01*
G01*
D11*
X5296372Y-15797984D02*
X5315420Y-15797984D01*
X5315420Y-15797984D02*
X5334467Y-15807508D01*
X5334467Y-15807508D02*
X5343991Y-15817031D01*
X5343991Y-15817031D02*
X5353515Y-15836079D01*
X5353515Y-15836079D02*
X5363039Y-15874174D01*
X5363039Y-15874174D02*
X5363039Y-15921793D01*
X5363039Y-15921793D02*
X5353515Y-15959888D01*
X5353515Y-15959888D02*
X5343991Y-15978936D01*
X5343991Y-15978936D02*
X5334467Y-15988460D01*
X5334467Y-15988460D02*
X5315420Y-15997984D01*
X5315420Y-15997984D02*
X5296372Y-15997984D01*
X5296372Y-15997984D02*
X5277324Y-15988460D01*
X5277324Y-15988460D02*
X5267801Y-15978936D01*
X5267801Y-15978936D02*
X5258277Y-15959888D01*
X5258277Y-15959888D02*
X5248753Y-15921793D01*
X5248753Y-15921793D02*
X5248753Y-15874174D01*
X5248753Y-15874174D02*
X5258277Y-15836079D01*
X5258277Y-15836079D02*
X5267801Y-15817031D01*
X5267801Y-15817031D02*
X5277324Y-15807508D01*
X5277324Y-15807508D02*
X5296372Y-15797984D01*
X5448753Y-15978936D02*
X5458277Y-15988460D01*
X5458277Y-15988460D02*
X5448753Y-15997984D01*
X5448753Y-15997984D02*
X5439229Y-15988460D01*
X5439229Y-15988460D02*
X5448753Y-15978936D01*
X5448753Y-15978936D02*
X5448753Y-15997984D01*
X5629705Y-15864650D02*
X5629705Y-15997984D01*
X5582086Y-15788460D02*
X5534467Y-15931317D01*
X5534467Y-15931317D02*
X5658277Y-15931317D01*
X5772562Y-15797984D02*
X5791610Y-15797984D01*
X5791610Y-15797984D02*
X5810658Y-15807508D01*
X5810658Y-15807508D02*
X5820182Y-15817031D01*
X5820182Y-15817031D02*
X5829705Y-15836079D01*
X5829705Y-15836079D02*
X5839229Y-15874174D01*
X5839229Y-15874174D02*
X5839229Y-15921793D01*
X5839229Y-15921793D02*
X5829705Y-15959888D01*
X5829705Y-15959888D02*
X5820182Y-15978936D01*
X5820182Y-15978936D02*
X5810658Y-15988460D01*
X5810658Y-15988460D02*
X5791610Y-15997984D01*
X5791610Y-15997984D02*
X5772562Y-15997984D01*
X5772562Y-15997984D02*
X5753515Y-15988460D01*
X5753515Y-15988460D02*
X5743991Y-15978936D01*
X5743991Y-15978936D02*
X5734467Y-15959888D01*
X5734467Y-15959888D02*
X5724943Y-15921793D01*
X5724943Y-15921793D02*
X5724943Y-15874174D01*
X5724943Y-15874174D02*
X5734467Y-15836079D01*
X5734467Y-15836079D02*
X5743991Y-15817031D01*
X5743991Y-15817031D02*
X5753515Y-15807508D01*
X5753515Y-15807508D02*
X5772562Y-15797984D01*
X5963039Y-15797984D02*
X5982086Y-15797984D01*
X5982086Y-15797984D02*
X6001134Y-15807508D01*
X6001134Y-15807508D02*
X6010658Y-15817031D01*
X6010658Y-15817031D02*
X6020182Y-15836079D01*
X6020182Y-15836079D02*
X6029705Y-15874174D01*
X6029705Y-15874174D02*
X6029705Y-15921793D01*
X6029705Y-15921793D02*
X6020182Y-15959888D01*
X6020182Y-15959888D02*
X6010658Y-15978936D01*
X6010658Y-15978936D02*
X6001134Y-15988460D01*
X6001134Y-15988460D02*
X5982086Y-15997984D01*
X5982086Y-15997984D02*
X5963039Y-15997984D01*
X5963039Y-15997984D02*
X5943991Y-15988460D01*
X5943991Y-15988460D02*
X5934467Y-15978936D01*
X5934467Y-15978936D02*
X5924943Y-15959888D01*
X5924943Y-15959888D02*
X5915420Y-15921793D01*
X5915420Y-15921793D02*
X5915420Y-15874174D01*
X5915420Y-15874174D02*
X5924943Y-15836079D01*
X5924943Y-15836079D02*
X5934467Y-15817031D01*
X5934467Y-15817031D02*
X5943991Y-15807508D01*
X5943991Y-15807508D02*
X5963039Y-15797984D01*
X6115420Y-15997984D02*
X6115420Y-15864650D01*
X6115420Y-15883698D02*
X6124943Y-15874174D01*
X6124943Y-15874174D02*
X6143991Y-15864650D01*
X6143991Y-15864650D02*
X6172563Y-15864650D01*
X6172563Y-15864650D02*
X6191610Y-15874174D01*
X6191610Y-15874174D02*
X6201134Y-15893222D01*
X6201134Y-15893222D02*
X6201134Y-15997984D01*
X6201134Y-15893222D02*
X6210658Y-15874174D01*
X6210658Y-15874174D02*
X6229705Y-15864650D01*
X6229705Y-15864650D02*
X6258277Y-15864650D01*
X6258277Y-15864650D02*
X6277324Y-15874174D01*
X6277324Y-15874174D02*
X6286848Y-15893222D01*
X6286848Y-15893222D02*
X6286848Y-15997984D01*
X6382086Y-15997984D02*
X6382086Y-15864650D01*
X6382086Y-15883698D02*
X6391610Y-15874174D01*
X6391610Y-15874174D02*
X6410658Y-15864650D01*
X6410658Y-15864650D02*
X6439229Y-15864650D01*
X6439229Y-15864650D02*
X6458277Y-15874174D01*
X6458277Y-15874174D02*
X6467801Y-15893222D01*
X6467801Y-15893222D02*
X6467801Y-15997984D01*
X6467801Y-15893222D02*
X6477324Y-15874174D01*
X6477324Y-15874174D02*
X6496372Y-15864650D01*
X6496372Y-15864650D02*
X6524943Y-15864650D01*
X6524943Y-15864650D02*
X6543991Y-15874174D01*
X6543991Y-15874174D02*
X6553515Y-15893222D01*
X6553515Y-15893222D02*
X6553515Y-15997984D01*
X6943991Y-15788460D02*
X6772563Y-16045603D01*
X7201134Y-15797984D02*
X7220182Y-15797984D01*
X7220182Y-15797984D02*
X7239229Y-15807508D01*
X7239229Y-15807508D02*
X7248753Y-15817031D01*
X7248753Y-15817031D02*
X7258277Y-15836079D01*
X7258277Y-15836079D02*
X7267801Y-15874174D01*
X7267801Y-15874174D02*
X7267801Y-15921793D01*
X7267801Y-15921793D02*
X7258277Y-15959888D01*
X7258277Y-15959888D02*
X7248753Y-15978936D01*
X7248753Y-15978936D02*
X7239229Y-15988460D01*
X7239229Y-15988460D02*
X7220182Y-15997984D01*
X7220182Y-15997984D02*
X7201134Y-15997984D01*
X7201134Y-15997984D02*
X7182086Y-15988460D01*
X7182086Y-15988460D02*
X7172563Y-15978936D01*
X7172563Y-15978936D02*
X7163039Y-15959888D01*
X7163039Y-15959888D02*
X7153515Y-15921793D01*
X7153515Y-15921793D02*
X7153515Y-15874174D01*
X7153515Y-15874174D02*
X7163039Y-15836079D01*
X7163039Y-15836079D02*
X7172563Y-15817031D01*
X7172563Y-15817031D02*
X7182086Y-15807508D01*
X7182086Y-15807508D02*
X7201134Y-15797984D01*
X7353515Y-15978936D02*
X7363039Y-15988460D01*
X7363039Y-15988460D02*
X7353515Y-15997984D01*
X7353515Y-15997984D02*
X7343991Y-15988460D01*
X7343991Y-15988460D02*
X7353515Y-15978936D01*
X7353515Y-15978936D02*
X7353515Y-15997984D01*
X7486848Y-15797984D02*
X7505896Y-15797984D01*
X7505896Y-15797984D02*
X7524944Y-15807508D01*
X7524944Y-15807508D02*
X7534467Y-15817031D01*
X7534467Y-15817031D02*
X7543991Y-15836079D01*
X7543991Y-15836079D02*
X7553515Y-15874174D01*
X7553515Y-15874174D02*
X7553515Y-15921793D01*
X7553515Y-15921793D02*
X7543991Y-15959888D01*
X7543991Y-15959888D02*
X7534467Y-15978936D01*
X7534467Y-15978936D02*
X7524944Y-15988460D01*
X7524944Y-15988460D02*
X7505896Y-15997984D01*
X7505896Y-15997984D02*
X7486848Y-15997984D01*
X7486848Y-15997984D02*
X7467801Y-15988460D01*
X7467801Y-15988460D02*
X7458277Y-15978936D01*
X7458277Y-15978936D02*
X7448753Y-15959888D01*
X7448753Y-15959888D02*
X7439229Y-15921793D01*
X7439229Y-15921793D02*
X7439229Y-15874174D01*
X7439229Y-15874174D02*
X7448753Y-15836079D01*
X7448753Y-15836079D02*
X7458277Y-15817031D01*
X7458277Y-15817031D02*
X7467801Y-15807508D01*
X7467801Y-15807508D02*
X7486848Y-15797984D01*
X7743991Y-15997984D02*
X7629706Y-15997984D01*
X7686848Y-15997984D02*
X7686848Y-15797984D01*
X7686848Y-15797984D02*
X7667801Y-15826555D01*
X7667801Y-15826555D02*
X7648753Y-15845603D01*
X7648753Y-15845603D02*
X7629706Y-15855127D01*
X7924944Y-15797984D02*
X7829706Y-15797984D01*
X7829706Y-15797984D02*
X7820182Y-15893222D01*
X7820182Y-15893222D02*
X7829706Y-15883698D01*
X7829706Y-15883698D02*
X7848753Y-15874174D01*
X7848753Y-15874174D02*
X7896372Y-15874174D01*
X7896372Y-15874174D02*
X7915420Y-15883698D01*
X7915420Y-15883698D02*
X7924944Y-15893222D01*
X7924944Y-15893222D02*
X7934467Y-15912269D01*
X7934467Y-15912269D02*
X7934467Y-15959888D01*
X7934467Y-15959888D02*
X7924944Y-15978936D01*
X7924944Y-15978936D02*
X7915420Y-15988460D01*
X7915420Y-15988460D02*
X7896372Y-15997984D01*
X7896372Y-15997984D02*
X7848753Y-15997984D01*
X7848753Y-15997984D02*
X7829706Y-15988460D01*
X7829706Y-15988460D02*
X7820182Y-15978936D01*
X8001134Y-15797984D02*
X8134467Y-15797984D01*
X8134467Y-15797984D02*
X8048753Y-15997984D01*
X8201134Y-15797984D02*
X8201134Y-15836079D01*
X8277325Y-15797984D02*
X8277325Y-15836079D01*
X8572563Y-16074174D02*
X8563039Y-16064650D01*
X8563039Y-16064650D02*
X8543991Y-16036079D01*
X8543991Y-16036079D02*
X8534468Y-16017031D01*
X8534468Y-16017031D02*
X8524944Y-15988460D01*
X8524944Y-15988460D02*
X8515420Y-15940841D01*
X8515420Y-15940841D02*
X8515420Y-15902746D01*
X8515420Y-15902746D02*
X8524944Y-15855127D01*
X8524944Y-15855127D02*
X8534468Y-15826555D01*
X8534468Y-15826555D02*
X8543991Y-15807508D01*
X8543991Y-15807508D02*
X8563039Y-15778936D01*
X8563039Y-15778936D02*
X8572563Y-15769412D01*
X8753515Y-15997984D02*
X8639230Y-15997984D01*
X8696372Y-15997984D02*
X8696372Y-15797984D01*
X8696372Y-15797984D02*
X8677325Y-15826555D01*
X8677325Y-15826555D02*
X8658277Y-15845603D01*
X8658277Y-15845603D02*
X8639230Y-15855127D01*
X8943991Y-15997984D02*
X8829706Y-15997984D01*
X8886849Y-15997984D02*
X8886849Y-15797984D01*
X8886849Y-15797984D02*
X8867801Y-15826555D01*
X8867801Y-15826555D02*
X8848753Y-15845603D01*
X8848753Y-15845603D02*
X8829706Y-15855127D01*
X9182087Y-15997984D02*
X9182087Y-15797984D01*
X9267801Y-15997984D02*
X9267801Y-15893222D01*
X9267801Y-15893222D02*
X9258277Y-15874174D01*
X9258277Y-15874174D02*
X9239230Y-15864650D01*
X9239230Y-15864650D02*
X9210658Y-15864650D01*
X9210658Y-15864650D02*
X9191611Y-15874174D01*
X9191611Y-15874174D02*
X9182087Y-15883698D01*
X9391611Y-15997984D02*
X9372563Y-15988460D01*
X9372563Y-15988460D02*
X9363039Y-15978936D01*
X9363039Y-15978936D02*
X9353515Y-15959888D01*
X9353515Y-15959888D02*
X9353515Y-15902746D01*
X9353515Y-15902746D02*
X9363039Y-15883698D01*
X9363039Y-15883698D02*
X9372563Y-15874174D01*
X9372563Y-15874174D02*
X9391611Y-15864650D01*
X9391611Y-15864650D02*
X9420182Y-15864650D01*
X9420182Y-15864650D02*
X9439230Y-15874174D01*
X9439230Y-15874174D02*
X9448753Y-15883698D01*
X9448753Y-15883698D02*
X9458277Y-15902746D01*
X9458277Y-15902746D02*
X9458277Y-15959888D01*
X9458277Y-15959888D02*
X9448753Y-15978936D01*
X9448753Y-15978936D02*
X9439230Y-15988460D01*
X9439230Y-15988460D02*
X9420182Y-15997984D01*
X9420182Y-15997984D02*
X9391611Y-15997984D01*
X9572563Y-15997984D02*
X9553515Y-15988460D01*
X9553515Y-15988460D02*
X9543992Y-15969412D01*
X9543992Y-15969412D02*
X9543992Y-15797984D01*
X9724944Y-15988460D02*
X9705896Y-15997984D01*
X9705896Y-15997984D02*
X9667801Y-15997984D01*
X9667801Y-15997984D02*
X9648753Y-15988460D01*
X9648753Y-15988460D02*
X9639230Y-15969412D01*
X9639230Y-15969412D02*
X9639230Y-15893222D01*
X9639230Y-15893222D02*
X9648753Y-15874174D01*
X9648753Y-15874174D02*
X9667801Y-15864650D01*
X9667801Y-15864650D02*
X9705896Y-15864650D01*
X9705896Y-15864650D02*
X9724944Y-15874174D01*
X9724944Y-15874174D02*
X9734468Y-15893222D01*
X9734468Y-15893222D02*
X9734468Y-15912269D01*
X9734468Y-15912269D02*
X9639230Y-15931317D01*
X9810658Y-15988460D02*
X9829706Y-15997984D01*
X9829706Y-15997984D02*
X9867801Y-15997984D01*
X9867801Y-15997984D02*
X9886849Y-15988460D01*
X9886849Y-15988460D02*
X9896373Y-15969412D01*
X9896373Y-15969412D02*
X9896373Y-15959888D01*
X9896373Y-15959888D02*
X9886849Y-15940841D01*
X9886849Y-15940841D02*
X9867801Y-15931317D01*
X9867801Y-15931317D02*
X9839230Y-15931317D01*
X9839230Y-15931317D02*
X9820182Y-15921793D01*
X9820182Y-15921793D02*
X9810658Y-15902746D01*
X9810658Y-15902746D02*
X9810658Y-15893222D01*
X9810658Y-15893222D02*
X9820182Y-15874174D01*
X9820182Y-15874174D02*
X9839230Y-15864650D01*
X9839230Y-15864650D02*
X9867801Y-15864650D01*
X9867801Y-15864650D02*
X9886849Y-15874174D01*
X9963039Y-16074174D02*
X9972563Y-16064650D01*
X9972563Y-16064650D02*
X9991611Y-16036079D01*
X9991611Y-16036079D02*
X10001134Y-16017031D01*
X10001134Y-16017031D02*
X10010658Y-15988460D01*
X10010658Y-15988460D02*
X10020182Y-15940841D01*
X10020182Y-15940841D02*
X10020182Y-15902746D01*
X10020182Y-15902746D02*
X10010658Y-15855127D01*
X10010658Y-15855127D02*
X10001134Y-15826555D01*
X10001134Y-15826555D02*
X9991611Y-15807508D01*
X9991611Y-15807508D02*
X9972563Y-15778936D01*
X9972563Y-15778936D02*
X9963039Y-15769412D01*
D12*
X4967500Y-16140500D02*
X4967500Y-16200500D01*
X4937500Y-16170500D02*
X4997500Y-16170500D01*
D11*
X5296372Y-16061984D02*
X5315420Y-16061984D01*
X5315420Y-16061984D02*
X5334467Y-16071508D01*
X5334467Y-16071508D02*
X5343991Y-16081031D01*
X5343991Y-16081031D02*
X5353515Y-16100079D01*
X5353515Y-16100079D02*
X5363039Y-16138174D01*
X5363039Y-16138174D02*
X5363039Y-16185793D01*
X5363039Y-16185793D02*
X5353515Y-16223888D01*
X5353515Y-16223888D02*
X5343991Y-16242936D01*
X5343991Y-16242936D02*
X5334467Y-16252460D01*
X5334467Y-16252460D02*
X5315420Y-16261984D01*
X5315420Y-16261984D02*
X5296372Y-16261984D01*
X5296372Y-16261984D02*
X5277324Y-16252460D01*
X5277324Y-16252460D02*
X5267801Y-16242936D01*
X5267801Y-16242936D02*
X5258277Y-16223888D01*
X5258277Y-16223888D02*
X5248753Y-16185793D01*
X5248753Y-16185793D02*
X5248753Y-16138174D01*
X5248753Y-16138174D02*
X5258277Y-16100079D01*
X5258277Y-16100079D02*
X5267801Y-16081031D01*
X5267801Y-16081031D02*
X5277324Y-16071508D01*
X5277324Y-16071508D02*
X5296372Y-16061984D01*
X5448753Y-16242936D02*
X5458277Y-16252460D01*
X5458277Y-16252460D02*
X5448753Y-16261984D01*
X5448753Y-16261984D02*
X5439229Y-16252460D01*
X5439229Y-16252460D02*
X5448753Y-16242936D01*
X5448753Y-16242936D02*
X5448753Y-16261984D01*
X5629705Y-16061984D02*
X5591610Y-16061984D01*
X5591610Y-16061984D02*
X5572563Y-16071508D01*
X5572563Y-16071508D02*
X5563039Y-16081031D01*
X5563039Y-16081031D02*
X5543991Y-16109603D01*
X5543991Y-16109603D02*
X5534467Y-16147698D01*
X5534467Y-16147698D02*
X5534467Y-16223888D01*
X5534467Y-16223888D02*
X5543991Y-16242936D01*
X5543991Y-16242936D02*
X5553515Y-16252460D01*
X5553515Y-16252460D02*
X5572563Y-16261984D01*
X5572563Y-16261984D02*
X5610658Y-16261984D01*
X5610658Y-16261984D02*
X5629705Y-16252460D01*
X5629705Y-16252460D02*
X5639229Y-16242936D01*
X5639229Y-16242936D02*
X5648753Y-16223888D01*
X5648753Y-16223888D02*
X5648753Y-16176269D01*
X5648753Y-16176269D02*
X5639229Y-16157222D01*
X5639229Y-16157222D02*
X5629705Y-16147698D01*
X5629705Y-16147698D02*
X5610658Y-16138174D01*
X5610658Y-16138174D02*
X5572563Y-16138174D01*
X5572563Y-16138174D02*
X5553515Y-16147698D01*
X5553515Y-16147698D02*
X5543991Y-16157222D01*
X5543991Y-16157222D02*
X5534467Y-16176269D01*
X5772562Y-16061984D02*
X5791610Y-16061984D01*
X5791610Y-16061984D02*
X5810658Y-16071508D01*
X5810658Y-16071508D02*
X5820182Y-16081031D01*
X5820182Y-16081031D02*
X5829705Y-16100079D01*
X5829705Y-16100079D02*
X5839229Y-16138174D01*
X5839229Y-16138174D02*
X5839229Y-16185793D01*
X5839229Y-16185793D02*
X5829705Y-16223888D01*
X5829705Y-16223888D02*
X5820182Y-16242936D01*
X5820182Y-16242936D02*
X5810658Y-16252460D01*
X5810658Y-16252460D02*
X5791610Y-16261984D01*
X5791610Y-16261984D02*
X5772562Y-16261984D01*
X5772562Y-16261984D02*
X5753515Y-16252460D01*
X5753515Y-16252460D02*
X5743991Y-16242936D01*
X5743991Y-16242936D02*
X5734467Y-16223888D01*
X5734467Y-16223888D02*
X5724943Y-16185793D01*
X5724943Y-16185793D02*
X5724943Y-16138174D01*
X5724943Y-16138174D02*
X5734467Y-16100079D01*
X5734467Y-16100079D02*
X5743991Y-16081031D01*
X5743991Y-16081031D02*
X5753515Y-16071508D01*
X5753515Y-16071508D02*
X5772562Y-16061984D01*
X5963039Y-16061984D02*
X5982086Y-16061984D01*
X5982086Y-16061984D02*
X6001134Y-16071508D01*
X6001134Y-16071508D02*
X6010658Y-16081031D01*
X6010658Y-16081031D02*
X6020182Y-16100079D01*
X6020182Y-16100079D02*
X6029705Y-16138174D01*
X6029705Y-16138174D02*
X6029705Y-16185793D01*
X6029705Y-16185793D02*
X6020182Y-16223888D01*
X6020182Y-16223888D02*
X6010658Y-16242936D01*
X6010658Y-16242936D02*
X6001134Y-16252460D01*
X6001134Y-16252460D02*
X5982086Y-16261984D01*
X5982086Y-16261984D02*
X5963039Y-16261984D01*
X5963039Y-16261984D02*
X5943991Y-16252460D01*
X5943991Y-16252460D02*
X5934467Y-16242936D01*
X5934467Y-16242936D02*
X5924943Y-16223888D01*
X5924943Y-16223888D02*
X5915420Y-16185793D01*
X5915420Y-16185793D02*
X5915420Y-16138174D01*
X5915420Y-16138174D02*
X5924943Y-16100079D01*
X5924943Y-16100079D02*
X5934467Y-16081031D01*
X5934467Y-16081031D02*
X5943991Y-16071508D01*
X5943991Y-16071508D02*
X5963039Y-16061984D01*
X6115420Y-16261984D02*
X6115420Y-16128650D01*
X6115420Y-16147698D02*
X6124943Y-16138174D01*
X6124943Y-16138174D02*
X6143991Y-16128650D01*
X6143991Y-16128650D02*
X6172563Y-16128650D01*
X6172563Y-16128650D02*
X6191610Y-16138174D01*
X6191610Y-16138174D02*
X6201134Y-16157222D01*
X6201134Y-16157222D02*
X6201134Y-16261984D01*
X6201134Y-16157222D02*
X6210658Y-16138174D01*
X6210658Y-16138174D02*
X6229705Y-16128650D01*
X6229705Y-16128650D02*
X6258277Y-16128650D01*
X6258277Y-16128650D02*
X6277324Y-16138174D01*
X6277324Y-16138174D02*
X6286848Y-16157222D01*
X6286848Y-16157222D02*
X6286848Y-16261984D01*
X6382086Y-16261984D02*
X6382086Y-16128650D01*
X6382086Y-16147698D02*
X6391610Y-16138174D01*
X6391610Y-16138174D02*
X6410658Y-16128650D01*
X6410658Y-16128650D02*
X6439229Y-16128650D01*
X6439229Y-16128650D02*
X6458277Y-16138174D01*
X6458277Y-16138174D02*
X6467801Y-16157222D01*
X6467801Y-16157222D02*
X6467801Y-16261984D01*
X6467801Y-16157222D02*
X6477324Y-16138174D01*
X6477324Y-16138174D02*
X6496372Y-16128650D01*
X6496372Y-16128650D02*
X6524943Y-16128650D01*
X6524943Y-16128650D02*
X6543991Y-16138174D01*
X6543991Y-16138174D02*
X6553515Y-16157222D01*
X6553515Y-16157222D02*
X6553515Y-16261984D01*
X6943991Y-16052460D02*
X6772563Y-16309603D01*
X7201134Y-16061984D02*
X7220182Y-16061984D01*
X7220182Y-16061984D02*
X7239229Y-16071508D01*
X7239229Y-16071508D02*
X7248753Y-16081031D01*
X7248753Y-16081031D02*
X7258277Y-16100079D01*
X7258277Y-16100079D02*
X7267801Y-16138174D01*
X7267801Y-16138174D02*
X7267801Y-16185793D01*
X7267801Y-16185793D02*
X7258277Y-16223888D01*
X7258277Y-16223888D02*
X7248753Y-16242936D01*
X7248753Y-16242936D02*
X7239229Y-16252460D01*
X7239229Y-16252460D02*
X7220182Y-16261984D01*
X7220182Y-16261984D02*
X7201134Y-16261984D01*
X7201134Y-16261984D02*
X7182086Y-16252460D01*
X7182086Y-16252460D02*
X7172563Y-16242936D01*
X7172563Y-16242936D02*
X7163039Y-16223888D01*
X7163039Y-16223888D02*
X7153515Y-16185793D01*
X7153515Y-16185793D02*
X7153515Y-16138174D01*
X7153515Y-16138174D02*
X7163039Y-16100079D01*
X7163039Y-16100079D02*
X7172563Y-16081031D01*
X7172563Y-16081031D02*
X7182086Y-16071508D01*
X7182086Y-16071508D02*
X7201134Y-16061984D01*
X7353515Y-16242936D02*
X7363039Y-16252460D01*
X7363039Y-16252460D02*
X7353515Y-16261984D01*
X7353515Y-16261984D02*
X7343991Y-16252460D01*
X7343991Y-16252460D02*
X7353515Y-16242936D01*
X7353515Y-16242936D02*
X7353515Y-16261984D01*
X7486848Y-16061984D02*
X7505896Y-16061984D01*
X7505896Y-16061984D02*
X7524944Y-16071508D01*
X7524944Y-16071508D02*
X7534467Y-16081031D01*
X7534467Y-16081031D02*
X7543991Y-16100079D01*
X7543991Y-16100079D02*
X7553515Y-16138174D01*
X7553515Y-16138174D02*
X7553515Y-16185793D01*
X7553515Y-16185793D02*
X7543991Y-16223888D01*
X7543991Y-16223888D02*
X7534467Y-16242936D01*
X7534467Y-16242936D02*
X7524944Y-16252460D01*
X7524944Y-16252460D02*
X7505896Y-16261984D01*
X7505896Y-16261984D02*
X7486848Y-16261984D01*
X7486848Y-16261984D02*
X7467801Y-16252460D01*
X7467801Y-16252460D02*
X7458277Y-16242936D01*
X7458277Y-16242936D02*
X7448753Y-16223888D01*
X7448753Y-16223888D02*
X7439229Y-16185793D01*
X7439229Y-16185793D02*
X7439229Y-16138174D01*
X7439229Y-16138174D02*
X7448753Y-16100079D01*
X7448753Y-16100079D02*
X7458277Y-16081031D01*
X7458277Y-16081031D02*
X7467801Y-16071508D01*
X7467801Y-16071508D02*
X7486848Y-16061984D01*
X7629706Y-16081031D02*
X7639229Y-16071508D01*
X7639229Y-16071508D02*
X7658277Y-16061984D01*
X7658277Y-16061984D02*
X7705896Y-16061984D01*
X7705896Y-16061984D02*
X7724944Y-16071508D01*
X7724944Y-16071508D02*
X7734467Y-16081031D01*
X7734467Y-16081031D02*
X7743991Y-16100079D01*
X7743991Y-16100079D02*
X7743991Y-16119127D01*
X7743991Y-16119127D02*
X7734467Y-16147698D01*
X7734467Y-16147698D02*
X7620182Y-16261984D01*
X7620182Y-16261984D02*
X7743991Y-16261984D01*
X7810658Y-16061984D02*
X7934467Y-16061984D01*
X7934467Y-16061984D02*
X7867801Y-16138174D01*
X7867801Y-16138174D02*
X7896372Y-16138174D01*
X7896372Y-16138174D02*
X7915420Y-16147698D01*
X7915420Y-16147698D02*
X7924944Y-16157222D01*
X7924944Y-16157222D02*
X7934467Y-16176269D01*
X7934467Y-16176269D02*
X7934467Y-16223888D01*
X7934467Y-16223888D02*
X7924944Y-16242936D01*
X7924944Y-16242936D02*
X7915420Y-16252460D01*
X7915420Y-16252460D02*
X7896372Y-16261984D01*
X7896372Y-16261984D02*
X7839229Y-16261984D01*
X7839229Y-16261984D02*
X7820182Y-16252460D01*
X7820182Y-16252460D02*
X7810658Y-16242936D01*
X8105896Y-16061984D02*
X8067801Y-16061984D01*
X8067801Y-16061984D02*
X8048753Y-16071508D01*
X8048753Y-16071508D02*
X8039229Y-16081031D01*
X8039229Y-16081031D02*
X8020182Y-16109603D01*
X8020182Y-16109603D02*
X8010658Y-16147698D01*
X8010658Y-16147698D02*
X8010658Y-16223888D01*
X8010658Y-16223888D02*
X8020182Y-16242936D01*
X8020182Y-16242936D02*
X8029706Y-16252460D01*
X8029706Y-16252460D02*
X8048753Y-16261984D01*
X8048753Y-16261984D02*
X8086848Y-16261984D01*
X8086848Y-16261984D02*
X8105896Y-16252460D01*
X8105896Y-16252460D02*
X8115420Y-16242936D01*
X8115420Y-16242936D02*
X8124944Y-16223888D01*
X8124944Y-16223888D02*
X8124944Y-16176269D01*
X8124944Y-16176269D02*
X8115420Y-16157222D01*
X8115420Y-16157222D02*
X8105896Y-16147698D01*
X8105896Y-16147698D02*
X8086848Y-16138174D01*
X8086848Y-16138174D02*
X8048753Y-16138174D01*
X8048753Y-16138174D02*
X8029706Y-16147698D01*
X8029706Y-16147698D02*
X8020182Y-16157222D01*
X8020182Y-16157222D02*
X8010658Y-16176269D01*
X8201134Y-16061984D02*
X8201134Y-16100079D01*
X8277325Y-16061984D02*
X8277325Y-16100079D01*
X8572563Y-16338174D02*
X8563039Y-16328650D01*
X8563039Y-16328650D02*
X8543991Y-16300079D01*
X8543991Y-16300079D02*
X8534468Y-16281031D01*
X8534468Y-16281031D02*
X8524944Y-16252460D01*
X8524944Y-16252460D02*
X8515420Y-16204841D01*
X8515420Y-16204841D02*
X8515420Y-16166746D01*
X8515420Y-16166746D02*
X8524944Y-16119127D01*
X8524944Y-16119127D02*
X8534468Y-16090555D01*
X8534468Y-16090555D02*
X8543991Y-16071508D01*
X8543991Y-16071508D02*
X8563039Y-16042936D01*
X8563039Y-16042936D02*
X8572563Y-16033412D01*
X8686849Y-16061984D02*
X8705896Y-16061984D01*
X8705896Y-16061984D02*
X8724944Y-16071508D01*
X8724944Y-16071508D02*
X8734468Y-16081031D01*
X8734468Y-16081031D02*
X8743991Y-16100079D01*
X8743991Y-16100079D02*
X8753515Y-16138174D01*
X8753515Y-16138174D02*
X8753515Y-16185793D01*
X8753515Y-16185793D02*
X8743991Y-16223888D01*
X8743991Y-16223888D02*
X8734468Y-16242936D01*
X8734468Y-16242936D02*
X8724944Y-16252460D01*
X8724944Y-16252460D02*
X8705896Y-16261984D01*
X8705896Y-16261984D02*
X8686849Y-16261984D01*
X8686849Y-16261984D02*
X8667801Y-16252460D01*
X8667801Y-16252460D02*
X8658277Y-16242936D01*
X8658277Y-16242936D02*
X8648753Y-16223888D01*
X8648753Y-16223888D02*
X8639230Y-16185793D01*
X8639230Y-16185793D02*
X8639230Y-16138174D01*
X8639230Y-16138174D02*
X8648753Y-16100079D01*
X8648753Y-16100079D02*
X8658277Y-16081031D01*
X8658277Y-16081031D02*
X8667801Y-16071508D01*
X8667801Y-16071508D02*
X8686849Y-16061984D01*
X8991611Y-16261984D02*
X8991611Y-16061984D01*
X9077325Y-16261984D02*
X9077325Y-16157222D01*
X9077325Y-16157222D02*
X9067801Y-16138174D01*
X9067801Y-16138174D02*
X9048753Y-16128650D01*
X9048753Y-16128650D02*
X9020182Y-16128650D01*
X9020182Y-16128650D02*
X9001134Y-16138174D01*
X9001134Y-16138174D02*
X8991611Y-16147698D01*
X9201134Y-16261984D02*
X9182087Y-16252460D01*
X9182087Y-16252460D02*
X9172563Y-16242936D01*
X9172563Y-16242936D02*
X9163039Y-16223888D01*
X9163039Y-16223888D02*
X9163039Y-16166746D01*
X9163039Y-16166746D02*
X9172563Y-16147698D01*
X9172563Y-16147698D02*
X9182087Y-16138174D01*
X9182087Y-16138174D02*
X9201134Y-16128650D01*
X9201134Y-16128650D02*
X9229706Y-16128650D01*
X9229706Y-16128650D02*
X9248753Y-16138174D01*
X9248753Y-16138174D02*
X9258277Y-16147698D01*
X9258277Y-16147698D02*
X9267801Y-16166746D01*
X9267801Y-16166746D02*
X9267801Y-16223888D01*
X9267801Y-16223888D02*
X9258277Y-16242936D01*
X9258277Y-16242936D02*
X9248753Y-16252460D01*
X9248753Y-16252460D02*
X9229706Y-16261984D01*
X9229706Y-16261984D02*
X9201134Y-16261984D01*
X9382087Y-16261984D02*
X9363039Y-16252460D01*
X9363039Y-16252460D02*
X9353515Y-16233412D01*
X9353515Y-16233412D02*
X9353515Y-16061984D01*
X9534468Y-16252460D02*
X9515420Y-16261984D01*
X9515420Y-16261984D02*
X9477325Y-16261984D01*
X9477325Y-16261984D02*
X9458277Y-16252460D01*
X9458277Y-16252460D02*
X9448753Y-16233412D01*
X9448753Y-16233412D02*
X9448753Y-16157222D01*
X9448753Y-16157222D02*
X9458277Y-16138174D01*
X9458277Y-16138174D02*
X9477325Y-16128650D01*
X9477325Y-16128650D02*
X9515420Y-16128650D01*
X9515420Y-16128650D02*
X9534468Y-16138174D01*
X9534468Y-16138174D02*
X9543992Y-16157222D01*
X9543992Y-16157222D02*
X9543992Y-16176269D01*
X9543992Y-16176269D02*
X9448753Y-16195317D01*
X9620182Y-16252460D02*
X9639230Y-16261984D01*
X9639230Y-16261984D02*
X9677325Y-16261984D01*
X9677325Y-16261984D02*
X9696373Y-16252460D01*
X9696373Y-16252460D02*
X9705896Y-16233412D01*
X9705896Y-16233412D02*
X9705896Y-16223888D01*
X9705896Y-16223888D02*
X9696373Y-16204841D01*
X9696373Y-16204841D02*
X9677325Y-16195317D01*
X9677325Y-16195317D02*
X9648753Y-16195317D01*
X9648753Y-16195317D02*
X9629706Y-16185793D01*
X9629706Y-16185793D02*
X9620182Y-16166746D01*
X9620182Y-16166746D02*
X9620182Y-16157222D01*
X9620182Y-16157222D02*
X9629706Y-16138174D01*
X9629706Y-16138174D02*
X9648753Y-16128650D01*
X9648753Y-16128650D02*
X9677325Y-16128650D01*
X9677325Y-16128650D02*
X9696373Y-16138174D01*
X9943992Y-16185793D02*
X10096373Y-16185793D01*
X10020182Y-16261984D02*
X10020182Y-16109603D01*
X10334468Y-16081031D02*
X10343992Y-16071508D01*
X10343992Y-16071508D02*
X10363039Y-16061984D01*
X10363039Y-16061984D02*
X10410658Y-16061984D01*
X10410658Y-16061984D02*
X10429706Y-16071508D01*
X10429706Y-16071508D02*
X10439230Y-16081031D01*
X10439230Y-16081031D02*
X10448754Y-16100079D01*
X10448754Y-16100079D02*
X10448754Y-16119127D01*
X10448754Y-16119127D02*
X10439230Y-16147698D01*
X10439230Y-16147698D02*
X10324944Y-16261984D01*
X10324944Y-16261984D02*
X10448754Y-16261984D01*
X10677325Y-16252460D02*
X10696373Y-16261984D01*
X10696373Y-16261984D02*
X10734468Y-16261984D01*
X10734468Y-16261984D02*
X10753516Y-16252460D01*
X10753516Y-16252460D02*
X10763039Y-16233412D01*
X10763039Y-16233412D02*
X10763039Y-16223888D01*
X10763039Y-16223888D02*
X10753516Y-16204841D01*
X10753516Y-16204841D02*
X10734468Y-16195317D01*
X10734468Y-16195317D02*
X10705896Y-16195317D01*
X10705896Y-16195317D02*
X10686849Y-16185793D01*
X10686849Y-16185793D02*
X10677325Y-16166746D01*
X10677325Y-16166746D02*
X10677325Y-16157222D01*
X10677325Y-16157222D02*
X10686849Y-16138174D01*
X10686849Y-16138174D02*
X10705896Y-16128650D01*
X10705896Y-16128650D02*
X10734468Y-16128650D01*
X10734468Y-16128650D02*
X10753516Y-16138174D01*
X10877325Y-16261984D02*
X10858277Y-16252460D01*
X10858277Y-16252460D02*
X10848754Y-16233412D01*
X10848754Y-16233412D02*
X10848754Y-16061984D01*
X10982087Y-16261984D02*
X10963039Y-16252460D01*
X10963039Y-16252460D02*
X10953516Y-16242936D01*
X10953516Y-16242936D02*
X10943992Y-16223888D01*
X10943992Y-16223888D02*
X10943992Y-16166746D01*
X10943992Y-16166746D02*
X10953516Y-16147698D01*
X10953516Y-16147698D02*
X10963039Y-16138174D01*
X10963039Y-16138174D02*
X10982087Y-16128650D01*
X10982087Y-16128650D02*
X11010658Y-16128650D01*
X11010658Y-16128650D02*
X11029706Y-16138174D01*
X11029706Y-16138174D02*
X11039230Y-16147698D01*
X11039230Y-16147698D02*
X11048754Y-16166746D01*
X11048754Y-16166746D02*
X11048754Y-16223888D01*
X11048754Y-16223888D02*
X11039230Y-16242936D01*
X11039230Y-16242936D02*
X11029706Y-16252460D01*
X11029706Y-16252460D02*
X11010658Y-16261984D01*
X11010658Y-16261984D02*
X10982087Y-16261984D01*
X11105897Y-16128650D02*
X11182087Y-16128650D01*
X11134468Y-16061984D02*
X11134468Y-16233412D01*
X11134468Y-16233412D02*
X11143992Y-16252460D01*
X11143992Y-16252460D02*
X11163039Y-16261984D01*
X11163039Y-16261984D02*
X11182087Y-16261984D01*
X11239230Y-16252460D02*
X11258277Y-16261984D01*
X11258277Y-16261984D02*
X11296373Y-16261984D01*
X11296373Y-16261984D02*
X11315420Y-16252460D01*
X11315420Y-16252460D02*
X11324944Y-16233412D01*
X11324944Y-16233412D02*
X11324944Y-16223888D01*
X11324944Y-16223888D02*
X11315420Y-16204841D01*
X11315420Y-16204841D02*
X11296373Y-16195317D01*
X11296373Y-16195317D02*
X11267801Y-16195317D01*
X11267801Y-16195317D02*
X11248754Y-16185793D01*
X11248754Y-16185793D02*
X11239230Y-16166746D01*
X11239230Y-16166746D02*
X11239230Y-16157222D01*
X11239230Y-16157222D02*
X11248754Y-16138174D01*
X11248754Y-16138174D02*
X11267801Y-16128650D01*
X11267801Y-16128650D02*
X11296373Y-16128650D01*
X11296373Y-16128650D02*
X11315420Y-16138174D01*
X11391611Y-16338174D02*
X11401135Y-16328650D01*
X11401135Y-16328650D02*
X11420182Y-16300079D01*
X11420182Y-16300079D02*
X11429706Y-16281031D01*
X11429706Y-16281031D02*
X11439230Y-16252460D01*
X11439230Y-16252460D02*
X11448754Y-16204841D01*
X11448754Y-16204841D02*
X11448754Y-16166746D01*
X11448754Y-16166746D02*
X11439230Y-16119127D01*
X11439230Y-16119127D02*
X11429706Y-16090555D01*
X11429706Y-16090555D02*
X11420182Y-16071508D01*
X11420182Y-16071508D02*
X11401135Y-16042936D01*
X11401135Y-16042936D02*
X11391611Y-16033412D01*
D12*
X4985785Y-16462784D02*
X4985785Y-16406215D01*
X4929216Y-16406215D01*
X4929216Y-16462784D01*
X4985785Y-16462784D01*
D11*
X5296372Y-16325984D02*
X5315420Y-16325984D01*
X5315420Y-16325984D02*
X5334467Y-16335508D01*
X5334467Y-16335508D02*
X5343991Y-16345031D01*
X5343991Y-16345031D02*
X5353515Y-16364079D01*
X5353515Y-16364079D02*
X5363039Y-16402174D01*
X5363039Y-16402174D02*
X5363039Y-16449793D01*
X5363039Y-16449793D02*
X5353515Y-16487888D01*
X5353515Y-16487888D02*
X5343991Y-16506936D01*
X5343991Y-16506936D02*
X5334467Y-16516460D01*
X5334467Y-16516460D02*
X5315420Y-16525984D01*
X5315420Y-16525984D02*
X5296372Y-16525984D01*
X5296372Y-16525984D02*
X5277324Y-16516460D01*
X5277324Y-16516460D02*
X5267801Y-16506936D01*
X5267801Y-16506936D02*
X5258277Y-16487888D01*
X5258277Y-16487888D02*
X5248753Y-16449793D01*
X5248753Y-16449793D02*
X5248753Y-16402174D01*
X5248753Y-16402174D02*
X5258277Y-16364079D01*
X5258277Y-16364079D02*
X5267801Y-16345031D01*
X5267801Y-16345031D02*
X5277324Y-16335508D01*
X5277324Y-16335508D02*
X5296372Y-16325984D01*
X5448753Y-16506936D02*
X5458277Y-16516460D01*
X5458277Y-16516460D02*
X5448753Y-16525984D01*
X5448753Y-16525984D02*
X5439229Y-16516460D01*
X5439229Y-16516460D02*
X5448753Y-16506936D01*
X5448753Y-16506936D02*
X5448753Y-16525984D01*
X5572563Y-16411698D02*
X5553515Y-16402174D01*
X5553515Y-16402174D02*
X5543991Y-16392650D01*
X5543991Y-16392650D02*
X5534467Y-16373603D01*
X5534467Y-16373603D02*
X5534467Y-16364079D01*
X5534467Y-16364079D02*
X5543991Y-16345031D01*
X5543991Y-16345031D02*
X5553515Y-16335508D01*
X5553515Y-16335508D02*
X5572563Y-16325984D01*
X5572563Y-16325984D02*
X5610658Y-16325984D01*
X5610658Y-16325984D02*
X5629705Y-16335508D01*
X5629705Y-16335508D02*
X5639229Y-16345031D01*
X5639229Y-16345031D02*
X5648753Y-16364079D01*
X5648753Y-16364079D02*
X5648753Y-16373603D01*
X5648753Y-16373603D02*
X5639229Y-16392650D01*
X5639229Y-16392650D02*
X5629705Y-16402174D01*
X5629705Y-16402174D02*
X5610658Y-16411698D01*
X5610658Y-16411698D02*
X5572563Y-16411698D01*
X5572563Y-16411698D02*
X5553515Y-16421222D01*
X5553515Y-16421222D02*
X5543991Y-16430746D01*
X5543991Y-16430746D02*
X5534467Y-16449793D01*
X5534467Y-16449793D02*
X5534467Y-16487888D01*
X5534467Y-16487888D02*
X5543991Y-16506936D01*
X5543991Y-16506936D02*
X5553515Y-16516460D01*
X5553515Y-16516460D02*
X5572563Y-16525984D01*
X5572563Y-16525984D02*
X5610658Y-16525984D01*
X5610658Y-16525984D02*
X5629705Y-16516460D01*
X5629705Y-16516460D02*
X5639229Y-16506936D01*
X5639229Y-16506936D02*
X5648753Y-16487888D01*
X5648753Y-16487888D02*
X5648753Y-16449793D01*
X5648753Y-16449793D02*
X5639229Y-16430746D01*
X5639229Y-16430746D02*
X5629705Y-16421222D01*
X5629705Y-16421222D02*
X5610658Y-16411698D01*
X5772562Y-16325984D02*
X5791610Y-16325984D01*
X5791610Y-16325984D02*
X5810658Y-16335508D01*
X5810658Y-16335508D02*
X5820182Y-16345031D01*
X5820182Y-16345031D02*
X5829705Y-16364079D01*
X5829705Y-16364079D02*
X5839229Y-16402174D01*
X5839229Y-16402174D02*
X5839229Y-16449793D01*
X5839229Y-16449793D02*
X5829705Y-16487888D01*
X5829705Y-16487888D02*
X5820182Y-16506936D01*
X5820182Y-16506936D02*
X5810658Y-16516460D01*
X5810658Y-16516460D02*
X5791610Y-16525984D01*
X5791610Y-16525984D02*
X5772562Y-16525984D01*
X5772562Y-16525984D02*
X5753515Y-16516460D01*
X5753515Y-16516460D02*
X5743991Y-16506936D01*
X5743991Y-16506936D02*
X5734467Y-16487888D01*
X5734467Y-16487888D02*
X5724943Y-16449793D01*
X5724943Y-16449793D02*
X5724943Y-16402174D01*
X5724943Y-16402174D02*
X5734467Y-16364079D01*
X5734467Y-16364079D02*
X5743991Y-16345031D01*
X5743991Y-16345031D02*
X5753515Y-16335508D01*
X5753515Y-16335508D02*
X5772562Y-16325984D01*
X5963039Y-16325984D02*
X5982086Y-16325984D01*
X5982086Y-16325984D02*
X6001134Y-16335508D01*
X6001134Y-16335508D02*
X6010658Y-16345031D01*
X6010658Y-16345031D02*
X6020182Y-16364079D01*
X6020182Y-16364079D02*
X6029705Y-16402174D01*
X6029705Y-16402174D02*
X6029705Y-16449793D01*
X6029705Y-16449793D02*
X6020182Y-16487888D01*
X6020182Y-16487888D02*
X6010658Y-16506936D01*
X6010658Y-16506936D02*
X6001134Y-16516460D01*
X6001134Y-16516460D02*
X5982086Y-16525984D01*
X5982086Y-16525984D02*
X5963039Y-16525984D01*
X5963039Y-16525984D02*
X5943991Y-16516460D01*
X5943991Y-16516460D02*
X5934467Y-16506936D01*
X5934467Y-16506936D02*
X5924943Y-16487888D01*
X5924943Y-16487888D02*
X5915420Y-16449793D01*
X5915420Y-16449793D02*
X5915420Y-16402174D01*
X5915420Y-16402174D02*
X5924943Y-16364079D01*
X5924943Y-16364079D02*
X5934467Y-16345031D01*
X5934467Y-16345031D02*
X5943991Y-16335508D01*
X5943991Y-16335508D02*
X5963039Y-16325984D01*
X6115420Y-16525984D02*
X6115420Y-16392650D01*
X6115420Y-16411698D02*
X6124943Y-16402174D01*
X6124943Y-16402174D02*
X6143991Y-16392650D01*
X6143991Y-16392650D02*
X6172563Y-16392650D01*
X6172563Y-16392650D02*
X6191610Y-16402174D01*
X6191610Y-16402174D02*
X6201134Y-16421222D01*
X6201134Y-16421222D02*
X6201134Y-16525984D01*
X6201134Y-16421222D02*
X6210658Y-16402174D01*
X6210658Y-16402174D02*
X6229705Y-16392650D01*
X6229705Y-16392650D02*
X6258277Y-16392650D01*
X6258277Y-16392650D02*
X6277324Y-16402174D01*
X6277324Y-16402174D02*
X6286848Y-16421222D01*
X6286848Y-16421222D02*
X6286848Y-16525984D01*
X6382086Y-16525984D02*
X6382086Y-16392650D01*
X6382086Y-16411698D02*
X6391610Y-16402174D01*
X6391610Y-16402174D02*
X6410658Y-16392650D01*
X6410658Y-16392650D02*
X6439229Y-16392650D01*
X6439229Y-16392650D02*
X6458277Y-16402174D01*
X6458277Y-16402174D02*
X6467801Y-16421222D01*
X6467801Y-16421222D02*
X6467801Y-16525984D01*
X6467801Y-16421222D02*
X6477324Y-16402174D01*
X6477324Y-16402174D02*
X6496372Y-16392650D01*
X6496372Y-16392650D02*
X6524943Y-16392650D01*
X6524943Y-16392650D02*
X6543991Y-16402174D01*
X6543991Y-16402174D02*
X6553515Y-16421222D01*
X6553515Y-16421222D02*
X6553515Y-16525984D01*
X6943991Y-16316460D02*
X6772563Y-16573603D01*
X7201134Y-16325984D02*
X7220182Y-16325984D01*
X7220182Y-16325984D02*
X7239229Y-16335508D01*
X7239229Y-16335508D02*
X7248753Y-16345031D01*
X7248753Y-16345031D02*
X7258277Y-16364079D01*
X7258277Y-16364079D02*
X7267801Y-16402174D01*
X7267801Y-16402174D02*
X7267801Y-16449793D01*
X7267801Y-16449793D02*
X7258277Y-16487888D01*
X7258277Y-16487888D02*
X7248753Y-16506936D01*
X7248753Y-16506936D02*
X7239229Y-16516460D01*
X7239229Y-16516460D02*
X7220182Y-16525984D01*
X7220182Y-16525984D02*
X7201134Y-16525984D01*
X7201134Y-16525984D02*
X7182086Y-16516460D01*
X7182086Y-16516460D02*
X7172563Y-16506936D01*
X7172563Y-16506936D02*
X7163039Y-16487888D01*
X7163039Y-16487888D02*
X7153515Y-16449793D01*
X7153515Y-16449793D02*
X7153515Y-16402174D01*
X7153515Y-16402174D02*
X7163039Y-16364079D01*
X7163039Y-16364079D02*
X7172563Y-16345031D01*
X7172563Y-16345031D02*
X7182086Y-16335508D01*
X7182086Y-16335508D02*
X7201134Y-16325984D01*
X7353515Y-16506936D02*
X7363039Y-16516460D01*
X7363039Y-16516460D02*
X7353515Y-16525984D01*
X7353515Y-16525984D02*
X7343991Y-16516460D01*
X7343991Y-16516460D02*
X7353515Y-16506936D01*
X7353515Y-16506936D02*
X7353515Y-16525984D01*
X7486848Y-16325984D02*
X7505896Y-16325984D01*
X7505896Y-16325984D02*
X7524944Y-16335508D01*
X7524944Y-16335508D02*
X7534467Y-16345031D01*
X7534467Y-16345031D02*
X7543991Y-16364079D01*
X7543991Y-16364079D02*
X7553515Y-16402174D01*
X7553515Y-16402174D02*
X7553515Y-16449793D01*
X7553515Y-16449793D02*
X7543991Y-16487888D01*
X7543991Y-16487888D02*
X7534467Y-16506936D01*
X7534467Y-16506936D02*
X7524944Y-16516460D01*
X7524944Y-16516460D02*
X7505896Y-16525984D01*
X7505896Y-16525984D02*
X7486848Y-16525984D01*
X7486848Y-16525984D02*
X7467801Y-16516460D01*
X7467801Y-16516460D02*
X7458277Y-16506936D01*
X7458277Y-16506936D02*
X7448753Y-16487888D01*
X7448753Y-16487888D02*
X7439229Y-16449793D01*
X7439229Y-16449793D02*
X7439229Y-16402174D01*
X7439229Y-16402174D02*
X7448753Y-16364079D01*
X7448753Y-16364079D02*
X7458277Y-16345031D01*
X7458277Y-16345031D02*
X7467801Y-16335508D01*
X7467801Y-16335508D02*
X7486848Y-16325984D01*
X7620182Y-16325984D02*
X7743991Y-16325984D01*
X7743991Y-16325984D02*
X7677325Y-16402174D01*
X7677325Y-16402174D02*
X7705896Y-16402174D01*
X7705896Y-16402174D02*
X7724944Y-16411698D01*
X7724944Y-16411698D02*
X7734467Y-16421222D01*
X7734467Y-16421222D02*
X7743991Y-16440269D01*
X7743991Y-16440269D02*
X7743991Y-16487888D01*
X7743991Y-16487888D02*
X7734467Y-16506936D01*
X7734467Y-16506936D02*
X7724944Y-16516460D01*
X7724944Y-16516460D02*
X7705896Y-16525984D01*
X7705896Y-16525984D02*
X7648753Y-16525984D01*
X7648753Y-16525984D02*
X7629706Y-16516460D01*
X7629706Y-16516460D02*
X7620182Y-16506936D01*
X7934467Y-16525984D02*
X7820182Y-16525984D01*
X7877325Y-16525984D02*
X7877325Y-16325984D01*
X7877325Y-16325984D02*
X7858277Y-16354555D01*
X7858277Y-16354555D02*
X7839229Y-16373603D01*
X7839229Y-16373603D02*
X7820182Y-16383127D01*
X8115420Y-16325984D02*
X8020182Y-16325984D01*
X8020182Y-16325984D02*
X8010658Y-16421222D01*
X8010658Y-16421222D02*
X8020182Y-16411698D01*
X8020182Y-16411698D02*
X8039229Y-16402174D01*
X8039229Y-16402174D02*
X8086848Y-16402174D01*
X8086848Y-16402174D02*
X8105896Y-16411698D01*
X8105896Y-16411698D02*
X8115420Y-16421222D01*
X8115420Y-16421222D02*
X8124944Y-16440269D01*
X8124944Y-16440269D02*
X8124944Y-16487888D01*
X8124944Y-16487888D02*
X8115420Y-16506936D01*
X8115420Y-16506936D02*
X8105896Y-16516460D01*
X8105896Y-16516460D02*
X8086848Y-16525984D01*
X8086848Y-16525984D02*
X8039229Y-16525984D01*
X8039229Y-16525984D02*
X8020182Y-16516460D01*
X8020182Y-16516460D02*
X8010658Y-16506936D01*
X8201134Y-16325984D02*
X8201134Y-16364079D01*
X8277325Y-16325984D02*
X8277325Y-16364079D01*
X8572563Y-16602174D02*
X8563039Y-16592650D01*
X8563039Y-16592650D02*
X8543991Y-16564079D01*
X8543991Y-16564079D02*
X8534468Y-16545031D01*
X8534468Y-16545031D02*
X8524944Y-16516460D01*
X8524944Y-16516460D02*
X8515420Y-16468841D01*
X8515420Y-16468841D02*
X8515420Y-16430746D01*
X8515420Y-16430746D02*
X8524944Y-16383127D01*
X8524944Y-16383127D02*
X8534468Y-16354555D01*
X8534468Y-16354555D02*
X8543991Y-16335508D01*
X8543991Y-16335508D02*
X8563039Y-16306936D01*
X8563039Y-16306936D02*
X8572563Y-16297412D01*
X8677325Y-16411698D02*
X8658277Y-16402174D01*
X8658277Y-16402174D02*
X8648753Y-16392650D01*
X8648753Y-16392650D02*
X8639230Y-16373603D01*
X8639230Y-16373603D02*
X8639230Y-16364079D01*
X8639230Y-16364079D02*
X8648753Y-16345031D01*
X8648753Y-16345031D02*
X8658277Y-16335508D01*
X8658277Y-16335508D02*
X8677325Y-16325984D01*
X8677325Y-16325984D02*
X8715420Y-16325984D01*
X8715420Y-16325984D02*
X8734468Y-16335508D01*
X8734468Y-16335508D02*
X8743991Y-16345031D01*
X8743991Y-16345031D02*
X8753515Y-16364079D01*
X8753515Y-16364079D02*
X8753515Y-16373603D01*
X8753515Y-16373603D02*
X8743991Y-16392650D01*
X8743991Y-16392650D02*
X8734468Y-16402174D01*
X8734468Y-16402174D02*
X8715420Y-16411698D01*
X8715420Y-16411698D02*
X8677325Y-16411698D01*
X8677325Y-16411698D02*
X8658277Y-16421222D01*
X8658277Y-16421222D02*
X8648753Y-16430746D01*
X8648753Y-16430746D02*
X8639230Y-16449793D01*
X8639230Y-16449793D02*
X8639230Y-16487888D01*
X8639230Y-16487888D02*
X8648753Y-16506936D01*
X8648753Y-16506936D02*
X8658277Y-16516460D01*
X8658277Y-16516460D02*
X8677325Y-16525984D01*
X8677325Y-16525984D02*
X8715420Y-16525984D01*
X8715420Y-16525984D02*
X8734468Y-16516460D01*
X8734468Y-16516460D02*
X8743991Y-16506936D01*
X8743991Y-16506936D02*
X8753515Y-16487888D01*
X8753515Y-16487888D02*
X8753515Y-16449793D01*
X8753515Y-16449793D02*
X8743991Y-16430746D01*
X8743991Y-16430746D02*
X8734468Y-16421222D01*
X8734468Y-16421222D02*
X8715420Y-16411698D01*
X8991611Y-16525984D02*
X8991611Y-16325984D01*
X9077325Y-16525984D02*
X9077325Y-16421222D01*
X9077325Y-16421222D02*
X9067801Y-16402174D01*
X9067801Y-16402174D02*
X9048753Y-16392650D01*
X9048753Y-16392650D02*
X9020182Y-16392650D01*
X9020182Y-16392650D02*
X9001134Y-16402174D01*
X9001134Y-16402174D02*
X8991611Y-16411698D01*
X9201134Y-16525984D02*
X9182087Y-16516460D01*
X9182087Y-16516460D02*
X9172563Y-16506936D01*
X9172563Y-16506936D02*
X9163039Y-16487888D01*
X9163039Y-16487888D02*
X9163039Y-16430746D01*
X9163039Y-16430746D02*
X9172563Y-16411698D01*
X9172563Y-16411698D02*
X9182087Y-16402174D01*
X9182087Y-16402174D02*
X9201134Y-16392650D01*
X9201134Y-16392650D02*
X9229706Y-16392650D01*
X9229706Y-16392650D02*
X9248753Y-16402174D01*
X9248753Y-16402174D02*
X9258277Y-16411698D01*
X9258277Y-16411698D02*
X9267801Y-16430746D01*
X9267801Y-16430746D02*
X9267801Y-16487888D01*
X9267801Y-16487888D02*
X9258277Y-16506936D01*
X9258277Y-16506936D02*
X9248753Y-16516460D01*
X9248753Y-16516460D02*
X9229706Y-16525984D01*
X9229706Y-16525984D02*
X9201134Y-16525984D01*
X9382087Y-16525984D02*
X9363039Y-16516460D01*
X9363039Y-16516460D02*
X9353515Y-16497412D01*
X9353515Y-16497412D02*
X9353515Y-16325984D01*
X9534468Y-16516460D02*
X9515420Y-16525984D01*
X9515420Y-16525984D02*
X9477325Y-16525984D01*
X9477325Y-16525984D02*
X9458277Y-16516460D01*
X9458277Y-16516460D02*
X9448753Y-16497412D01*
X9448753Y-16497412D02*
X9448753Y-16421222D01*
X9448753Y-16421222D02*
X9458277Y-16402174D01*
X9458277Y-16402174D02*
X9477325Y-16392650D01*
X9477325Y-16392650D02*
X9515420Y-16392650D01*
X9515420Y-16392650D02*
X9534468Y-16402174D01*
X9534468Y-16402174D02*
X9543992Y-16421222D01*
X9543992Y-16421222D02*
X9543992Y-16440269D01*
X9543992Y-16440269D02*
X9448753Y-16459317D01*
X9620182Y-16516460D02*
X9639230Y-16525984D01*
X9639230Y-16525984D02*
X9677325Y-16525984D01*
X9677325Y-16525984D02*
X9696373Y-16516460D01*
X9696373Y-16516460D02*
X9705896Y-16497412D01*
X9705896Y-16497412D02*
X9705896Y-16487888D01*
X9705896Y-16487888D02*
X9696373Y-16468841D01*
X9696373Y-16468841D02*
X9677325Y-16459317D01*
X9677325Y-16459317D02*
X9648753Y-16459317D01*
X9648753Y-16459317D02*
X9629706Y-16449793D01*
X9629706Y-16449793D02*
X9620182Y-16430746D01*
X9620182Y-16430746D02*
X9620182Y-16421222D01*
X9620182Y-16421222D02*
X9629706Y-16402174D01*
X9629706Y-16402174D02*
X9648753Y-16392650D01*
X9648753Y-16392650D02*
X9677325Y-16392650D01*
X9677325Y-16392650D02*
X9696373Y-16402174D01*
X9772563Y-16602174D02*
X9782087Y-16592650D01*
X9782087Y-16592650D02*
X9801134Y-16564079D01*
X9801134Y-16564079D02*
X9810658Y-16545031D01*
X9810658Y-16545031D02*
X9820182Y-16516460D01*
X9820182Y-16516460D02*
X9829706Y-16468841D01*
X9829706Y-16468841D02*
X9829706Y-16430746D01*
X9829706Y-16430746D02*
X9820182Y-16383127D01*
X9820182Y-16383127D02*
X9810658Y-16354555D01*
X9810658Y-16354555D02*
X9801134Y-16335508D01*
X9801134Y-16335508D02*
X9782087Y-16306936D01*
X9782087Y-16306936D02*
X9772563Y-16297412D01*
D12*
X4947500Y-16748500D02*
X4997500Y-16698500D01*
X4947500Y-16648500D01*
X4897500Y-16698500D01*
X4947500Y-16748500D01*
D11*
X5363039Y-16789984D02*
X5248753Y-16789984D01*
X5305896Y-16789984D02*
X5305896Y-16589984D01*
X5305896Y-16589984D02*
X5286848Y-16618555D01*
X5286848Y-16618555D02*
X5267801Y-16637603D01*
X5267801Y-16637603D02*
X5248753Y-16647127D01*
X5448753Y-16770936D02*
X5458277Y-16780460D01*
X5458277Y-16780460D02*
X5448753Y-16789984D01*
X5448753Y-16789984D02*
X5439229Y-16780460D01*
X5439229Y-16780460D02*
X5448753Y-16770936D01*
X5448753Y-16770936D02*
X5448753Y-16789984D01*
X5582086Y-16589984D02*
X5601134Y-16589984D01*
X5601134Y-16589984D02*
X5620182Y-16599508D01*
X5620182Y-16599508D02*
X5629705Y-16609031D01*
X5629705Y-16609031D02*
X5639229Y-16628079D01*
X5639229Y-16628079D02*
X5648753Y-16666174D01*
X5648753Y-16666174D02*
X5648753Y-16713793D01*
X5648753Y-16713793D02*
X5639229Y-16751888D01*
X5639229Y-16751888D02*
X5629705Y-16770936D01*
X5629705Y-16770936D02*
X5620182Y-16780460D01*
X5620182Y-16780460D02*
X5601134Y-16789984D01*
X5601134Y-16789984D02*
X5582086Y-16789984D01*
X5582086Y-16789984D02*
X5563039Y-16780460D01*
X5563039Y-16780460D02*
X5553515Y-16770936D01*
X5553515Y-16770936D02*
X5543991Y-16751888D01*
X5543991Y-16751888D02*
X5534467Y-16713793D01*
X5534467Y-16713793D02*
X5534467Y-16666174D01*
X5534467Y-16666174D02*
X5543991Y-16628079D01*
X5543991Y-16628079D02*
X5553515Y-16609031D01*
X5553515Y-16609031D02*
X5563039Y-16599508D01*
X5563039Y-16599508D02*
X5582086Y-16589984D01*
X5772562Y-16589984D02*
X5791610Y-16589984D01*
X5791610Y-16589984D02*
X5810658Y-16599508D01*
X5810658Y-16599508D02*
X5820182Y-16609031D01*
X5820182Y-16609031D02*
X5829705Y-16628079D01*
X5829705Y-16628079D02*
X5839229Y-16666174D01*
X5839229Y-16666174D02*
X5839229Y-16713793D01*
X5839229Y-16713793D02*
X5829705Y-16751888D01*
X5829705Y-16751888D02*
X5820182Y-16770936D01*
X5820182Y-16770936D02*
X5810658Y-16780460D01*
X5810658Y-16780460D02*
X5791610Y-16789984D01*
X5791610Y-16789984D02*
X5772562Y-16789984D01*
X5772562Y-16789984D02*
X5753515Y-16780460D01*
X5753515Y-16780460D02*
X5743991Y-16770936D01*
X5743991Y-16770936D02*
X5734467Y-16751888D01*
X5734467Y-16751888D02*
X5724943Y-16713793D01*
X5724943Y-16713793D02*
X5724943Y-16666174D01*
X5724943Y-16666174D02*
X5734467Y-16628079D01*
X5734467Y-16628079D02*
X5743991Y-16609031D01*
X5743991Y-16609031D02*
X5753515Y-16599508D01*
X5753515Y-16599508D02*
X5772562Y-16589984D01*
X5963039Y-16589984D02*
X5982086Y-16589984D01*
X5982086Y-16589984D02*
X6001134Y-16599508D01*
X6001134Y-16599508D02*
X6010658Y-16609031D01*
X6010658Y-16609031D02*
X6020182Y-16628079D01*
X6020182Y-16628079D02*
X6029705Y-16666174D01*
X6029705Y-16666174D02*
X6029705Y-16713793D01*
X6029705Y-16713793D02*
X6020182Y-16751888D01*
X6020182Y-16751888D02*
X6010658Y-16770936D01*
X6010658Y-16770936D02*
X6001134Y-16780460D01*
X6001134Y-16780460D02*
X5982086Y-16789984D01*
X5982086Y-16789984D02*
X5963039Y-16789984D01*
X5963039Y-16789984D02*
X5943991Y-16780460D01*
X5943991Y-16780460D02*
X5934467Y-16770936D01*
X5934467Y-16770936D02*
X5924943Y-16751888D01*
X5924943Y-16751888D02*
X5915420Y-16713793D01*
X5915420Y-16713793D02*
X5915420Y-16666174D01*
X5915420Y-16666174D02*
X5924943Y-16628079D01*
X5924943Y-16628079D02*
X5934467Y-16609031D01*
X5934467Y-16609031D02*
X5943991Y-16599508D01*
X5943991Y-16599508D02*
X5963039Y-16589984D01*
X6115420Y-16789984D02*
X6115420Y-16656650D01*
X6115420Y-16675698D02*
X6124943Y-16666174D01*
X6124943Y-16666174D02*
X6143991Y-16656650D01*
X6143991Y-16656650D02*
X6172563Y-16656650D01*
X6172563Y-16656650D02*
X6191610Y-16666174D01*
X6191610Y-16666174D02*
X6201134Y-16685222D01*
X6201134Y-16685222D02*
X6201134Y-16789984D01*
X6201134Y-16685222D02*
X6210658Y-16666174D01*
X6210658Y-16666174D02*
X6229705Y-16656650D01*
X6229705Y-16656650D02*
X6258277Y-16656650D01*
X6258277Y-16656650D02*
X6277324Y-16666174D01*
X6277324Y-16666174D02*
X6286848Y-16685222D01*
X6286848Y-16685222D02*
X6286848Y-16789984D01*
X6382086Y-16789984D02*
X6382086Y-16656650D01*
X6382086Y-16675698D02*
X6391610Y-16666174D01*
X6391610Y-16666174D02*
X6410658Y-16656650D01*
X6410658Y-16656650D02*
X6439229Y-16656650D01*
X6439229Y-16656650D02*
X6458277Y-16666174D01*
X6458277Y-16666174D02*
X6467801Y-16685222D01*
X6467801Y-16685222D02*
X6467801Y-16789984D01*
X6467801Y-16685222D02*
X6477324Y-16666174D01*
X6477324Y-16666174D02*
X6496372Y-16656650D01*
X6496372Y-16656650D02*
X6524943Y-16656650D01*
X6524943Y-16656650D02*
X6543991Y-16666174D01*
X6543991Y-16666174D02*
X6553515Y-16685222D01*
X6553515Y-16685222D02*
X6553515Y-16789984D01*
X6943991Y-16580460D02*
X6772563Y-16837603D01*
X7201134Y-16589984D02*
X7220182Y-16589984D01*
X7220182Y-16589984D02*
X7239229Y-16599508D01*
X7239229Y-16599508D02*
X7248753Y-16609031D01*
X7248753Y-16609031D02*
X7258277Y-16628079D01*
X7258277Y-16628079D02*
X7267801Y-16666174D01*
X7267801Y-16666174D02*
X7267801Y-16713793D01*
X7267801Y-16713793D02*
X7258277Y-16751888D01*
X7258277Y-16751888D02*
X7248753Y-16770936D01*
X7248753Y-16770936D02*
X7239229Y-16780460D01*
X7239229Y-16780460D02*
X7220182Y-16789984D01*
X7220182Y-16789984D02*
X7201134Y-16789984D01*
X7201134Y-16789984D02*
X7182086Y-16780460D01*
X7182086Y-16780460D02*
X7172563Y-16770936D01*
X7172563Y-16770936D02*
X7163039Y-16751888D01*
X7163039Y-16751888D02*
X7153515Y-16713793D01*
X7153515Y-16713793D02*
X7153515Y-16666174D01*
X7153515Y-16666174D02*
X7163039Y-16628079D01*
X7163039Y-16628079D02*
X7172563Y-16609031D01*
X7172563Y-16609031D02*
X7182086Y-16599508D01*
X7182086Y-16599508D02*
X7201134Y-16589984D01*
X7353515Y-16770936D02*
X7363039Y-16780460D01*
X7363039Y-16780460D02*
X7353515Y-16789984D01*
X7353515Y-16789984D02*
X7343991Y-16780460D01*
X7343991Y-16780460D02*
X7353515Y-16770936D01*
X7353515Y-16770936D02*
X7353515Y-16789984D01*
X7486848Y-16589984D02*
X7505896Y-16589984D01*
X7505896Y-16589984D02*
X7524944Y-16599508D01*
X7524944Y-16599508D02*
X7534467Y-16609031D01*
X7534467Y-16609031D02*
X7543991Y-16628079D01*
X7543991Y-16628079D02*
X7553515Y-16666174D01*
X7553515Y-16666174D02*
X7553515Y-16713793D01*
X7553515Y-16713793D02*
X7543991Y-16751888D01*
X7543991Y-16751888D02*
X7534467Y-16770936D01*
X7534467Y-16770936D02*
X7524944Y-16780460D01*
X7524944Y-16780460D02*
X7505896Y-16789984D01*
X7505896Y-16789984D02*
X7486848Y-16789984D01*
X7486848Y-16789984D02*
X7467801Y-16780460D01*
X7467801Y-16780460D02*
X7458277Y-16770936D01*
X7458277Y-16770936D02*
X7448753Y-16751888D01*
X7448753Y-16751888D02*
X7439229Y-16713793D01*
X7439229Y-16713793D02*
X7439229Y-16666174D01*
X7439229Y-16666174D02*
X7448753Y-16628079D01*
X7448753Y-16628079D02*
X7458277Y-16609031D01*
X7458277Y-16609031D02*
X7467801Y-16599508D01*
X7467801Y-16599508D02*
X7486848Y-16589984D01*
X7620182Y-16589984D02*
X7743991Y-16589984D01*
X7743991Y-16589984D02*
X7677325Y-16666174D01*
X7677325Y-16666174D02*
X7705896Y-16666174D01*
X7705896Y-16666174D02*
X7724944Y-16675698D01*
X7724944Y-16675698D02*
X7734467Y-16685222D01*
X7734467Y-16685222D02*
X7743991Y-16704269D01*
X7743991Y-16704269D02*
X7743991Y-16751888D01*
X7743991Y-16751888D02*
X7734467Y-16770936D01*
X7734467Y-16770936D02*
X7724944Y-16780460D01*
X7724944Y-16780460D02*
X7705896Y-16789984D01*
X7705896Y-16789984D02*
X7648753Y-16789984D01*
X7648753Y-16789984D02*
X7629706Y-16780460D01*
X7629706Y-16780460D02*
X7620182Y-16770936D01*
X7839229Y-16789984D02*
X7877325Y-16789984D01*
X7877325Y-16789984D02*
X7896372Y-16780460D01*
X7896372Y-16780460D02*
X7905896Y-16770936D01*
X7905896Y-16770936D02*
X7924944Y-16742365D01*
X7924944Y-16742365D02*
X7934467Y-16704269D01*
X7934467Y-16704269D02*
X7934467Y-16628079D01*
X7934467Y-16628079D02*
X7924944Y-16609031D01*
X7924944Y-16609031D02*
X7915420Y-16599508D01*
X7915420Y-16599508D02*
X7896372Y-16589984D01*
X7896372Y-16589984D02*
X7858277Y-16589984D01*
X7858277Y-16589984D02*
X7839229Y-16599508D01*
X7839229Y-16599508D02*
X7829706Y-16609031D01*
X7829706Y-16609031D02*
X7820182Y-16628079D01*
X7820182Y-16628079D02*
X7820182Y-16675698D01*
X7820182Y-16675698D02*
X7829706Y-16694746D01*
X7829706Y-16694746D02*
X7839229Y-16704269D01*
X7839229Y-16704269D02*
X7858277Y-16713793D01*
X7858277Y-16713793D02*
X7896372Y-16713793D01*
X7896372Y-16713793D02*
X7915420Y-16704269D01*
X7915420Y-16704269D02*
X7924944Y-16694746D01*
X7924944Y-16694746D02*
X7934467Y-16675698D01*
X8105896Y-16656650D02*
X8105896Y-16789984D01*
X8058277Y-16580460D02*
X8010658Y-16723317D01*
X8010658Y-16723317D02*
X8134467Y-16723317D01*
X8201134Y-16589984D02*
X8201134Y-16628079D01*
X8277325Y-16589984D02*
X8277325Y-16628079D01*
X8572563Y-16866174D02*
X8563039Y-16856650D01*
X8563039Y-16856650D02*
X8543991Y-16828079D01*
X8543991Y-16828079D02*
X8534468Y-16809031D01*
X8534468Y-16809031D02*
X8524944Y-16780460D01*
X8524944Y-16780460D02*
X8515420Y-16732841D01*
X8515420Y-16732841D02*
X8515420Y-16694746D01*
X8515420Y-16694746D02*
X8524944Y-16647127D01*
X8524944Y-16647127D02*
X8534468Y-16618555D01*
X8534468Y-16618555D02*
X8543991Y-16599508D01*
X8543991Y-16599508D02*
X8563039Y-16570936D01*
X8563039Y-16570936D02*
X8572563Y-16561412D01*
X8658277Y-16789984D02*
X8696372Y-16789984D01*
X8696372Y-16789984D02*
X8715420Y-16780460D01*
X8715420Y-16780460D02*
X8724944Y-16770936D01*
X8724944Y-16770936D02*
X8743991Y-16742365D01*
X8743991Y-16742365D02*
X8753515Y-16704269D01*
X8753515Y-16704269D02*
X8753515Y-16628079D01*
X8753515Y-16628079D02*
X8743991Y-16609031D01*
X8743991Y-16609031D02*
X8734468Y-16599508D01*
X8734468Y-16599508D02*
X8715420Y-16589984D01*
X8715420Y-16589984D02*
X8677325Y-16589984D01*
X8677325Y-16589984D02*
X8658277Y-16599508D01*
X8658277Y-16599508D02*
X8648753Y-16609031D01*
X8648753Y-16609031D02*
X8639230Y-16628079D01*
X8639230Y-16628079D02*
X8639230Y-16675698D01*
X8639230Y-16675698D02*
X8648753Y-16694746D01*
X8648753Y-16694746D02*
X8658277Y-16704269D01*
X8658277Y-16704269D02*
X8677325Y-16713793D01*
X8677325Y-16713793D02*
X8715420Y-16713793D01*
X8715420Y-16713793D02*
X8734468Y-16704269D01*
X8734468Y-16704269D02*
X8743991Y-16694746D01*
X8743991Y-16694746D02*
X8753515Y-16675698D01*
X8943991Y-16789984D02*
X8829706Y-16789984D01*
X8886849Y-16789984D02*
X8886849Y-16589984D01*
X8886849Y-16589984D02*
X8867801Y-16618555D01*
X8867801Y-16618555D02*
X8848753Y-16637603D01*
X8848753Y-16637603D02*
X8829706Y-16647127D01*
X9182087Y-16789984D02*
X9182087Y-16589984D01*
X9267801Y-16789984D02*
X9267801Y-16685222D01*
X9267801Y-16685222D02*
X9258277Y-16666174D01*
X9258277Y-16666174D02*
X9239230Y-16656650D01*
X9239230Y-16656650D02*
X9210658Y-16656650D01*
X9210658Y-16656650D02*
X9191611Y-16666174D01*
X9191611Y-16666174D02*
X9182087Y-16675698D01*
X9391611Y-16789984D02*
X9372563Y-16780460D01*
X9372563Y-16780460D02*
X9363039Y-16770936D01*
X9363039Y-16770936D02*
X9353515Y-16751888D01*
X9353515Y-16751888D02*
X9353515Y-16694746D01*
X9353515Y-16694746D02*
X9363039Y-16675698D01*
X9363039Y-16675698D02*
X9372563Y-16666174D01*
X9372563Y-16666174D02*
X9391611Y-16656650D01*
X9391611Y-16656650D02*
X9420182Y-16656650D01*
X9420182Y-16656650D02*
X9439230Y-16666174D01*
X9439230Y-16666174D02*
X9448753Y-16675698D01*
X9448753Y-16675698D02*
X9458277Y-16694746D01*
X9458277Y-16694746D02*
X9458277Y-16751888D01*
X9458277Y-16751888D02*
X9448753Y-16770936D01*
X9448753Y-16770936D02*
X9439230Y-16780460D01*
X9439230Y-16780460D02*
X9420182Y-16789984D01*
X9420182Y-16789984D02*
X9391611Y-16789984D01*
X9572563Y-16789984D02*
X9553515Y-16780460D01*
X9553515Y-16780460D02*
X9543992Y-16761412D01*
X9543992Y-16761412D02*
X9543992Y-16589984D01*
X9724944Y-16780460D02*
X9705896Y-16789984D01*
X9705896Y-16789984D02*
X9667801Y-16789984D01*
X9667801Y-16789984D02*
X9648753Y-16780460D01*
X9648753Y-16780460D02*
X9639230Y-16761412D01*
X9639230Y-16761412D02*
X9639230Y-16685222D01*
X9639230Y-16685222D02*
X9648753Y-16666174D01*
X9648753Y-16666174D02*
X9667801Y-16656650D01*
X9667801Y-16656650D02*
X9705896Y-16656650D01*
X9705896Y-16656650D02*
X9724944Y-16666174D01*
X9724944Y-16666174D02*
X9734468Y-16685222D01*
X9734468Y-16685222D02*
X9734468Y-16704269D01*
X9734468Y-16704269D02*
X9639230Y-16723317D01*
X9810658Y-16780460D02*
X9829706Y-16789984D01*
X9829706Y-16789984D02*
X9867801Y-16789984D01*
X9867801Y-16789984D02*
X9886849Y-16780460D01*
X9886849Y-16780460D02*
X9896373Y-16761412D01*
X9896373Y-16761412D02*
X9896373Y-16751888D01*
X9896373Y-16751888D02*
X9886849Y-16732841D01*
X9886849Y-16732841D02*
X9867801Y-16723317D01*
X9867801Y-16723317D02*
X9839230Y-16723317D01*
X9839230Y-16723317D02*
X9820182Y-16713793D01*
X9820182Y-16713793D02*
X9810658Y-16694746D01*
X9810658Y-16694746D02*
X9810658Y-16685222D01*
X9810658Y-16685222D02*
X9820182Y-16666174D01*
X9820182Y-16666174D02*
X9839230Y-16656650D01*
X9839230Y-16656650D02*
X9867801Y-16656650D01*
X9867801Y-16656650D02*
X9886849Y-16666174D01*
X10134468Y-16713793D02*
X10286849Y-16713793D01*
X10210658Y-16789984D02*
X10210658Y-16637603D01*
X10515420Y-16589984D02*
X10639230Y-16589984D01*
X10639230Y-16589984D02*
X10572563Y-16666174D01*
X10572563Y-16666174D02*
X10601135Y-16666174D01*
X10601135Y-16666174D02*
X10620182Y-16675698D01*
X10620182Y-16675698D02*
X10629706Y-16685222D01*
X10629706Y-16685222D02*
X10639230Y-16704269D01*
X10639230Y-16704269D02*
X10639230Y-16751888D01*
X10639230Y-16751888D02*
X10629706Y-16770936D01*
X10629706Y-16770936D02*
X10620182Y-16780460D01*
X10620182Y-16780460D02*
X10601135Y-16789984D01*
X10601135Y-16789984D02*
X10543992Y-16789984D01*
X10543992Y-16789984D02*
X10524944Y-16780460D01*
X10524944Y-16780460D02*
X10515420Y-16770936D01*
X10867801Y-16780460D02*
X10886849Y-16789984D01*
X10886849Y-16789984D02*
X10924944Y-16789984D01*
X10924944Y-16789984D02*
X10943992Y-16780460D01*
X10943992Y-16780460D02*
X10953516Y-16761412D01*
X10953516Y-16761412D02*
X10953516Y-16751888D01*
X10953516Y-16751888D02*
X10943992Y-16732841D01*
X10943992Y-16732841D02*
X10924944Y-16723317D01*
X10924944Y-16723317D02*
X10896373Y-16723317D01*
X10896373Y-16723317D02*
X10877325Y-16713793D01*
X10877325Y-16713793D02*
X10867801Y-16694746D01*
X10867801Y-16694746D02*
X10867801Y-16685222D01*
X10867801Y-16685222D02*
X10877325Y-16666174D01*
X10877325Y-16666174D02*
X10896373Y-16656650D01*
X10896373Y-16656650D02*
X10924944Y-16656650D01*
X10924944Y-16656650D02*
X10943992Y-16666174D01*
X11067801Y-16789984D02*
X11048754Y-16780460D01*
X11048754Y-16780460D02*
X11039230Y-16761412D01*
X11039230Y-16761412D02*
X11039230Y-16589984D01*
X11172563Y-16789984D02*
X11153516Y-16780460D01*
X11153516Y-16780460D02*
X11143992Y-16770936D01*
X11143992Y-16770936D02*
X11134468Y-16751888D01*
X11134468Y-16751888D02*
X11134468Y-16694746D01*
X11134468Y-16694746D02*
X11143992Y-16675698D01*
X11143992Y-16675698D02*
X11153516Y-16666174D01*
X11153516Y-16666174D02*
X11172563Y-16656650D01*
X11172563Y-16656650D02*
X11201135Y-16656650D01*
X11201135Y-16656650D02*
X11220182Y-16666174D01*
X11220182Y-16666174D02*
X11229706Y-16675698D01*
X11229706Y-16675698D02*
X11239230Y-16694746D01*
X11239230Y-16694746D02*
X11239230Y-16751888D01*
X11239230Y-16751888D02*
X11229706Y-16770936D01*
X11229706Y-16770936D02*
X11220182Y-16780460D01*
X11220182Y-16780460D02*
X11201135Y-16789984D01*
X11201135Y-16789984D02*
X11172563Y-16789984D01*
X11296373Y-16656650D02*
X11372563Y-16656650D01*
X11324944Y-16589984D02*
X11324944Y-16761412D01*
X11324944Y-16761412D02*
X11334468Y-16780460D01*
X11334468Y-16780460D02*
X11353515Y-16789984D01*
X11353515Y-16789984D02*
X11372563Y-16789984D01*
X11429706Y-16780460D02*
X11448754Y-16789984D01*
X11448754Y-16789984D02*
X11486849Y-16789984D01*
X11486849Y-16789984D02*
X11505896Y-16780460D01*
X11505896Y-16780460D02*
X11515420Y-16761412D01*
X11515420Y-16761412D02*
X11515420Y-16751888D01*
X11515420Y-16751888D02*
X11505896Y-16732841D01*
X11505896Y-16732841D02*
X11486849Y-16723317D01*
X11486849Y-16723317D02*
X11458277Y-16723317D01*
X11458277Y-16723317D02*
X11439230Y-16713793D01*
X11439230Y-16713793D02*
X11429706Y-16694746D01*
X11429706Y-16694746D02*
X11429706Y-16685222D01*
X11429706Y-16685222D02*
X11439230Y-16666174D01*
X11439230Y-16666174D02*
X11458277Y-16656650D01*
X11458277Y-16656650D02*
X11486849Y-16656650D01*
X11486849Y-16656650D02*
X11505896Y-16666174D01*
X11582087Y-16866174D02*
X11591611Y-16856650D01*
X11591611Y-16856650D02*
X11610658Y-16828079D01*
X11610658Y-16828079D02*
X11620182Y-16809031D01*
X11620182Y-16809031D02*
X11629706Y-16780460D01*
X11629706Y-16780460D02*
X11639230Y-16732841D01*
X11639230Y-16732841D02*
X11639230Y-16694746D01*
X11639230Y-16694746D02*
X11629706Y-16647127D01*
X11629706Y-16647127D02*
X11620182Y-16618555D01*
X11620182Y-16618555D02*
X11610658Y-16599508D01*
X11610658Y-16599508D02*
X11591611Y-16570936D01*
X11591611Y-16570936D02*
X11582087Y-16561412D01*
D13*
X4877500Y-16902500D02*
X4997500Y-17022500D01*
X4997500Y-16902500D02*
X4877500Y-17022500D01*
X4997500Y-16962500D02*
G75*
G02*
X4877500Y-16962500I-60000J0D01*
G01*
X4877500Y-16962500D02*
G75*
G02*
X4997500Y-16962500I60000J0D01*
G01*
D11*
X5363039Y-17053984D02*
X5248753Y-17053984D01*
X5305896Y-17053984D02*
X5305896Y-16853984D01*
X5305896Y-16853984D02*
X5286848Y-16882555D01*
X5286848Y-16882555D02*
X5267801Y-16901603D01*
X5267801Y-16901603D02*
X5248753Y-16911127D01*
X5448753Y-17034936D02*
X5458277Y-17044460D01*
X5458277Y-17044460D02*
X5448753Y-17053984D01*
X5448753Y-17053984D02*
X5439229Y-17044460D01*
X5439229Y-17044460D02*
X5448753Y-17034936D01*
X5448753Y-17034936D02*
X5448753Y-17053984D01*
X5534467Y-16873031D02*
X5543991Y-16863508D01*
X5543991Y-16863508D02*
X5563039Y-16853984D01*
X5563039Y-16853984D02*
X5610658Y-16853984D01*
X5610658Y-16853984D02*
X5629705Y-16863508D01*
X5629705Y-16863508D02*
X5639229Y-16873031D01*
X5639229Y-16873031D02*
X5648753Y-16892079D01*
X5648753Y-16892079D02*
X5648753Y-16911127D01*
X5648753Y-16911127D02*
X5639229Y-16939698D01*
X5639229Y-16939698D02*
X5524944Y-17053984D01*
X5524944Y-17053984D02*
X5648753Y-17053984D01*
X5772562Y-16853984D02*
X5791610Y-16853984D01*
X5791610Y-16853984D02*
X5810658Y-16863508D01*
X5810658Y-16863508D02*
X5820182Y-16873031D01*
X5820182Y-16873031D02*
X5829705Y-16892079D01*
X5829705Y-16892079D02*
X5839229Y-16930174D01*
X5839229Y-16930174D02*
X5839229Y-16977793D01*
X5839229Y-16977793D02*
X5829705Y-17015889D01*
X5829705Y-17015889D02*
X5820182Y-17034936D01*
X5820182Y-17034936D02*
X5810658Y-17044460D01*
X5810658Y-17044460D02*
X5791610Y-17053984D01*
X5791610Y-17053984D02*
X5772562Y-17053984D01*
X5772562Y-17053984D02*
X5753515Y-17044460D01*
X5753515Y-17044460D02*
X5743991Y-17034936D01*
X5743991Y-17034936D02*
X5734467Y-17015889D01*
X5734467Y-17015889D02*
X5724943Y-16977793D01*
X5724943Y-16977793D02*
X5724943Y-16930174D01*
X5724943Y-16930174D02*
X5734467Y-16892079D01*
X5734467Y-16892079D02*
X5743991Y-16873031D01*
X5743991Y-16873031D02*
X5753515Y-16863508D01*
X5753515Y-16863508D02*
X5772562Y-16853984D01*
X5963039Y-16853984D02*
X5982086Y-16853984D01*
X5982086Y-16853984D02*
X6001134Y-16863508D01*
X6001134Y-16863508D02*
X6010658Y-16873031D01*
X6010658Y-16873031D02*
X6020182Y-16892079D01*
X6020182Y-16892079D02*
X6029705Y-16930174D01*
X6029705Y-16930174D02*
X6029705Y-16977793D01*
X6029705Y-16977793D02*
X6020182Y-17015889D01*
X6020182Y-17015889D02*
X6010658Y-17034936D01*
X6010658Y-17034936D02*
X6001134Y-17044460D01*
X6001134Y-17044460D02*
X5982086Y-17053984D01*
X5982086Y-17053984D02*
X5963039Y-17053984D01*
X5963039Y-17053984D02*
X5943991Y-17044460D01*
X5943991Y-17044460D02*
X5934467Y-17034936D01*
X5934467Y-17034936D02*
X5924943Y-17015889D01*
X5924943Y-17015889D02*
X5915420Y-16977793D01*
X5915420Y-16977793D02*
X5915420Y-16930174D01*
X5915420Y-16930174D02*
X5924943Y-16892079D01*
X5924943Y-16892079D02*
X5934467Y-16873031D01*
X5934467Y-16873031D02*
X5943991Y-16863508D01*
X5943991Y-16863508D02*
X5963039Y-16853984D01*
X6115420Y-17053984D02*
X6115420Y-16920650D01*
X6115420Y-16939698D02*
X6124943Y-16930174D01*
X6124943Y-16930174D02*
X6143991Y-16920650D01*
X6143991Y-16920650D02*
X6172563Y-16920650D01*
X6172563Y-16920650D02*
X6191610Y-16930174D01*
X6191610Y-16930174D02*
X6201134Y-16949222D01*
X6201134Y-16949222D02*
X6201134Y-17053984D01*
X6201134Y-16949222D02*
X6210658Y-16930174D01*
X6210658Y-16930174D02*
X6229705Y-16920650D01*
X6229705Y-16920650D02*
X6258277Y-16920650D01*
X6258277Y-16920650D02*
X6277324Y-16930174D01*
X6277324Y-16930174D02*
X6286848Y-16949222D01*
X6286848Y-16949222D02*
X6286848Y-17053984D01*
X6382086Y-17053984D02*
X6382086Y-16920650D01*
X6382086Y-16939698D02*
X6391610Y-16930174D01*
X6391610Y-16930174D02*
X6410658Y-16920650D01*
X6410658Y-16920650D02*
X6439229Y-16920650D01*
X6439229Y-16920650D02*
X6458277Y-16930174D01*
X6458277Y-16930174D02*
X6467801Y-16949222D01*
X6467801Y-16949222D02*
X6467801Y-17053984D01*
X6467801Y-16949222D02*
X6477324Y-16930174D01*
X6477324Y-16930174D02*
X6496372Y-16920650D01*
X6496372Y-16920650D02*
X6524943Y-16920650D01*
X6524943Y-16920650D02*
X6543991Y-16930174D01*
X6543991Y-16930174D02*
X6553515Y-16949222D01*
X6553515Y-16949222D02*
X6553515Y-17053984D01*
X6943991Y-16844460D02*
X6772563Y-17101603D01*
X7201134Y-16853984D02*
X7220182Y-16853984D01*
X7220182Y-16853984D02*
X7239229Y-16863508D01*
X7239229Y-16863508D02*
X7248753Y-16873031D01*
X7248753Y-16873031D02*
X7258277Y-16892079D01*
X7258277Y-16892079D02*
X7267801Y-16930174D01*
X7267801Y-16930174D02*
X7267801Y-16977793D01*
X7267801Y-16977793D02*
X7258277Y-17015889D01*
X7258277Y-17015889D02*
X7248753Y-17034936D01*
X7248753Y-17034936D02*
X7239229Y-17044460D01*
X7239229Y-17044460D02*
X7220182Y-17053984D01*
X7220182Y-17053984D02*
X7201134Y-17053984D01*
X7201134Y-17053984D02*
X7182086Y-17044460D01*
X7182086Y-17044460D02*
X7172563Y-17034936D01*
X7172563Y-17034936D02*
X7163039Y-17015889D01*
X7163039Y-17015889D02*
X7153515Y-16977793D01*
X7153515Y-16977793D02*
X7153515Y-16930174D01*
X7153515Y-16930174D02*
X7163039Y-16892079D01*
X7163039Y-16892079D02*
X7172563Y-16873031D01*
X7172563Y-16873031D02*
X7182086Y-16863508D01*
X7182086Y-16863508D02*
X7201134Y-16853984D01*
X7353515Y-17034936D02*
X7363039Y-17044460D01*
X7363039Y-17044460D02*
X7353515Y-17053984D01*
X7353515Y-17053984D02*
X7343991Y-17044460D01*
X7343991Y-17044460D02*
X7353515Y-17034936D01*
X7353515Y-17034936D02*
X7353515Y-17053984D01*
X7486848Y-16853984D02*
X7505896Y-16853984D01*
X7505896Y-16853984D02*
X7524944Y-16863508D01*
X7524944Y-16863508D02*
X7534467Y-16873031D01*
X7534467Y-16873031D02*
X7543991Y-16892079D01*
X7543991Y-16892079D02*
X7553515Y-16930174D01*
X7553515Y-16930174D02*
X7553515Y-16977793D01*
X7553515Y-16977793D02*
X7543991Y-17015889D01*
X7543991Y-17015889D02*
X7534467Y-17034936D01*
X7534467Y-17034936D02*
X7524944Y-17044460D01*
X7524944Y-17044460D02*
X7505896Y-17053984D01*
X7505896Y-17053984D02*
X7486848Y-17053984D01*
X7486848Y-17053984D02*
X7467801Y-17044460D01*
X7467801Y-17044460D02*
X7458277Y-17034936D01*
X7458277Y-17034936D02*
X7448753Y-17015889D01*
X7448753Y-17015889D02*
X7439229Y-16977793D01*
X7439229Y-16977793D02*
X7439229Y-16930174D01*
X7439229Y-16930174D02*
X7448753Y-16892079D01*
X7448753Y-16892079D02*
X7458277Y-16873031D01*
X7458277Y-16873031D02*
X7467801Y-16863508D01*
X7467801Y-16863508D02*
X7486848Y-16853984D01*
X7724944Y-16920650D02*
X7724944Y-17053984D01*
X7677325Y-16844460D02*
X7629706Y-16987317D01*
X7629706Y-16987317D02*
X7753515Y-16987317D01*
X7810658Y-16853984D02*
X7943991Y-16853984D01*
X7943991Y-16853984D02*
X7858277Y-17053984D01*
X8010658Y-16873031D02*
X8020182Y-16863508D01*
X8020182Y-16863508D02*
X8039229Y-16853984D01*
X8039229Y-16853984D02*
X8086848Y-16853984D01*
X8086848Y-16853984D02*
X8105896Y-16863508D01*
X8105896Y-16863508D02*
X8115420Y-16873031D01*
X8115420Y-16873031D02*
X8124944Y-16892079D01*
X8124944Y-16892079D02*
X8124944Y-16911127D01*
X8124944Y-16911127D02*
X8115420Y-16939698D01*
X8115420Y-16939698D02*
X8001134Y-17053984D01*
X8001134Y-17053984D02*
X8124944Y-17053984D01*
X8201134Y-16853984D02*
X8201134Y-16892079D01*
X8277325Y-16853984D02*
X8277325Y-16892079D01*
X8572563Y-17130174D02*
X8563039Y-17120650D01*
X8563039Y-17120650D02*
X8543991Y-17092079D01*
X8543991Y-17092079D02*
X8534468Y-17073031D01*
X8534468Y-17073031D02*
X8524944Y-17044460D01*
X8524944Y-17044460D02*
X8515420Y-16996841D01*
X8515420Y-16996841D02*
X8515420Y-16958746D01*
X8515420Y-16958746D02*
X8524944Y-16911127D01*
X8524944Y-16911127D02*
X8534468Y-16882555D01*
X8534468Y-16882555D02*
X8543991Y-16863508D01*
X8543991Y-16863508D02*
X8563039Y-16834936D01*
X8563039Y-16834936D02*
X8572563Y-16825412D01*
X8734468Y-16920650D02*
X8734468Y-17053984D01*
X8686849Y-16844460D02*
X8639230Y-16987317D01*
X8639230Y-16987317D02*
X8763039Y-16987317D01*
X8991611Y-17053984D02*
X8991611Y-16853984D01*
X9077325Y-17053984D02*
X9077325Y-16949222D01*
X9077325Y-16949222D02*
X9067801Y-16930174D01*
X9067801Y-16930174D02*
X9048753Y-16920650D01*
X9048753Y-16920650D02*
X9020182Y-16920650D01*
X9020182Y-16920650D02*
X9001134Y-16930174D01*
X9001134Y-16930174D02*
X8991611Y-16939698D01*
X9201134Y-17053984D02*
X9182087Y-17044460D01*
X9182087Y-17044460D02*
X9172563Y-17034936D01*
X9172563Y-17034936D02*
X9163039Y-17015889D01*
X9163039Y-17015889D02*
X9163039Y-16958746D01*
X9163039Y-16958746D02*
X9172563Y-16939698D01*
X9172563Y-16939698D02*
X9182087Y-16930174D01*
X9182087Y-16930174D02*
X9201134Y-16920650D01*
X9201134Y-16920650D02*
X9229706Y-16920650D01*
X9229706Y-16920650D02*
X9248753Y-16930174D01*
X9248753Y-16930174D02*
X9258277Y-16939698D01*
X9258277Y-16939698D02*
X9267801Y-16958746D01*
X9267801Y-16958746D02*
X9267801Y-17015889D01*
X9267801Y-17015889D02*
X9258277Y-17034936D01*
X9258277Y-17034936D02*
X9248753Y-17044460D01*
X9248753Y-17044460D02*
X9229706Y-17053984D01*
X9229706Y-17053984D02*
X9201134Y-17053984D01*
X9382087Y-17053984D02*
X9363039Y-17044460D01*
X9363039Y-17044460D02*
X9353515Y-17025412D01*
X9353515Y-17025412D02*
X9353515Y-16853984D01*
X9534468Y-17044460D02*
X9515420Y-17053984D01*
X9515420Y-17053984D02*
X9477325Y-17053984D01*
X9477325Y-17053984D02*
X9458277Y-17044460D01*
X9458277Y-17044460D02*
X9448753Y-17025412D01*
X9448753Y-17025412D02*
X9448753Y-16949222D01*
X9448753Y-16949222D02*
X9458277Y-16930174D01*
X9458277Y-16930174D02*
X9477325Y-16920650D01*
X9477325Y-16920650D02*
X9515420Y-16920650D01*
X9515420Y-16920650D02*
X9534468Y-16930174D01*
X9534468Y-16930174D02*
X9543992Y-16949222D01*
X9543992Y-16949222D02*
X9543992Y-16968270D01*
X9543992Y-16968270D02*
X9448753Y-16987317D01*
X9620182Y-17044460D02*
X9639230Y-17053984D01*
X9639230Y-17053984D02*
X9677325Y-17053984D01*
X9677325Y-17053984D02*
X9696373Y-17044460D01*
X9696373Y-17044460D02*
X9705896Y-17025412D01*
X9705896Y-17025412D02*
X9705896Y-17015889D01*
X9705896Y-17015889D02*
X9696373Y-16996841D01*
X9696373Y-16996841D02*
X9677325Y-16987317D01*
X9677325Y-16987317D02*
X9648753Y-16987317D01*
X9648753Y-16987317D02*
X9629706Y-16977793D01*
X9629706Y-16977793D02*
X9620182Y-16958746D01*
X9620182Y-16958746D02*
X9620182Y-16949222D01*
X9620182Y-16949222D02*
X9629706Y-16930174D01*
X9629706Y-16930174D02*
X9648753Y-16920650D01*
X9648753Y-16920650D02*
X9677325Y-16920650D01*
X9677325Y-16920650D02*
X9696373Y-16930174D01*
X9772563Y-17130174D02*
X9782087Y-17120650D01*
X9782087Y-17120650D02*
X9801134Y-17092079D01*
X9801134Y-17092079D02*
X9810658Y-17073031D01*
X9810658Y-17073031D02*
X9820182Y-17044460D01*
X9820182Y-17044460D02*
X9829706Y-16996841D01*
X9829706Y-16996841D02*
X9829706Y-16958746D01*
X9829706Y-16958746D02*
X9820182Y-16911127D01*
X9820182Y-16911127D02*
X9810658Y-16882555D01*
X9810658Y-16882555D02*
X9801134Y-16863508D01*
X9801134Y-16863508D02*
X9782087Y-16834936D01*
X9782087Y-16834936D02*
X9772563Y-16825412D01*
D14*
X4867500Y-17161500D02*
X4997500Y-17291500D01*
X4997500Y-17161500D02*
X4867500Y-17291500D01*
X4932500Y-17161500D02*
X4932500Y-17291500D01*
X4867500Y-17226500D02*
X4997500Y-17226500D01*
D11*
X5363039Y-17317984D02*
X5248753Y-17317984D01*
X5305896Y-17317984D02*
X5305896Y-17117984D01*
X5305896Y-17117984D02*
X5286848Y-17146555D01*
X5286848Y-17146555D02*
X5267801Y-17165603D01*
X5267801Y-17165603D02*
X5248753Y-17175127D01*
X5448753Y-17298936D02*
X5458277Y-17308460D01*
X5458277Y-17308460D02*
X5448753Y-17317984D01*
X5448753Y-17317984D02*
X5439229Y-17308460D01*
X5439229Y-17308460D02*
X5448753Y-17298936D01*
X5448753Y-17298936D02*
X5448753Y-17317984D01*
X5524944Y-17117984D02*
X5648753Y-17117984D01*
X5648753Y-17117984D02*
X5582086Y-17194174D01*
X5582086Y-17194174D02*
X5610658Y-17194174D01*
X5610658Y-17194174D02*
X5629705Y-17203698D01*
X5629705Y-17203698D02*
X5639229Y-17213222D01*
X5639229Y-17213222D02*
X5648753Y-17232270D01*
X5648753Y-17232270D02*
X5648753Y-17279889D01*
X5648753Y-17279889D02*
X5639229Y-17298936D01*
X5639229Y-17298936D02*
X5629705Y-17308460D01*
X5629705Y-17308460D02*
X5610658Y-17317984D01*
X5610658Y-17317984D02*
X5553515Y-17317984D01*
X5553515Y-17317984D02*
X5534467Y-17308460D01*
X5534467Y-17308460D02*
X5524944Y-17298936D01*
X5772562Y-17117984D02*
X5791610Y-17117984D01*
X5791610Y-17117984D02*
X5810658Y-17127508D01*
X5810658Y-17127508D02*
X5820182Y-17137031D01*
X5820182Y-17137031D02*
X5829705Y-17156079D01*
X5829705Y-17156079D02*
X5839229Y-17194174D01*
X5839229Y-17194174D02*
X5839229Y-17241793D01*
X5839229Y-17241793D02*
X5829705Y-17279889D01*
X5829705Y-17279889D02*
X5820182Y-17298936D01*
X5820182Y-17298936D02*
X5810658Y-17308460D01*
X5810658Y-17308460D02*
X5791610Y-17317984D01*
X5791610Y-17317984D02*
X5772562Y-17317984D01*
X5772562Y-17317984D02*
X5753515Y-17308460D01*
X5753515Y-17308460D02*
X5743991Y-17298936D01*
X5743991Y-17298936D02*
X5734467Y-17279889D01*
X5734467Y-17279889D02*
X5724943Y-17241793D01*
X5724943Y-17241793D02*
X5724943Y-17194174D01*
X5724943Y-17194174D02*
X5734467Y-17156079D01*
X5734467Y-17156079D02*
X5743991Y-17137031D01*
X5743991Y-17137031D02*
X5753515Y-17127508D01*
X5753515Y-17127508D02*
X5772562Y-17117984D01*
X5963039Y-17117984D02*
X5982086Y-17117984D01*
X5982086Y-17117984D02*
X6001134Y-17127508D01*
X6001134Y-17127508D02*
X6010658Y-17137031D01*
X6010658Y-17137031D02*
X6020182Y-17156079D01*
X6020182Y-17156079D02*
X6029705Y-17194174D01*
X6029705Y-17194174D02*
X6029705Y-17241793D01*
X6029705Y-17241793D02*
X6020182Y-17279889D01*
X6020182Y-17279889D02*
X6010658Y-17298936D01*
X6010658Y-17298936D02*
X6001134Y-17308460D01*
X6001134Y-17308460D02*
X5982086Y-17317984D01*
X5982086Y-17317984D02*
X5963039Y-17317984D01*
X5963039Y-17317984D02*
X5943991Y-17308460D01*
X5943991Y-17308460D02*
X5934467Y-17298936D01*
X5934467Y-17298936D02*
X5924943Y-17279889D01*
X5924943Y-17279889D02*
X5915420Y-17241793D01*
X5915420Y-17241793D02*
X5915420Y-17194174D01*
X5915420Y-17194174D02*
X5924943Y-17156079D01*
X5924943Y-17156079D02*
X5934467Y-17137031D01*
X5934467Y-17137031D02*
X5943991Y-17127508D01*
X5943991Y-17127508D02*
X5963039Y-17117984D01*
X6115420Y-17317984D02*
X6115420Y-17184650D01*
X6115420Y-17203698D02*
X6124943Y-17194174D01*
X6124943Y-17194174D02*
X6143991Y-17184650D01*
X6143991Y-17184650D02*
X6172563Y-17184650D01*
X6172563Y-17184650D02*
X6191610Y-17194174D01*
X6191610Y-17194174D02*
X6201134Y-17213222D01*
X6201134Y-17213222D02*
X6201134Y-17317984D01*
X6201134Y-17213222D02*
X6210658Y-17194174D01*
X6210658Y-17194174D02*
X6229705Y-17184650D01*
X6229705Y-17184650D02*
X6258277Y-17184650D01*
X6258277Y-17184650D02*
X6277324Y-17194174D01*
X6277324Y-17194174D02*
X6286848Y-17213222D01*
X6286848Y-17213222D02*
X6286848Y-17317984D01*
X6382086Y-17317984D02*
X6382086Y-17184650D01*
X6382086Y-17203698D02*
X6391610Y-17194174D01*
X6391610Y-17194174D02*
X6410658Y-17184650D01*
X6410658Y-17184650D02*
X6439229Y-17184650D01*
X6439229Y-17184650D02*
X6458277Y-17194174D01*
X6458277Y-17194174D02*
X6467801Y-17213222D01*
X6467801Y-17213222D02*
X6467801Y-17317984D01*
X6467801Y-17213222D02*
X6477324Y-17194174D01*
X6477324Y-17194174D02*
X6496372Y-17184650D01*
X6496372Y-17184650D02*
X6524943Y-17184650D01*
X6524943Y-17184650D02*
X6543991Y-17194174D01*
X6543991Y-17194174D02*
X6553515Y-17213222D01*
X6553515Y-17213222D02*
X6553515Y-17317984D01*
X6943991Y-17108460D02*
X6772563Y-17365603D01*
X7201134Y-17117984D02*
X7220182Y-17117984D01*
X7220182Y-17117984D02*
X7239229Y-17127508D01*
X7239229Y-17127508D02*
X7248753Y-17137031D01*
X7248753Y-17137031D02*
X7258277Y-17156079D01*
X7258277Y-17156079D02*
X7267801Y-17194174D01*
X7267801Y-17194174D02*
X7267801Y-17241793D01*
X7267801Y-17241793D02*
X7258277Y-17279889D01*
X7258277Y-17279889D02*
X7248753Y-17298936D01*
X7248753Y-17298936D02*
X7239229Y-17308460D01*
X7239229Y-17308460D02*
X7220182Y-17317984D01*
X7220182Y-17317984D02*
X7201134Y-17317984D01*
X7201134Y-17317984D02*
X7182086Y-17308460D01*
X7182086Y-17308460D02*
X7172563Y-17298936D01*
X7172563Y-17298936D02*
X7163039Y-17279889D01*
X7163039Y-17279889D02*
X7153515Y-17241793D01*
X7153515Y-17241793D02*
X7153515Y-17194174D01*
X7153515Y-17194174D02*
X7163039Y-17156079D01*
X7163039Y-17156079D02*
X7172563Y-17137031D01*
X7172563Y-17137031D02*
X7182086Y-17127508D01*
X7182086Y-17127508D02*
X7201134Y-17117984D01*
X7353515Y-17298936D02*
X7363039Y-17308460D01*
X7363039Y-17308460D02*
X7353515Y-17317984D01*
X7353515Y-17317984D02*
X7343991Y-17308460D01*
X7343991Y-17308460D02*
X7353515Y-17298936D01*
X7353515Y-17298936D02*
X7353515Y-17317984D01*
X7486848Y-17117984D02*
X7505896Y-17117984D01*
X7505896Y-17117984D02*
X7524944Y-17127508D01*
X7524944Y-17127508D02*
X7534467Y-17137031D01*
X7534467Y-17137031D02*
X7543991Y-17156079D01*
X7543991Y-17156079D02*
X7553515Y-17194174D01*
X7553515Y-17194174D02*
X7553515Y-17241793D01*
X7553515Y-17241793D02*
X7543991Y-17279889D01*
X7543991Y-17279889D02*
X7534467Y-17298936D01*
X7534467Y-17298936D02*
X7524944Y-17308460D01*
X7524944Y-17308460D02*
X7505896Y-17317984D01*
X7505896Y-17317984D02*
X7486848Y-17317984D01*
X7486848Y-17317984D02*
X7467801Y-17308460D01*
X7467801Y-17308460D02*
X7458277Y-17298936D01*
X7458277Y-17298936D02*
X7448753Y-17279889D01*
X7448753Y-17279889D02*
X7439229Y-17241793D01*
X7439229Y-17241793D02*
X7439229Y-17194174D01*
X7439229Y-17194174D02*
X7448753Y-17156079D01*
X7448753Y-17156079D02*
X7458277Y-17137031D01*
X7458277Y-17137031D02*
X7467801Y-17127508D01*
X7467801Y-17127508D02*
X7486848Y-17117984D01*
X7734467Y-17117984D02*
X7639229Y-17117984D01*
X7639229Y-17117984D02*
X7629706Y-17213222D01*
X7629706Y-17213222D02*
X7639229Y-17203698D01*
X7639229Y-17203698D02*
X7658277Y-17194174D01*
X7658277Y-17194174D02*
X7705896Y-17194174D01*
X7705896Y-17194174D02*
X7724944Y-17203698D01*
X7724944Y-17203698D02*
X7734467Y-17213222D01*
X7734467Y-17213222D02*
X7743991Y-17232270D01*
X7743991Y-17232270D02*
X7743991Y-17279889D01*
X7743991Y-17279889D02*
X7734467Y-17298936D01*
X7734467Y-17298936D02*
X7724944Y-17308460D01*
X7724944Y-17308460D02*
X7705896Y-17317984D01*
X7705896Y-17317984D02*
X7658277Y-17317984D01*
X7658277Y-17317984D02*
X7639229Y-17308460D01*
X7639229Y-17308460D02*
X7629706Y-17298936D01*
X7934467Y-17317984D02*
X7820182Y-17317984D01*
X7877325Y-17317984D02*
X7877325Y-17117984D01*
X7877325Y-17117984D02*
X7858277Y-17146555D01*
X7858277Y-17146555D02*
X7839229Y-17165603D01*
X7839229Y-17165603D02*
X7820182Y-17175127D01*
X8010658Y-17137031D02*
X8020182Y-17127508D01*
X8020182Y-17127508D02*
X8039229Y-17117984D01*
X8039229Y-17117984D02*
X8086848Y-17117984D01*
X8086848Y-17117984D02*
X8105896Y-17127508D01*
X8105896Y-17127508D02*
X8115420Y-17137031D01*
X8115420Y-17137031D02*
X8124944Y-17156079D01*
X8124944Y-17156079D02*
X8124944Y-17175127D01*
X8124944Y-17175127D02*
X8115420Y-17203698D01*
X8115420Y-17203698D02*
X8001134Y-17317984D01*
X8001134Y-17317984D02*
X8124944Y-17317984D01*
X8201134Y-17117984D02*
X8201134Y-17156079D01*
X8277325Y-17117984D02*
X8277325Y-17156079D01*
X8572563Y-17394174D02*
X8563039Y-17384650D01*
X8563039Y-17384650D02*
X8543991Y-17356079D01*
X8543991Y-17356079D02*
X8534468Y-17337031D01*
X8534468Y-17337031D02*
X8524944Y-17308460D01*
X8524944Y-17308460D02*
X8515420Y-17260841D01*
X8515420Y-17260841D02*
X8515420Y-17222746D01*
X8515420Y-17222746D02*
X8524944Y-17175127D01*
X8524944Y-17175127D02*
X8534468Y-17146555D01*
X8534468Y-17146555D02*
X8543991Y-17127508D01*
X8543991Y-17127508D02*
X8563039Y-17098936D01*
X8563039Y-17098936D02*
X8572563Y-17089412D01*
X8629706Y-17117984D02*
X8753515Y-17117984D01*
X8753515Y-17117984D02*
X8686849Y-17194174D01*
X8686849Y-17194174D02*
X8715420Y-17194174D01*
X8715420Y-17194174D02*
X8734468Y-17203698D01*
X8734468Y-17203698D02*
X8743991Y-17213222D01*
X8743991Y-17213222D02*
X8753515Y-17232270D01*
X8753515Y-17232270D02*
X8753515Y-17279889D01*
X8753515Y-17279889D02*
X8743991Y-17298936D01*
X8743991Y-17298936D02*
X8734468Y-17308460D01*
X8734468Y-17308460D02*
X8715420Y-17317984D01*
X8715420Y-17317984D02*
X8658277Y-17317984D01*
X8658277Y-17317984D02*
X8639230Y-17308460D01*
X8639230Y-17308460D02*
X8629706Y-17298936D01*
X8991611Y-17317984D02*
X8991611Y-17117984D01*
X9077325Y-17317984D02*
X9077325Y-17213222D01*
X9077325Y-17213222D02*
X9067801Y-17194174D01*
X9067801Y-17194174D02*
X9048753Y-17184650D01*
X9048753Y-17184650D02*
X9020182Y-17184650D01*
X9020182Y-17184650D02*
X9001134Y-17194174D01*
X9001134Y-17194174D02*
X8991611Y-17203698D01*
X9201134Y-17317984D02*
X9182087Y-17308460D01*
X9182087Y-17308460D02*
X9172563Y-17298936D01*
X9172563Y-17298936D02*
X9163039Y-17279889D01*
X9163039Y-17279889D02*
X9163039Y-17222746D01*
X9163039Y-17222746D02*
X9172563Y-17203698D01*
X9172563Y-17203698D02*
X9182087Y-17194174D01*
X9182087Y-17194174D02*
X9201134Y-17184650D01*
X9201134Y-17184650D02*
X9229706Y-17184650D01*
X9229706Y-17184650D02*
X9248753Y-17194174D01*
X9248753Y-17194174D02*
X9258277Y-17203698D01*
X9258277Y-17203698D02*
X9267801Y-17222746D01*
X9267801Y-17222746D02*
X9267801Y-17279889D01*
X9267801Y-17279889D02*
X9258277Y-17298936D01*
X9258277Y-17298936D02*
X9248753Y-17308460D01*
X9248753Y-17308460D02*
X9229706Y-17317984D01*
X9229706Y-17317984D02*
X9201134Y-17317984D01*
X9382087Y-17317984D02*
X9363039Y-17308460D01*
X9363039Y-17308460D02*
X9353515Y-17289412D01*
X9353515Y-17289412D02*
X9353515Y-17117984D01*
X9534468Y-17308460D02*
X9515420Y-17317984D01*
X9515420Y-17317984D02*
X9477325Y-17317984D01*
X9477325Y-17317984D02*
X9458277Y-17308460D01*
X9458277Y-17308460D02*
X9448753Y-17289412D01*
X9448753Y-17289412D02*
X9448753Y-17213222D01*
X9448753Y-17213222D02*
X9458277Y-17194174D01*
X9458277Y-17194174D02*
X9477325Y-17184650D01*
X9477325Y-17184650D02*
X9515420Y-17184650D01*
X9515420Y-17184650D02*
X9534468Y-17194174D01*
X9534468Y-17194174D02*
X9543992Y-17213222D01*
X9543992Y-17213222D02*
X9543992Y-17232270D01*
X9543992Y-17232270D02*
X9448753Y-17251317D01*
X9620182Y-17308460D02*
X9639230Y-17317984D01*
X9639230Y-17317984D02*
X9677325Y-17317984D01*
X9677325Y-17317984D02*
X9696373Y-17308460D01*
X9696373Y-17308460D02*
X9705896Y-17289412D01*
X9705896Y-17289412D02*
X9705896Y-17279889D01*
X9705896Y-17279889D02*
X9696373Y-17260841D01*
X9696373Y-17260841D02*
X9677325Y-17251317D01*
X9677325Y-17251317D02*
X9648753Y-17251317D01*
X9648753Y-17251317D02*
X9629706Y-17241793D01*
X9629706Y-17241793D02*
X9620182Y-17222746D01*
X9620182Y-17222746D02*
X9620182Y-17213222D01*
X9620182Y-17213222D02*
X9629706Y-17194174D01*
X9629706Y-17194174D02*
X9648753Y-17184650D01*
X9648753Y-17184650D02*
X9677325Y-17184650D01*
X9677325Y-17184650D02*
X9696373Y-17194174D01*
X9772563Y-17394174D02*
X9782087Y-17384650D01*
X9782087Y-17384650D02*
X9801134Y-17356079D01*
X9801134Y-17356079D02*
X9810658Y-17337031D01*
X9810658Y-17337031D02*
X9820182Y-17308460D01*
X9820182Y-17308460D02*
X9829706Y-17260841D01*
X9829706Y-17260841D02*
X9829706Y-17222746D01*
X9829706Y-17222746D02*
X9820182Y-17175127D01*
X9820182Y-17175127D02*
X9810658Y-17146555D01*
X9810658Y-17146555D02*
X9801134Y-17127508D01*
X9801134Y-17127508D02*
X9782087Y-17098936D01*
X9782087Y-17098936D02*
X9772563Y-17089412D01*
X4797500Y-17390500D02*
X4997500Y-17590500D01*
X4997500Y-17390500D02*
X4797500Y-17590500D01*
X4968211Y-17561211D02*
X4968211Y-17419789D01*
X4826789Y-17419789D01*
X4826789Y-17561211D01*
X4968211Y-17561211D01*
X5248753Y-17401031D02*
X5258277Y-17391508D01*
X5258277Y-17391508D02*
X5277324Y-17381984D01*
X5277324Y-17381984D02*
X5324944Y-17381984D01*
X5324944Y-17381984D02*
X5343991Y-17391508D01*
X5343991Y-17391508D02*
X5353515Y-17401031D01*
X5353515Y-17401031D02*
X5363039Y-17420079D01*
X5363039Y-17420079D02*
X5363039Y-17439127D01*
X5363039Y-17439127D02*
X5353515Y-17467698D01*
X5353515Y-17467698D02*
X5239229Y-17581984D01*
X5239229Y-17581984D02*
X5363039Y-17581984D01*
X5448753Y-17562936D02*
X5458277Y-17572460D01*
X5458277Y-17572460D02*
X5448753Y-17581984D01*
X5448753Y-17581984D02*
X5439229Y-17572460D01*
X5439229Y-17572460D02*
X5448753Y-17562936D01*
X5448753Y-17562936D02*
X5448753Y-17581984D01*
X5524944Y-17381984D02*
X5658277Y-17381984D01*
X5658277Y-17381984D02*
X5572563Y-17581984D01*
X5772562Y-17381984D02*
X5791610Y-17381984D01*
X5791610Y-17381984D02*
X5810658Y-17391508D01*
X5810658Y-17391508D02*
X5820182Y-17401031D01*
X5820182Y-17401031D02*
X5829705Y-17420079D01*
X5829705Y-17420079D02*
X5839229Y-17458174D01*
X5839229Y-17458174D02*
X5839229Y-17505793D01*
X5839229Y-17505793D02*
X5829705Y-17543889D01*
X5829705Y-17543889D02*
X5820182Y-17562936D01*
X5820182Y-17562936D02*
X5810658Y-17572460D01*
X5810658Y-17572460D02*
X5791610Y-17581984D01*
X5791610Y-17581984D02*
X5772562Y-17581984D01*
X5772562Y-17581984D02*
X5753515Y-17572460D01*
X5753515Y-17572460D02*
X5743991Y-17562936D01*
X5743991Y-17562936D02*
X5734467Y-17543889D01*
X5734467Y-17543889D02*
X5724943Y-17505793D01*
X5724943Y-17505793D02*
X5724943Y-17458174D01*
X5724943Y-17458174D02*
X5734467Y-17420079D01*
X5734467Y-17420079D02*
X5743991Y-17401031D01*
X5743991Y-17401031D02*
X5753515Y-17391508D01*
X5753515Y-17391508D02*
X5772562Y-17381984D01*
X5963039Y-17381984D02*
X5982086Y-17381984D01*
X5982086Y-17381984D02*
X6001134Y-17391508D01*
X6001134Y-17391508D02*
X6010658Y-17401031D01*
X6010658Y-17401031D02*
X6020182Y-17420079D01*
X6020182Y-17420079D02*
X6029705Y-17458174D01*
X6029705Y-17458174D02*
X6029705Y-17505793D01*
X6029705Y-17505793D02*
X6020182Y-17543889D01*
X6020182Y-17543889D02*
X6010658Y-17562936D01*
X6010658Y-17562936D02*
X6001134Y-17572460D01*
X6001134Y-17572460D02*
X5982086Y-17581984D01*
X5982086Y-17581984D02*
X5963039Y-17581984D01*
X5963039Y-17581984D02*
X5943991Y-17572460D01*
X5943991Y-17572460D02*
X5934467Y-17562936D01*
X5934467Y-17562936D02*
X5924943Y-17543889D01*
X5924943Y-17543889D02*
X5915420Y-17505793D01*
X5915420Y-17505793D02*
X5915420Y-17458174D01*
X5915420Y-17458174D02*
X5924943Y-17420079D01*
X5924943Y-17420079D02*
X5934467Y-17401031D01*
X5934467Y-17401031D02*
X5943991Y-17391508D01*
X5943991Y-17391508D02*
X5963039Y-17381984D01*
X6115420Y-17581984D02*
X6115420Y-17448650D01*
X6115420Y-17467698D02*
X6124943Y-17458174D01*
X6124943Y-17458174D02*
X6143991Y-17448650D01*
X6143991Y-17448650D02*
X6172563Y-17448650D01*
X6172563Y-17448650D02*
X6191610Y-17458174D01*
X6191610Y-17458174D02*
X6201134Y-17477222D01*
X6201134Y-17477222D02*
X6201134Y-17581984D01*
X6201134Y-17477222D02*
X6210658Y-17458174D01*
X6210658Y-17458174D02*
X6229705Y-17448650D01*
X6229705Y-17448650D02*
X6258277Y-17448650D01*
X6258277Y-17448650D02*
X6277324Y-17458174D01*
X6277324Y-17458174D02*
X6286848Y-17477222D01*
X6286848Y-17477222D02*
X6286848Y-17581984D01*
X6382086Y-17581984D02*
X6382086Y-17448650D01*
X6382086Y-17467698D02*
X6391610Y-17458174D01*
X6391610Y-17458174D02*
X6410658Y-17448650D01*
X6410658Y-17448650D02*
X6439229Y-17448650D01*
X6439229Y-17448650D02*
X6458277Y-17458174D01*
X6458277Y-17458174D02*
X6467801Y-17477222D01*
X6467801Y-17477222D02*
X6467801Y-17581984D01*
X6467801Y-17477222D02*
X6477324Y-17458174D01*
X6477324Y-17458174D02*
X6496372Y-17448650D01*
X6496372Y-17448650D02*
X6524943Y-17448650D01*
X6524943Y-17448650D02*
X6543991Y-17458174D01*
X6543991Y-17458174D02*
X6553515Y-17477222D01*
X6553515Y-17477222D02*
X6553515Y-17581984D01*
X6943991Y-17372460D02*
X6772563Y-17629603D01*
X7201134Y-17381984D02*
X7220182Y-17381984D01*
X7220182Y-17381984D02*
X7239229Y-17391508D01*
X7239229Y-17391508D02*
X7248753Y-17401031D01*
X7248753Y-17401031D02*
X7258277Y-17420079D01*
X7258277Y-17420079D02*
X7267801Y-17458174D01*
X7267801Y-17458174D02*
X7267801Y-17505793D01*
X7267801Y-17505793D02*
X7258277Y-17543889D01*
X7258277Y-17543889D02*
X7248753Y-17562936D01*
X7248753Y-17562936D02*
X7239229Y-17572460D01*
X7239229Y-17572460D02*
X7220182Y-17581984D01*
X7220182Y-17581984D02*
X7201134Y-17581984D01*
X7201134Y-17581984D02*
X7182086Y-17572460D01*
X7182086Y-17572460D02*
X7172563Y-17562936D01*
X7172563Y-17562936D02*
X7163039Y-17543889D01*
X7163039Y-17543889D02*
X7153515Y-17505793D01*
X7153515Y-17505793D02*
X7153515Y-17458174D01*
X7153515Y-17458174D02*
X7163039Y-17420079D01*
X7163039Y-17420079D02*
X7172563Y-17401031D01*
X7172563Y-17401031D02*
X7182086Y-17391508D01*
X7182086Y-17391508D02*
X7201134Y-17381984D01*
X7353515Y-17562936D02*
X7363039Y-17572460D01*
X7363039Y-17572460D02*
X7353515Y-17581984D01*
X7353515Y-17581984D02*
X7343991Y-17572460D01*
X7343991Y-17572460D02*
X7353515Y-17562936D01*
X7353515Y-17562936D02*
X7353515Y-17581984D01*
X7553515Y-17581984D02*
X7439229Y-17581984D01*
X7496372Y-17581984D02*
X7496372Y-17381984D01*
X7496372Y-17381984D02*
X7477325Y-17410555D01*
X7477325Y-17410555D02*
X7458277Y-17429603D01*
X7458277Y-17429603D02*
X7439229Y-17439127D01*
X7677325Y-17381984D02*
X7696372Y-17381984D01*
X7696372Y-17381984D02*
X7715420Y-17391508D01*
X7715420Y-17391508D02*
X7724944Y-17401031D01*
X7724944Y-17401031D02*
X7734467Y-17420079D01*
X7734467Y-17420079D02*
X7743991Y-17458174D01*
X7743991Y-17458174D02*
X7743991Y-17505793D01*
X7743991Y-17505793D02*
X7734467Y-17543889D01*
X7734467Y-17543889D02*
X7724944Y-17562936D01*
X7724944Y-17562936D02*
X7715420Y-17572460D01*
X7715420Y-17572460D02*
X7696372Y-17581984D01*
X7696372Y-17581984D02*
X7677325Y-17581984D01*
X7677325Y-17581984D02*
X7658277Y-17572460D01*
X7658277Y-17572460D02*
X7648753Y-17562936D01*
X7648753Y-17562936D02*
X7639229Y-17543889D01*
X7639229Y-17543889D02*
X7629706Y-17505793D01*
X7629706Y-17505793D02*
X7629706Y-17458174D01*
X7629706Y-17458174D02*
X7639229Y-17420079D01*
X7639229Y-17420079D02*
X7648753Y-17401031D01*
X7648753Y-17401031D02*
X7658277Y-17391508D01*
X7658277Y-17391508D02*
X7677325Y-17381984D01*
X7915420Y-17381984D02*
X7877325Y-17381984D01*
X7877325Y-17381984D02*
X7858277Y-17391508D01*
X7858277Y-17391508D02*
X7848753Y-17401031D01*
X7848753Y-17401031D02*
X7829706Y-17429603D01*
X7829706Y-17429603D02*
X7820182Y-17467698D01*
X7820182Y-17467698D02*
X7820182Y-17543889D01*
X7820182Y-17543889D02*
X7829706Y-17562936D01*
X7829706Y-17562936D02*
X7839229Y-17572460D01*
X7839229Y-17572460D02*
X7858277Y-17581984D01*
X7858277Y-17581984D02*
X7896372Y-17581984D01*
X7896372Y-17581984D02*
X7915420Y-17572460D01*
X7915420Y-17572460D02*
X7924944Y-17562936D01*
X7924944Y-17562936D02*
X7934467Y-17543889D01*
X7934467Y-17543889D02*
X7934467Y-17496270D01*
X7934467Y-17496270D02*
X7924944Y-17477222D01*
X7924944Y-17477222D02*
X7915420Y-17467698D01*
X7915420Y-17467698D02*
X7896372Y-17458174D01*
X7896372Y-17458174D02*
X7858277Y-17458174D01*
X7858277Y-17458174D02*
X7839229Y-17467698D01*
X7839229Y-17467698D02*
X7829706Y-17477222D01*
X7829706Y-17477222D02*
X7820182Y-17496270D01*
X8001134Y-17381984D02*
X8124944Y-17381984D01*
X8124944Y-17381984D02*
X8058277Y-17458174D01*
X8058277Y-17458174D02*
X8086848Y-17458174D01*
X8086848Y-17458174D02*
X8105896Y-17467698D01*
X8105896Y-17467698D02*
X8115420Y-17477222D01*
X8115420Y-17477222D02*
X8124944Y-17496270D01*
X8124944Y-17496270D02*
X8124944Y-17543889D01*
X8124944Y-17543889D02*
X8115420Y-17562936D01*
X8115420Y-17562936D02*
X8105896Y-17572460D01*
X8105896Y-17572460D02*
X8086848Y-17581984D01*
X8086848Y-17581984D02*
X8029706Y-17581984D01*
X8029706Y-17581984D02*
X8010658Y-17572460D01*
X8010658Y-17572460D02*
X8001134Y-17562936D01*
X8201134Y-17381984D02*
X8201134Y-17420079D01*
X8277325Y-17381984D02*
X8277325Y-17420079D01*
X8572563Y-17658174D02*
X8563039Y-17648650D01*
X8563039Y-17648650D02*
X8543991Y-17620079D01*
X8543991Y-17620079D02*
X8534468Y-17601031D01*
X8534468Y-17601031D02*
X8524944Y-17572460D01*
X8524944Y-17572460D02*
X8515420Y-17524841D01*
X8515420Y-17524841D02*
X8515420Y-17486746D01*
X8515420Y-17486746D02*
X8524944Y-17439127D01*
X8524944Y-17439127D02*
X8534468Y-17410555D01*
X8534468Y-17410555D02*
X8543991Y-17391508D01*
X8543991Y-17391508D02*
X8563039Y-17362936D01*
X8563039Y-17362936D02*
X8572563Y-17353412D01*
X8639230Y-17401031D02*
X8648753Y-17391508D01*
X8648753Y-17391508D02*
X8667801Y-17381984D01*
X8667801Y-17381984D02*
X8715420Y-17381984D01*
X8715420Y-17381984D02*
X8734468Y-17391508D01*
X8734468Y-17391508D02*
X8743991Y-17401031D01*
X8743991Y-17401031D02*
X8753515Y-17420079D01*
X8753515Y-17420079D02*
X8753515Y-17439127D01*
X8753515Y-17439127D02*
X8743991Y-17467698D01*
X8743991Y-17467698D02*
X8629706Y-17581984D01*
X8629706Y-17581984D02*
X8753515Y-17581984D01*
X8991611Y-17581984D02*
X8991611Y-17381984D01*
X9077325Y-17581984D02*
X9077325Y-17477222D01*
X9077325Y-17477222D02*
X9067801Y-17458174D01*
X9067801Y-17458174D02*
X9048753Y-17448650D01*
X9048753Y-17448650D02*
X9020182Y-17448650D01*
X9020182Y-17448650D02*
X9001134Y-17458174D01*
X9001134Y-17458174D02*
X8991611Y-17467698D01*
X9201134Y-17581984D02*
X9182087Y-17572460D01*
X9182087Y-17572460D02*
X9172563Y-17562936D01*
X9172563Y-17562936D02*
X9163039Y-17543889D01*
X9163039Y-17543889D02*
X9163039Y-17486746D01*
X9163039Y-17486746D02*
X9172563Y-17467698D01*
X9172563Y-17467698D02*
X9182087Y-17458174D01*
X9182087Y-17458174D02*
X9201134Y-17448650D01*
X9201134Y-17448650D02*
X9229706Y-17448650D01*
X9229706Y-17448650D02*
X9248753Y-17458174D01*
X9248753Y-17458174D02*
X9258277Y-17467698D01*
X9258277Y-17467698D02*
X9267801Y-17486746D01*
X9267801Y-17486746D02*
X9267801Y-17543889D01*
X9267801Y-17543889D02*
X9258277Y-17562936D01*
X9258277Y-17562936D02*
X9248753Y-17572460D01*
X9248753Y-17572460D02*
X9229706Y-17581984D01*
X9229706Y-17581984D02*
X9201134Y-17581984D01*
X9382087Y-17581984D02*
X9363039Y-17572460D01*
X9363039Y-17572460D02*
X9353515Y-17553412D01*
X9353515Y-17553412D02*
X9353515Y-17381984D01*
X9534468Y-17572460D02*
X9515420Y-17581984D01*
X9515420Y-17581984D02*
X9477325Y-17581984D01*
X9477325Y-17581984D02*
X9458277Y-17572460D01*
X9458277Y-17572460D02*
X9448753Y-17553412D01*
X9448753Y-17553412D02*
X9448753Y-17477222D01*
X9448753Y-17477222D02*
X9458277Y-17458174D01*
X9458277Y-17458174D02*
X9477325Y-17448650D01*
X9477325Y-17448650D02*
X9515420Y-17448650D01*
X9515420Y-17448650D02*
X9534468Y-17458174D01*
X9534468Y-17458174D02*
X9543992Y-17477222D01*
X9543992Y-17477222D02*
X9543992Y-17496270D01*
X9543992Y-17496270D02*
X9448753Y-17515317D01*
X9620182Y-17572460D02*
X9639230Y-17581984D01*
X9639230Y-17581984D02*
X9677325Y-17581984D01*
X9677325Y-17581984D02*
X9696373Y-17572460D01*
X9696373Y-17572460D02*
X9705896Y-17553412D01*
X9705896Y-17553412D02*
X9705896Y-17543889D01*
X9705896Y-17543889D02*
X9696373Y-17524841D01*
X9696373Y-17524841D02*
X9677325Y-17515317D01*
X9677325Y-17515317D02*
X9648753Y-17515317D01*
X9648753Y-17515317D02*
X9629706Y-17505793D01*
X9629706Y-17505793D02*
X9620182Y-17486746D01*
X9620182Y-17486746D02*
X9620182Y-17477222D01*
X9620182Y-17477222D02*
X9629706Y-17458174D01*
X9629706Y-17458174D02*
X9648753Y-17448650D01*
X9648753Y-17448650D02*
X9677325Y-17448650D01*
X9677325Y-17448650D02*
X9696373Y-17458174D01*
X9772563Y-17658174D02*
X9782087Y-17648650D01*
X9782087Y-17648650D02*
X9801134Y-17620079D01*
X9801134Y-17620079D02*
X9810658Y-17601031D01*
X9810658Y-17601031D02*
X9820182Y-17572460D01*
X9820182Y-17572460D02*
X9829706Y-17524841D01*
X9829706Y-17524841D02*
X9829706Y-17486746D01*
X9829706Y-17486746D02*
X9820182Y-17439127D01*
X9820182Y-17439127D02*
X9810658Y-17410555D01*
X9810658Y-17410555D02*
X9801134Y-17391508D01*
X9801134Y-17391508D02*
X9782087Y-17362936D01*
X9782087Y-17362936D02*
X9772563Y-17353412D01*
X4797500Y-17710500D02*
X4997500Y-17910500D01*
X4997500Y-17710500D02*
X4797500Y-17910500D01*
X4897500Y-17910500D02*
X4997500Y-17810500D01*
X4897500Y-17710500D01*
X4797500Y-17810500D01*
X4897500Y-17910500D01*
X5239229Y-17701984D02*
X5363039Y-17701984D01*
X5363039Y-17701984D02*
X5296372Y-17778174D01*
X5296372Y-17778174D02*
X5324944Y-17778174D01*
X5324944Y-17778174D02*
X5343991Y-17787698D01*
X5343991Y-17787698D02*
X5353515Y-17797222D01*
X5353515Y-17797222D02*
X5363039Y-17816270D01*
X5363039Y-17816270D02*
X5363039Y-17863889D01*
X5363039Y-17863889D02*
X5353515Y-17882936D01*
X5353515Y-17882936D02*
X5343991Y-17892460D01*
X5343991Y-17892460D02*
X5324944Y-17901984D01*
X5324944Y-17901984D02*
X5267801Y-17901984D01*
X5267801Y-17901984D02*
X5248753Y-17892460D01*
X5248753Y-17892460D02*
X5239229Y-17882936D01*
X5448753Y-17882936D02*
X5458277Y-17892460D01*
X5458277Y-17892460D02*
X5448753Y-17901984D01*
X5448753Y-17901984D02*
X5439229Y-17892460D01*
X5439229Y-17892460D02*
X5448753Y-17882936D01*
X5448753Y-17882936D02*
X5448753Y-17901984D01*
X5534467Y-17721031D02*
X5543991Y-17711508D01*
X5543991Y-17711508D02*
X5563039Y-17701984D01*
X5563039Y-17701984D02*
X5610658Y-17701984D01*
X5610658Y-17701984D02*
X5629705Y-17711508D01*
X5629705Y-17711508D02*
X5639229Y-17721031D01*
X5639229Y-17721031D02*
X5648753Y-17740079D01*
X5648753Y-17740079D02*
X5648753Y-17759127D01*
X5648753Y-17759127D02*
X5639229Y-17787698D01*
X5639229Y-17787698D02*
X5524944Y-17901984D01*
X5524944Y-17901984D02*
X5648753Y-17901984D01*
X5772562Y-17701984D02*
X5791610Y-17701984D01*
X5791610Y-17701984D02*
X5810658Y-17711508D01*
X5810658Y-17711508D02*
X5820182Y-17721031D01*
X5820182Y-17721031D02*
X5829705Y-17740079D01*
X5829705Y-17740079D02*
X5839229Y-17778174D01*
X5839229Y-17778174D02*
X5839229Y-17825793D01*
X5839229Y-17825793D02*
X5829705Y-17863889D01*
X5829705Y-17863889D02*
X5820182Y-17882936D01*
X5820182Y-17882936D02*
X5810658Y-17892460D01*
X5810658Y-17892460D02*
X5791610Y-17901984D01*
X5791610Y-17901984D02*
X5772562Y-17901984D01*
X5772562Y-17901984D02*
X5753515Y-17892460D01*
X5753515Y-17892460D02*
X5743991Y-17882936D01*
X5743991Y-17882936D02*
X5734467Y-17863889D01*
X5734467Y-17863889D02*
X5724943Y-17825793D01*
X5724943Y-17825793D02*
X5724943Y-17778174D01*
X5724943Y-17778174D02*
X5734467Y-17740079D01*
X5734467Y-17740079D02*
X5743991Y-17721031D01*
X5743991Y-17721031D02*
X5753515Y-17711508D01*
X5753515Y-17711508D02*
X5772562Y-17701984D01*
X5963039Y-17701984D02*
X5982086Y-17701984D01*
X5982086Y-17701984D02*
X6001134Y-17711508D01*
X6001134Y-17711508D02*
X6010658Y-17721031D01*
X6010658Y-17721031D02*
X6020182Y-17740079D01*
X6020182Y-17740079D02*
X6029705Y-17778174D01*
X6029705Y-17778174D02*
X6029705Y-17825793D01*
X6029705Y-17825793D02*
X6020182Y-17863889D01*
X6020182Y-17863889D02*
X6010658Y-17882936D01*
X6010658Y-17882936D02*
X6001134Y-17892460D01*
X6001134Y-17892460D02*
X5982086Y-17901984D01*
X5982086Y-17901984D02*
X5963039Y-17901984D01*
X5963039Y-17901984D02*
X5943991Y-17892460D01*
X5943991Y-17892460D02*
X5934467Y-17882936D01*
X5934467Y-17882936D02*
X5924943Y-17863889D01*
X5924943Y-17863889D02*
X5915420Y-17825793D01*
X5915420Y-17825793D02*
X5915420Y-17778174D01*
X5915420Y-17778174D02*
X5924943Y-17740079D01*
X5924943Y-17740079D02*
X5934467Y-17721031D01*
X5934467Y-17721031D02*
X5943991Y-17711508D01*
X5943991Y-17711508D02*
X5963039Y-17701984D01*
X6115420Y-17901984D02*
X6115420Y-17768650D01*
X6115420Y-17787698D02*
X6124943Y-17778174D01*
X6124943Y-17778174D02*
X6143991Y-17768650D01*
X6143991Y-17768650D02*
X6172563Y-17768650D01*
X6172563Y-17768650D02*
X6191610Y-17778174D01*
X6191610Y-17778174D02*
X6201134Y-17797222D01*
X6201134Y-17797222D02*
X6201134Y-17901984D01*
X6201134Y-17797222D02*
X6210658Y-17778174D01*
X6210658Y-17778174D02*
X6229705Y-17768650D01*
X6229705Y-17768650D02*
X6258277Y-17768650D01*
X6258277Y-17768650D02*
X6277324Y-17778174D01*
X6277324Y-17778174D02*
X6286848Y-17797222D01*
X6286848Y-17797222D02*
X6286848Y-17901984D01*
X6382086Y-17901984D02*
X6382086Y-17768650D01*
X6382086Y-17787698D02*
X6391610Y-17778174D01*
X6391610Y-17778174D02*
X6410658Y-17768650D01*
X6410658Y-17768650D02*
X6439229Y-17768650D01*
X6439229Y-17768650D02*
X6458277Y-17778174D01*
X6458277Y-17778174D02*
X6467801Y-17797222D01*
X6467801Y-17797222D02*
X6467801Y-17901984D01*
X6467801Y-17797222D02*
X6477324Y-17778174D01*
X6477324Y-17778174D02*
X6496372Y-17768650D01*
X6496372Y-17768650D02*
X6524943Y-17768650D01*
X6524943Y-17768650D02*
X6543991Y-17778174D01*
X6543991Y-17778174D02*
X6553515Y-17797222D01*
X6553515Y-17797222D02*
X6553515Y-17901984D01*
X6943991Y-17692460D02*
X6772563Y-17949603D01*
X7201134Y-17701984D02*
X7220182Y-17701984D01*
X7220182Y-17701984D02*
X7239229Y-17711508D01*
X7239229Y-17711508D02*
X7248753Y-17721031D01*
X7248753Y-17721031D02*
X7258277Y-17740079D01*
X7258277Y-17740079D02*
X7267801Y-17778174D01*
X7267801Y-17778174D02*
X7267801Y-17825793D01*
X7267801Y-17825793D02*
X7258277Y-17863889D01*
X7258277Y-17863889D02*
X7248753Y-17882936D01*
X7248753Y-17882936D02*
X7239229Y-17892460D01*
X7239229Y-17892460D02*
X7220182Y-17901984D01*
X7220182Y-17901984D02*
X7201134Y-17901984D01*
X7201134Y-17901984D02*
X7182086Y-17892460D01*
X7182086Y-17892460D02*
X7172563Y-17882936D01*
X7172563Y-17882936D02*
X7163039Y-17863889D01*
X7163039Y-17863889D02*
X7153515Y-17825793D01*
X7153515Y-17825793D02*
X7153515Y-17778174D01*
X7153515Y-17778174D02*
X7163039Y-17740079D01*
X7163039Y-17740079D02*
X7172563Y-17721031D01*
X7172563Y-17721031D02*
X7182086Y-17711508D01*
X7182086Y-17711508D02*
X7201134Y-17701984D01*
X7353515Y-17882936D02*
X7363039Y-17892460D01*
X7363039Y-17892460D02*
X7353515Y-17901984D01*
X7353515Y-17901984D02*
X7343991Y-17892460D01*
X7343991Y-17892460D02*
X7353515Y-17882936D01*
X7353515Y-17882936D02*
X7353515Y-17901984D01*
X7553515Y-17901984D02*
X7439229Y-17901984D01*
X7496372Y-17901984D02*
X7496372Y-17701984D01*
X7496372Y-17701984D02*
X7477325Y-17730555D01*
X7477325Y-17730555D02*
X7458277Y-17749603D01*
X7458277Y-17749603D02*
X7439229Y-17759127D01*
X7629706Y-17721031D02*
X7639229Y-17711508D01*
X7639229Y-17711508D02*
X7658277Y-17701984D01*
X7658277Y-17701984D02*
X7705896Y-17701984D01*
X7705896Y-17701984D02*
X7724944Y-17711508D01*
X7724944Y-17711508D02*
X7734467Y-17721031D01*
X7734467Y-17721031D02*
X7743991Y-17740079D01*
X7743991Y-17740079D02*
X7743991Y-17759127D01*
X7743991Y-17759127D02*
X7734467Y-17787698D01*
X7734467Y-17787698D02*
X7620182Y-17901984D01*
X7620182Y-17901984D02*
X7743991Y-17901984D01*
X7915420Y-17701984D02*
X7877325Y-17701984D01*
X7877325Y-17701984D02*
X7858277Y-17711508D01*
X7858277Y-17711508D02*
X7848753Y-17721031D01*
X7848753Y-17721031D02*
X7829706Y-17749603D01*
X7829706Y-17749603D02*
X7820182Y-17787698D01*
X7820182Y-17787698D02*
X7820182Y-17863889D01*
X7820182Y-17863889D02*
X7829706Y-17882936D01*
X7829706Y-17882936D02*
X7839229Y-17892460D01*
X7839229Y-17892460D02*
X7858277Y-17901984D01*
X7858277Y-17901984D02*
X7896372Y-17901984D01*
X7896372Y-17901984D02*
X7915420Y-17892460D01*
X7915420Y-17892460D02*
X7924944Y-17882936D01*
X7924944Y-17882936D02*
X7934467Y-17863889D01*
X7934467Y-17863889D02*
X7934467Y-17816270D01*
X7934467Y-17816270D02*
X7924944Y-17797222D01*
X7924944Y-17797222D02*
X7915420Y-17787698D01*
X7915420Y-17787698D02*
X7896372Y-17778174D01*
X7896372Y-17778174D02*
X7858277Y-17778174D01*
X7858277Y-17778174D02*
X7839229Y-17787698D01*
X7839229Y-17787698D02*
X7829706Y-17797222D01*
X7829706Y-17797222D02*
X7820182Y-17816270D01*
X8058277Y-17701984D02*
X8077325Y-17701984D01*
X8077325Y-17701984D02*
X8096372Y-17711508D01*
X8096372Y-17711508D02*
X8105896Y-17721031D01*
X8105896Y-17721031D02*
X8115420Y-17740079D01*
X8115420Y-17740079D02*
X8124944Y-17778174D01*
X8124944Y-17778174D02*
X8124944Y-17825793D01*
X8124944Y-17825793D02*
X8115420Y-17863889D01*
X8115420Y-17863889D02*
X8105896Y-17882936D01*
X8105896Y-17882936D02*
X8096372Y-17892460D01*
X8096372Y-17892460D02*
X8077325Y-17901984D01*
X8077325Y-17901984D02*
X8058277Y-17901984D01*
X8058277Y-17901984D02*
X8039229Y-17892460D01*
X8039229Y-17892460D02*
X8029706Y-17882936D01*
X8029706Y-17882936D02*
X8020182Y-17863889D01*
X8020182Y-17863889D02*
X8010658Y-17825793D01*
X8010658Y-17825793D02*
X8010658Y-17778174D01*
X8010658Y-17778174D02*
X8020182Y-17740079D01*
X8020182Y-17740079D02*
X8029706Y-17721031D01*
X8029706Y-17721031D02*
X8039229Y-17711508D01*
X8039229Y-17711508D02*
X8058277Y-17701984D01*
X8201134Y-17701984D02*
X8201134Y-17740079D01*
X8277325Y-17701984D02*
X8277325Y-17740079D01*
X8572563Y-17978174D02*
X8563039Y-17968650D01*
X8563039Y-17968650D02*
X8543991Y-17940079D01*
X8543991Y-17940079D02*
X8534468Y-17921031D01*
X8534468Y-17921031D02*
X8524944Y-17892460D01*
X8524944Y-17892460D02*
X8515420Y-17844841D01*
X8515420Y-17844841D02*
X8515420Y-17806746D01*
X8515420Y-17806746D02*
X8524944Y-17759127D01*
X8524944Y-17759127D02*
X8534468Y-17730555D01*
X8534468Y-17730555D02*
X8543991Y-17711508D01*
X8543991Y-17711508D02*
X8563039Y-17682936D01*
X8563039Y-17682936D02*
X8572563Y-17673412D01*
X8734468Y-17768650D02*
X8734468Y-17901984D01*
X8686849Y-17692460D02*
X8639230Y-17835317D01*
X8639230Y-17835317D02*
X8763039Y-17835317D01*
X8991611Y-17901984D02*
X8991611Y-17701984D01*
X9077325Y-17901984D02*
X9077325Y-17797222D01*
X9077325Y-17797222D02*
X9067801Y-17778174D01*
X9067801Y-17778174D02*
X9048753Y-17768650D01*
X9048753Y-17768650D02*
X9020182Y-17768650D01*
X9020182Y-17768650D02*
X9001134Y-17778174D01*
X9001134Y-17778174D02*
X8991611Y-17787698D01*
X9201134Y-17901984D02*
X9182087Y-17892460D01*
X9182087Y-17892460D02*
X9172563Y-17882936D01*
X9172563Y-17882936D02*
X9163039Y-17863889D01*
X9163039Y-17863889D02*
X9163039Y-17806746D01*
X9163039Y-17806746D02*
X9172563Y-17787698D01*
X9172563Y-17787698D02*
X9182087Y-17778174D01*
X9182087Y-17778174D02*
X9201134Y-17768650D01*
X9201134Y-17768650D02*
X9229706Y-17768650D01*
X9229706Y-17768650D02*
X9248753Y-17778174D01*
X9248753Y-17778174D02*
X9258277Y-17787698D01*
X9258277Y-17787698D02*
X9267801Y-17806746D01*
X9267801Y-17806746D02*
X9267801Y-17863889D01*
X9267801Y-17863889D02*
X9258277Y-17882936D01*
X9258277Y-17882936D02*
X9248753Y-17892460D01*
X9248753Y-17892460D02*
X9229706Y-17901984D01*
X9229706Y-17901984D02*
X9201134Y-17901984D01*
X9382087Y-17901984D02*
X9363039Y-17892460D01*
X9363039Y-17892460D02*
X9353515Y-17873412D01*
X9353515Y-17873412D02*
X9353515Y-17701984D01*
X9534468Y-17892460D02*
X9515420Y-17901984D01*
X9515420Y-17901984D02*
X9477325Y-17901984D01*
X9477325Y-17901984D02*
X9458277Y-17892460D01*
X9458277Y-17892460D02*
X9448753Y-17873412D01*
X9448753Y-17873412D02*
X9448753Y-17797222D01*
X9448753Y-17797222D02*
X9458277Y-17778174D01*
X9458277Y-17778174D02*
X9477325Y-17768650D01*
X9477325Y-17768650D02*
X9515420Y-17768650D01*
X9515420Y-17768650D02*
X9534468Y-17778174D01*
X9534468Y-17778174D02*
X9543992Y-17797222D01*
X9543992Y-17797222D02*
X9543992Y-17816270D01*
X9543992Y-17816270D02*
X9448753Y-17835317D01*
X9620182Y-17892460D02*
X9639230Y-17901984D01*
X9639230Y-17901984D02*
X9677325Y-17901984D01*
X9677325Y-17901984D02*
X9696373Y-17892460D01*
X9696373Y-17892460D02*
X9705896Y-17873412D01*
X9705896Y-17873412D02*
X9705896Y-17863889D01*
X9705896Y-17863889D02*
X9696373Y-17844841D01*
X9696373Y-17844841D02*
X9677325Y-17835317D01*
X9677325Y-17835317D02*
X9648753Y-17835317D01*
X9648753Y-17835317D02*
X9629706Y-17825793D01*
X9629706Y-17825793D02*
X9620182Y-17806746D01*
X9620182Y-17806746D02*
X9620182Y-17797222D01*
X9620182Y-17797222D02*
X9629706Y-17778174D01*
X9629706Y-17778174D02*
X9648753Y-17768650D01*
X9648753Y-17768650D02*
X9677325Y-17768650D01*
X9677325Y-17768650D02*
X9696373Y-17778174D01*
X9772563Y-17978174D02*
X9782087Y-17968650D01*
X9782087Y-17968650D02*
X9801134Y-17940079D01*
X9801134Y-17940079D02*
X9810658Y-17921031D01*
X9810658Y-17921031D02*
X9820182Y-17892460D01*
X9820182Y-17892460D02*
X9829706Y-17844841D01*
X9829706Y-17844841D02*
X9829706Y-17806746D01*
X9829706Y-17806746D02*
X9820182Y-17759127D01*
X9820182Y-17759127D02*
X9810658Y-17730555D01*
X9810658Y-17730555D02*
X9801134Y-17711508D01*
X9801134Y-17711508D02*
X9782087Y-17682936D01*
X9782087Y-17682936D02*
X9772563Y-17673412D01*
M02*
