M48
; DRILL file {KiCad 9.0.4} date 2025-11-25T21:14:06-0500
; FORMAT={-:-/ absolute / metric / decimal}
; #@! TF.CreationDate,2025-11-25T21:14:06-05:00
; #@! TF.GenerationSoftware,Kicad,Pcbnew,9.0.4
; #@! TF.FileFunction,MixedPlating,1,4
FMAT,2
METRIC
; #@! TA.AperFunction,Plated,PTH,ViaDrill
T1C0.300
; #@! TA.AperFunction,Plated,PTH,ViaDrill
T2C0.400
; #@! TA.AperFunction,Plated,PTH,ComponentDrill
T3C0.600
; #@! TA.AperFunction,Plated,PTH,ComponentDrill
T4C0.800
; #@! TA.AperFunction,Plated,PTH,ComponentDrill
T5C1.000
; #@! TA.AperFunction,Plated,PTH,ComponentDrill
T6C1.200
; #@! TA.AperFunction,Plated,PTH,ComponentDrill
T7C1.300
; #@! TA.AperFunction,Plated,PTH,ComponentDrill
T8C2.700
; #@! TA.AperFunction,Plated,PTH,ComponentDrill
T9C3.200
%
G90
G05
T1
X76.95Y-122.0
X76.95Y-124.0
X77.462Y-70.1
X77.462Y-73.5
X79.825Y-72.0
X81.688Y-68.5
X83.4Y-115.0
X83.4Y-117.9
X83.4Y-119.55
X84.96Y-102.05
X85.0Y-96.45
X85.03Y-98.03
X85.2Y-123.61
X85.2Y-126.61
X85.2Y-129.61
X85.962Y-63.0
X85.962Y-66.4
X85.962Y-70.1
X85.962Y-73.5
X85.962Y-77.3
X85.962Y-80.7
X88.25Y-64.6
X88.25Y-71.5
X88.325Y-79.0
X89.475Y-141.475
X90.188Y-76.0
X90.287Y-61.6
X90.287Y-68.5
X91.0Y-141.5
X94.462Y-70.1
X94.462Y-73.5
X96.638Y-90.0
X96.825Y-72.0
X97.0Y-109.0
X97.1Y-78.22
X97.1Y-79.77
X97.138Y-94.5
X97.85Y-134.0
X97.95Y-136.0
X98.46Y-110.0
X98.638Y-94.5
X99.108Y-90.0
X99.262Y-68.5
X102.45Y-77.0
X102.5Y-90.0
X102.5Y-94.5
X102.65Y-80.95
X102.65Y-82.5
X104.462Y-70.1
X104.462Y-73.5
X105.0Y-76.45
X105.0Y-81.05
X106.75Y-71.7
X107.0Y-86.0
X107.125Y-79.55
X108.85Y-99.5
X109.0Y-71.5
X109.0Y-86.0
X109.0Y-143.5
X109.212Y-68.3
X109.96Y-134.0
X109.96Y-136.0
X111.35Y-101.5
X111.95Y-97.5
X111.95Y-99.5
X112.0Y-78.0
X112.5Y-126.5
X113.0Y-108.5
X113.5Y-97.5
X113.5Y-99.5
X113.992Y-119.008
X120.0Y-115.0
X121.0Y-126.5
X121.0Y-128.0
X122.024Y-121.326
X122.35Y-94.5
X123.45Y-104.0
X123.45Y-106.0
X125.0Y-104.0
X125.0Y-106.0
T2
X71.725Y-93.45
X75.2Y-132.85
X75.5Y-105.325
X77.0Y-81.7
X77.5Y-126.55
X77.5Y-132.85
X81.0Y-135.0
X81.0Y-137.0
X81.5Y-120.0
X83.5Y-123.5
X95.0Y-139.0
T4
X78.0Y-140.347
X78.0Y-143.847
X80.5Y-95.0
X80.5Y-97.5
X89.5Y-139.0
X91.5Y-139.0
X123.0Y-99.5
X125.5Y-99.5
T5
X76.5Y-108.42
X76.5Y-110.96
X76.5Y-113.5
X76.5Y-116.04
X85.46Y-90.0
X86.92Y-144.0
X87.96Y-95.1
X87.96Y-97.64
X87.96Y-100.18
X87.96Y-102.72
X87.96Y-105.26
X87.96Y-107.8
X87.96Y-110.34
X87.96Y-112.88
X87.96Y-115.42
X87.96Y-117.96
X87.96Y-120.5
X87.96Y-123.04
X87.96Y-125.58
X87.96Y-128.12
X87.96Y-130.66
X88.0Y-90.0
X89.46Y-144.0
X90.5Y-95.1
X90.5Y-97.64
X90.5Y-100.18
X90.5Y-102.72
X90.5Y-105.26
X90.5Y-107.8
X90.5Y-110.34
X90.5Y-112.88
X90.5Y-115.42
X90.5Y-117.96
X90.5Y-120.5
X90.5Y-123.04
X90.5Y-125.58
X90.5Y-128.12
X90.5Y-130.66
X90.54Y-90.0
X92.0Y-144.0
X106.88Y-90.5
X109.42Y-90.5
X111.235Y-84.5
X111.96Y-90.5
X113.775Y-84.5
X114.5Y-90.5
X115.9Y-95.1
X115.9Y-97.64
X115.9Y-100.18
X115.9Y-102.72
X115.9Y-105.26
X115.9Y-107.8
X115.9Y-110.34
X115.9Y-112.88
X115.9Y-115.42
X115.9Y-117.96
X115.9Y-120.5
X115.9Y-123.04
X115.9Y-125.58
X115.9Y-128.12
X115.9Y-130.66
X116.92Y-139.0
X118.44Y-95.1
X118.44Y-97.64
X118.44Y-100.18
X118.44Y-102.72
X118.44Y-105.26
X118.44Y-107.8
X118.44Y-110.34
X118.44Y-112.88
X118.44Y-115.42
X118.44Y-117.96
X118.44Y-120.5
X118.44Y-123.04
X118.44Y-125.58
X118.44Y-128.12
X118.44Y-130.66
X119.46Y-139.0
X122.0Y-139.0
X122.96Y-108.96
X122.96Y-111.5
X122.96Y-114.04
X122.96Y-116.58
X125.5Y-108.96
X125.5Y-111.5
X125.5Y-114.04
X125.5Y-116.58
X125.5Y-124.46
X125.5Y-127.0
X125.5Y-129.54
X125.5Y-132.08
T6
X53.0Y-99.0
X53.0Y-139.0
X71.0Y-99.0
X71.0Y-139.0
T7
X121.5Y-75.5
X121.5Y-80.5
X121.5Y-85.5
T8
X67.15Y-83.4
X67.15Y-90.6
T9
X54.0Y-63.0
X54.0Y-146.0
X124.5Y-63.0
X124.5Y-146.0
T3
G00X60.6Y-80.25
M15
G01X61.7Y-80.25
M16
G05
G00X60.6Y-93.75
M15
G01X61.7Y-93.75
M16
G05
T5
G00X58.5Y-70.542
M15
G01X58.5Y-72.542
M16
G05
G00X60.5Y-76.242
M15
G01X62.5Y-76.242
M16
G05
G00X64.5Y-70.542
M15
G01X64.5Y-72.542
M16
G05
M30
